<svg id="Layer_1" data-name="Layer 1" xmlns="http://www.w3.org/2000/svg" xmlns:xlink="http://www.w3.org/1999/xlink" viewBox="0 0 102.312 102.312"><defs><style>.cls-1{fill:#fff;}.cls-2{fill:url(#radial-gradient);}.cls-3{mask:url(#mask);}.cls-10,.cls-12,.cls-4,.cls-6,.cls-8{fill:none;}.cls-5{fill:#4063d8;}.cls-6{stroke:#4063d8;}.cls-10,.cls-12,.cls-6,.cls-8{stroke-linecap:round;stroke-linejoin:round;stroke-width:0;}.cls-7{fill:#389826;}.cls-8{stroke:#389826;}.cls-9{fill:#9558b2;}.cls-10{stroke:#9558b2;}.cls-11{fill:#cb3c33;}.cls-12{stroke:#cb3c33;}</style><radialGradient id="radial-gradient" cx="51.156" cy="51.156" r="51.327" gradientUnits="userSpaceOnUse"><stop offset="0.642" stop-color="#fff"/><stop offset="0.759" stop-color="#a3a3a3"/><stop offset="0.877" stop-color="#4c4c4c"/><stop offset="0.96" stop-color="#151515"/><stop offset="1"/></radialGradient><mask id="mask" x="-0.171" y="-0.171" width="102.654" height="102.654" maskUnits="userSpaceOnUse"><path class="cls-1" d="M-.171-.171V102.483M72.705,89.232H30.082a1.161,1.161,0,0,1-1.007-.582L7.763,51.738a1.167,1.167,0,0,1,0-1.163L29.075,13.662a1.16,1.16,0,0,1,1.007-.581H72.705a1.163,1.163,0,0,1,1.007.581L95.023,50.575a1.162,1.162,0,0,1,0,1.163L73.712,88.65A1.164,1.164,0,0,1,72.705,89.232Z"/><path class="cls-2" d="M-.171-.171V102.483H102.483V-.171Zm72.876,89.4H30.082a1.161,1.161,0,0,1-1.007-.582L7.763,51.738a1.167,1.167,0,0,1,0-1.163L29.075,13.662a1.16,1.16,0,0,1,1.007-.581H72.705a1.163,1.163,0,0,1,1.007.581L95.023,50.575a1.162,1.162,0,0,1,0,1.163L73.712,88.65A1.164,1.164,0,0,1,72.705,89.232Z"/></mask></defs><g class="cls-3"><path class="cls-4" d="M102.312,0H98.793a10.149,10.149,0,0,0,3.519,2.255Z"/><path class="cls-4" d="M25.611,77.08h0a1.84,1.84,0,0,1-.05.5A1.84,1.84,0,0,0,25.611,77.08Z"/><path class="cls-4" d="M65.278,11.429c3.23,1.269,6.3.362,9.493-.271,1.07,3.439,1.135,7.152,4.171,9.766,2.763-2.731,3.445-6.236,3.569-9.852,1.973-.608,3.409.578,4.992.752s3.316.724,4.946-.576c.149-3.074-2.231-4.976-4.055-7.8L92.492,0H83.479c.2.883.676,2.034-.628,2.241-1.8.285-1.1-1.359-1.393-2.241h-5.1c.069.99.163,2.128-1.306,1.943C73.93,1.8,74.333.755,74.316,0H66.259c.965,1.278,1.933,2.561,3.065,4.059C67.363,6.069,65.557,8.234,65.278,11.429ZM89.8,9.909c-1.781.582-2.578-.306-3.868-2.044C88.171,7.927,89.031,8.536,89.8,9.909ZM82.55,4.7a1.142,1.142,0,0,1,.524.063c.413.168.514.629.5,1.161a.935.935,0,0,1-.963.871c-.8-.006-1.109-.523-1.069-1.258C81.573,4.93,82.067,4.742,82.55,4.7ZM79.3,1.84a1.471,1.471,0,0,1,.357.108.792.792,0,0,1,.47.9,1.149,1.149,0,0,1-1.438.993.938.938,0,0,1-.823-1.069C77.963,1.945,78.568,1.708,79.3,1.84ZM78.67,5.934c.586-.028.745.391.894.87-.088.6-.175,1.221-1.066,1.147a.912.912,0,0,1-.92-.836C77.507,6.376,77.916,5.97,78.67,5.934Zm-.536,5.2C79,13.17,79,13.17,77.852,14.848A3.45,3.45,0,0,1,78.134,11.137Zm-2.68-7.124c.458.049.848.327.839.538,0,1.187-.573,1.438-1.229,1.426a.821.821,0,0,1-.788-.914C74.265,4.254,74.744,3.939,75.454,4.013Zm-3.519,3.11c-.679,1.858-1.846,2.54-4.2,3.22C68.664,7.79,69.757,6.971,71.935,7.123Z"/><path class="cls-4" d="M5.091,2.728,4.26,0H0V2.84A28.2,28.2,0,0,1,5.091,2.728Z"/><path class="cls-4" d="M4.984,5.752C3.32,5.7,1.661,5.6,0,5.526v4.692c1.089-.153,2.182-.336,3.28-.536C4.379,8.66,4.407,7.08,4.984,5.752Z"/><path class="cls-4" d="M37.265,59.371l8.987-.963c1.651,3.006,2.492,6.129,4.737,8.572,3.163-2.112,2.342-5.927,4.063-8.328,3.135.048,6.024.987,9.1.375-.281-3.357-2.975-5.039-4.215-7.533,1.563-2.4,4.222-4.1,4.047-7.6-1.727.089-3.477-1.244-4.949.651-1.383-.581-2.933.677-4.344-.412-1.033-1.75-.793-4.217-2.773-5.544a2.692,2.692,0,0,0-2.114-2.121,6.586,6.586,0,0,0-2.2,3.085c-.568,1.348-.4,3.059-2.025,4.239-2.8.186-5.99-2.433-9.078.482,1.118,2.774,3.75,4.53,5.506,7.146-.855.865-1.527,1.832-2.961,1.345l-.037.011C39.658,55.247,35.985,56.423,37.265,59.371ZM59.04,44.582h2.339c-.9,1.434-1.45,2.342-3.015,1.75C58.6,45.72,58.82,45.151,59.04,44.582ZM61.147,57.5c-1.9.359-2.613-.253-2.926-1.62C59.768,55.245,60.373,56.242,61.147,57.5Zm-6.592-3.261a.818.818,0,0,1-.821-.912c.008-.6.052-1.363.922-1.253.365.046.674.53.946.761C55.573,53.66,55.3,54.2,54.555,54.234Zm-.818-5.841a.981.981,0,0,1,1.114-.737.871.871,0,0,1,.819,1.021c-.106.533-.429.97-.949.983A.9.9,0,0,1,53.737,48.393Zm-2.727,15c-1.26-1.664-1.264-2.73-.453-3.931C52.249,60.394,51.962,61.521,51.01,63.389ZM49.931,55.26c.124-.465.386-.847.988-.653.292.144.694.215.765.531a.691.691,0,0,1-.048.393.936.936,0,0,1-1.046.713A.74.74,0,0,1,49.931,55.26Zm1.936-16.624c-.449.957.209,2.28-.988,2.991C50.189,39.643,50.188,39.614,51.867,38.636ZM50,46.168c.1-.48.372-.871.961-.681l.163.051c.382.12.767.272.606.864a2.034,2.034,0,0,1-.149.327.76.76,0,0,1-.855.412A.79.79,0,0,1,50,46.168Zm.344,3.53a1.268,1.268,0,0,1,1.321,1.084c.253.915-.54,1.127-1.087,1.188a1.342,1.342,0,0,1-1.059-.777,1.517,1.517,0,0,1-.041-.458A1.118,1.118,0,0,1,50.345,49.7Zm-3.469-1.682c.674-.2.829.324.975.78a.78.78,0,0,1,.036.405.476.476,0,0,1-.1.192,1.451,1.451,0,0,1-.688.382.844.844,0,0,1-1.03-.736C45.968,48.454,46.383,48.165,46.876,48.016Zm-.033,4.563c.6-.17.886.211.982.712a.921.921,0,0,1,0,.374.772.772,0,0,1-.4.5,1.6,1.6,0,0,1-.344.142c-.6.081-.865-.293-1.006-.781C45.889,52.872,46.383,52.709,46.843,52.579Zm-8.359-7.644c2.066-.46,2.674.308,3.143,1.445C40.078,47.1,39.529,45.937,38.484,44.935Zm4.656,9.974c-1.317,2.116-2.32,3.011-4.117,2.533C39.676,55.785,40.958,55.37,43.14,54.909Z"/><path class="cls-4" d="M96.918,3.937c0,2.543,1.871,4.083,2.907,5.874.839.129,1.667.219,2.487.282V4.635A11.177,11.177,0,0,0,100.7,5.2C98.672,6.11,98.356,3.734,96.918,3.937Z"/><path class="cls-4" d="M33.654,48.7h.018l-.018-.017Z"/><path class="cls-4" d="M44.034,15.024a4.155,4.155,0,0,0,1.906,2.64l.253-2.446Z"/><path class="cls-4" d="M32.273,48.648C28.854,44.05,24.5,43.724,19.2,44.8c-2.727.556-2.6,1.985-3,3.681,4.414,2.561,8.97,2.621,13.667.749C31.708,50.6,31.2,51.964,30,53.5c-4.572-1.461-9.023-2.169-13.466-.095l-2.272-1.93c-.551,2.571,1.475,4.115,2.27,6.158a26.812,26.812,0,0,0,12.944-.216c2.142-2.548,4.472-5,4.18-8.717C33.174,48.7,32.444,48.879,32.273,48.648Z"/><path class="cls-4" d="M59.1,35.448a5.472,5.472,0,0,0,8.064.45c3.093-3.452,4.456-7.734,5.9-11.8-1.225-5.5-4.971-6.656-9.625-6.01a32.863,32.863,0,0,0-7.436,13.094C57.033,32.528,57.558,34.341,59.1,35.448Zm.024-.038c.086-1.582-.324-3.144,1.239-4.516A20.579,20.579,0,0,0,66.535,20.38c1.789-.617,2.82.123,3.349,1.823-3.3,3.634-6.147,7.451-6.951,12.389-1.139.988-2.493.806-3.8.818,0,.019,0,.038,0,.056l-.053-.056C59.091,35.41,59.11,35.411,59.128,35.41Z"/><path class="cls-4" d="M75.49,30.526A2.626,2.626,0,0,1,74.392,34l.083.033c-.052,1.915-2.286,2.972-1.929,5.67,3.886-1.316,7.916-.775,12.276-1.455-3.076-2.453-3.393-6.137-5.394-8.863.143-1.622-.462-2.447-2.2-2.061a5.343,5.343,0,0,1-.7.6C76.617,28.961,76.719,30.009,75.49,30.526Zm3.884-1.152c-.335.691-.3,1.66-1.649,1.869C77.471,29.813,77.171,28.621,79.374,29.374Z"/><path class="cls-4" d="M46.351,82.66c-.595,1.487-2.474,2.361-2.025,4.7,4.364-.6,8.788-.047,13.305-.137-.458-3.034-3.278-3.889-3.731-6.4a8.3,8.3,0,0,0-3.313-5.575l-2.07,1.777-.035.155C48.017,79.106,48.908,81.554,46.351,82.66Zm.211,3.132c-.19-1.069.777-1.039,1.346-1.4C47.957,85.43,47.578,86.059,46.562,85.792Z"/><path class="cls-4" d="M43.52,8.761c4.669.442,8.793,1.85,13.235.637,2.552-.7,3.9-1.632,3.4-4.36a1.755,1.755,0,0,0,.253,0c.617-.068.67-.554.564-1.159v0q-.417.562-.836,1.122h.016l-.043.036L60.134,5c-4.782-.344-9.424-2.394-14.382-.918-1.29.384-2.412-.726-2.888-2.119h-.071L42.84,1.9c.007.021.017.041.024.062,1.781-.059,3.683.249,5.305-.289C51.711.5,55.92,3.669,59,0H42.828q-.018.977-.035,1.952C39.884,4.726,44.173,6.323,43.52,8.761Z"/><path class="cls-4" d="M16.284,86.723c-.806.15-.752.794-.794,1.383C16.5,88.074,16.235,87.308,16.284,86.723Z"/><path class="cls-4" d="M20.92,21.394a1.843,1.843,0,0,0-.431-.148h0A1.843,1.843,0,0,1,20.92,21.394Z"/><path class="cls-4" d="M75.49,30.526l0,0c-.012-.035-.019-.067-.032-.1l.032.108Z"/><path class="cls-4" d="M14.321,3.655c-1.434.881-1.517,3.389-3.934,3.437l.05.119c.9,1.46-.743,2.892.027,4.459,3.027,1.487,5.7-.566,8.728-1.292.817,3.277,1.234,6.683,4.28,8.868,3.243-2.225,2.995-5.878,3.9-9.039,3.358.534,6.281,2.065,9.71,1.33,0-1.913.16-3.545-2.3-3.606-.127.606-.254,1.211-.386,1.838a2.791,2.791,0,0,1-2.642-2.362c.774-.172,1.373-.3,1.967-.437-.06.753.3,1.082,1.042,1.023.3-.984-.027-1.337-.991-1.047.915-2.036-1.769-2.48-1.868-4.235L35.6,0H11.341C11.221,2.055,14,1.684,14.321,3.655Zm9.921,11.062c-1.35-.953-1.778-1.63-.432-2.372C24.838,12.833,24.487,13.589,24.242,14.717Zm2.623-10.25c.067-.3.744-.682,1.121-.658.609.039,1.219.363,1.121,1.2-.133.537-.411.87-.853.928a1.384,1.384,0,0,1-.5-.037A1.154,1.154,0,0,1,26.865,4.467ZM23.4,1.13a1.246,1.246,0,0,1,.467-.1c.444,0,.8.3.915.891a1.165,1.165,0,0,1-.454,1.21,1.216,1.216,0,0,1-.471.154,1.02,1.02,0,0,1-1.237-1.079A1.481,1.481,0,0,1,23.4,1.13ZM22.6,6.272a1.058,1.058,0,0,1,1.485-.847A1.535,1.535,0,0,1,24.9,6.531a1.171,1.171,0,0,1-1.32,1.141c-.656-.148-1.067-.544-1.028-1.135A1.387,1.387,0,0,1,22.6,6.272ZM20.021,3.663a.878.878,0,0,1,.767,1.068,1.076,1.076,0,0,1-1.24.977.949.949,0,0,1-.72-.87A1.035,1.035,0,0,1,20.021,3.663ZM13.186,9.67c.135-1.634,1.428-1.917,3.268-3.351C15.643,8.883,14.732,9.551,13.186,9.67Z"/><path class="cls-4" d="M26.291,26.884a1.747,1.747,0,0,0-.733-.595h0A1.747,1.747,0,0,1,26.291,26.884Z"/><path class="cls-4" d="M99.7,17.465l.955,1.273,1.662,1.633V15.979c-.428-.032-.856-.052-1.283-.091C99.7,15.767,99.794,16.651,99.7,17.465Z"/><path class="cls-4" d="M76.332,73.05c1.27.374,3.273,2.955,3.091-1.042l-.037.039c-.019-.02-.029-.048-.046-.069-.928-.365-2.347-.33-1.534-2.231,1.437.088.984,1.556,1.534,2.231.021.008.045.015.066.024a30.88,30.88,0,0,1,5.146-8.657c-3.629,1.105-7.037.2-10.458-.128l.939,1.231c-1.569.727-1.491-.333-1.5-1.3-3.6-.514-.507,2.027-1.276,2.806C76.007,66.947,76.218,69.971,76.332,73.05Z"/><path class="cls-4" d="M35.213,37.283h6.779c7.916-8.4,1.019-14.014-2.751-19.79-7.669-2.634-8.058,4.353-11.132,7.307C29.557,29.541,31.244,33.894,35.213,37.283ZM35.582,19.6c-.05,4.535,2.556,8.082,5.221,11.615.9,1.192,1.162,1.89.621,2.342a1.723,1.723,0,0,1-.481.268,10.091,10.091,0,0,1-2.319.46Q37.968,32.617,37.219,31a80.314,80.314,0,0,0-5.152-9.342C32.583,20.1,33.254,18.776,35.582,19.6Z"/><path class="cls-4" d="M72.26,65.958l-.026-.008.016.024C72.255,65.969,72.256,65.963,72.26,65.958Z"/><path class="cls-4" d="M10.354,96.385c-.015-.005-.028-.012-.042-.017l.037.041Z"/><path class="cls-4" d="M60.161,101.521c1.8.036,2.076-1.139,2.018-2.585-.627.9-1.9,1.292-2.063,2.568l.045.015-.05,0,.005-.02c-5.06-1.837-10.166-2.535-15.381-.617-2.142-1.342-1.281-2.668.011-4,5.444,2.316,10.856,1.748,16.26-.111-4.149-7.121-10.892-3.757-16.564-4.561l-3.577,7.4,1.443,2.693H60.2A2.425,2.425,0,0,0,60.161,101.521Z"/><path class="cls-4" d="M4.02,93.434C2.665,93.272,1.3,93.227,0,93.048v4.971a5.586,5.586,0,0,0,1.977-.272c2.3-.839,3.024.551,3.09,2.573-1.677,1.36-3.424.887-5.067.341v1.651H4.711l.659-1.744C7.8,97.558,4.118,95.98,4.02,93.434Z"/><path class="cls-4" d="M100.565,81.038a2.6,2.6,0,0,0,.108.647.864.864,0,0,0-.512.187.864.864,0,0,1,.512-.187A2.6,2.6,0,0,1,100.565,81.038Z"/><path class="cls-4" d="M38.525,98.186a1.188,1.188,0,0,0,.273-.76h0A1.188,1.188,0,0,1,38.525,98.186Z"/><path class="cls-4" d="M29.711,65.976h0l-.011,0v.009Z"/><path class="cls-4" d="M16.4,64.943l-.152.124Z"/><path class="cls-4" d="M29.7,65.98c-.069-.8.439-1.675-.437-2.468-2.992-.177-6.058,1-9.188.419,1.3,2.16-.861,1.454-1.584,1.94l.011-1.979c-.888-.241-1.656-.227-1.908.893.729.2.93,1.273,1.856,1.146q.029.987.058,1.973c1.909-.2,2.7.824,2.889,2.592.1.953.02,2.028,1.089,2.576A1.805,1.805,0,0,0,24.041,75c2.617-1.265.792-5.281,3.611-6.512a.757.757,0,0,0,.484-.471C28.463,67.189,28.705,66.3,29.7,65.98Zm-7.163,7.04c-.038-.913-.335-1.856.4-2.912C23.822,71.343,23.907,72.267,22.537,73.02Z"/><path class="cls-4" d="M98.644,95.353l.026-.011,0,.024A12.586,12.586,0,0,0,102.312,97V91.807c-.369.065-.739.141-1.111.237C99.032,92.6,98.475,93.452,98.644,95.353Z"/><path class="cls-4" d="M2.467,86.882A2.459,2.459,0,0,0,.828,84.617,6.511,6.511,0,0,1,0,83.706v1.578a.6.6,0,0,0,.074.009A1.5,1.5,0,0,1,0,85.508v1.917A5.014,5.014,0,0,0,2.467,86.882Z"/><path class="cls-4" d="M37.409,91.587c-3.644-1.645-6.667.732-9.917.9-1.06.19-.56-.575-.612-1-.945-2.8-1.524-5.825-4.5-7.573-2.695,2.169-1.908,5.852-4.131,8.134-2.838.026-5.793-1.415-8.643-.054-.8,1.734,1.152,2.844.753,4.389A4.453,4.453,0,0,1,13.341,99.5a24.848,24.848,0,0,0-2.159,2.816H26.844a.639.639,0,0,1-.243-.849c.163-.454.329-.983.987-.819.061.015.122.032.18.052.407.134.713.381.537.951a2.161,2.161,0,0,1-.165.338,1.092,1.092,0,0,1-.314.327h6.6a9.294,9.294,0,0,1-1.8-2.933C34.341,96.891,37.162,94.961,37.409,91.587Zm-25.691.838c1.954.348,3.033.861,3.587,2.768C13.453,94.84,12.289,94.427,11.718,92.425Zm6.756,4.543c.077-.471.344-.874.925-.658.4.148.984.21.738.924-.151.44-.414.832-.963.721A.827.827,0,0,1,18.474,96.968Zm1.768,4.6c-.153.5-.477.861-1.011.709a.792.792,0,0,1-.511-1.105.948.948,0,0,1,1.091-.434C20.127,100.835,20.3,101.118,20.242,101.568Zm3.973-7.362c.142.639-.326.879-.815,1.033-.688.217-.869-.307-.98-.786-.136-.586.216-.9.835-1.056C23.774,93.34,24.1,93.681,24.215,94.206Zm-1.384-7.782c1.312,1.224.736,2.368.4,3.7C21.972,88.857,22.346,87.722,22.831,86.424Zm1.486,12.958c-.029.217-.558.45-1.26.333a.83.83,0,0,1-.778-.979,1.024,1.024,0,0,1,1.336-.958C24.134,97.883,24.417,98.244,24.317,99.382Zm2.725-2.05c-.459-.143-.813-.445-.459-1.5-.025.061.083-.46.73-.214A.959.959,0,0,1,28,96.675.7.7,0,0,1,27.042,97.332Zm7.5-5.173A3.179,3.179,0,0,1,31.609,94.9C31.327,92.726,32.985,92.957,34.541,92.159Z"/><path class="cls-4" d="M100.961,84.321l1.351-.394V82.388c-.415.658-.862,1.3-1.351,1.933Z"/><path class="cls-4" d="M21.376,36.526a3.746,3.746,0,0,1-3.19,2.154q-.181.444-.365.888c3.527-.026,7.082.356,10.533-.742q-.169-.184-.338-.37a2.741,2.741,0,0,1-2.575-1.272c-.311-.519.577-.586,1.04-.683-1.263-2.025-.888-4.755-2.8-6.5q-.128,1.179-.256,2.357c-.734-1.068-1.714-2.145.05-3.04-.192-1.289-1.122-1.054-1.977-.976a38.126,38.126,0,0,1-2.529,8.74Zm1.757-1.211c.006,1.211-.922.856-1.511,1.037C22.006,35.86,22.22,35.118,23.133,35.315Z"/><path class="cls-4" d="M100.758,85.069a2.011,2.011,0,0,0-.617,2.053,17.2,17.2,0,0,1,2.171-.564V85.243A3.833,3.833,0,0,1,100.758,85.069Z"/><path class="cls-4" d="M87.238,87.187a2.4,2.4,0,0,0-1.644-1.78C85.512,86.582,85.946,87.281,87.238,87.187Z"/><path class="cls-4" d="M42.428,66.268A21.982,21.982,0,0,0,36,66.19c-4.545,3.8-6.2,8.446-7.215,13.32l3.58,5.461a16.185,16.185,0,0,0,5.634.207c4.635-4.076,6.384-9.032,7.53-14.341Zm-2.579,5.513c-2.017,3.062-4.247,6.017-4.386,9.662a2.27,2.27,0,0,1-2.562.513,2.173,2.173,0,0,1-1.128-1.932c2.61-3.42,5.666-6.936,6.42-12.083C42,68.5,40.91,70.172,39.849,71.781Z"/><path class="cls-4" d="M48.387,17.593c-.61,1.268-1.589-.358-2.366.041,2.223,2.264,2.939,5.184,3.543,8.151,2.173,3.109,3.317.759,3.26-1.019a7.6,7.6,0,0,1,3.4-6.746A2.511,2.511,0,0,0,57,15.349c-3.166,1.878-6.105.07-9.17-.4l-1.34.3C47.13,15.981,48.149,16.356,48.387,17.593Zm2.892,4.063c1.328.639.29,1.529.321,2.245A1.368,1.368,0,0,1,51.279,21.656Z"/><path class="cls-4" d="M93.933,65.748c-1.171.06-2.278-.787-3.065-.4-1.53,1.45-2.837,2.531-3.955,3.781-2.655,2.969-3.236,8.441-1.288,11.193,3.872-1.214,4.222-5.9,7.552-7.652.309-1.607.619-3.214.946-4.915,1.254-.171,2.714-.211,3.1,1.35.658,2.639-1.923,3.048-3.32,4.255-.775,3-3.46,5.107-3.649,8.467-.1,1.743-2.047,1.106-3.265,1.264,4.532,1.941,6.985,1.816,8.889-.893,6.334-9.016,6.417-10.66,1.455-16.326C96.281,65.827,95.1,65.688,93.933,65.748Z"/><path class="cls-4" d="M76.333,73.073V73.05l-.022-.008Z"/><path class="cls-4" d="M21.5,28.343l.01-.05-.04.053Z"/><path class="cls-4" d="M98.694,101.518l-.035-.036.027-.013a15.387,15.387,0,0,1-.02-6.1l-.015-.009c-3.416,2.793-3.421,2.812.008,6.127a6.065,6.065,0,0,0-.043.828h3.7V99.957a28.159,28.159,0,0,0-3.626,1.512C98.689,101.485,98.69,101.5,98.694,101.518Z"/><path class="cls-4" d="M73.383,52.42a6.211,6.211,0,0,1-5.213-1.075c-.061,2.526,1.857,4.139,2.491,6.049,5.221,1.45,10.052.37,15.016-.071A19.222,19.222,0,0,0,88.6,51.139l-2.819,2.045C81.807,50.775,77.359,51.8,73.383,52.42Z"/><path class="cls-4" d="M59.642,66.18c-4.989,7.451.139,12.8,3.835,18.649,2.457-.918,4.725-.322,7.256.109.345-2.678,1.829-4.564,2.741-6.649C68.211,65.5,68.211,65.5,59.642,66.18Zm9.275,16.56c-3.651-.868-2.706-3.45-2.715-5.622l-.018-.013v-.014a2.157,2.157,0,0,1-2.677-1.681c-.278-2.418-2.639-3.392-3.393-5.361.374-2.184,1.7-2.267,3.679-1.658-.767,3.274,2.54,5.447,2.391,8.7H66.2a.262.262,0,0,0,0,.028l3.477,2.49C70.376,81.107,69.127,81.728,68.917,82.74Z"/><path class="cls-4" d="M86.914,47.131c-.8-3.768-4.362-2.46-6.6-3.32-2.819-1.084-8.754,1.765-10.1,4.108C76.727,51.536,82.074,51.284,86.914,47.131Z"/><path class="cls-4" d="M1.715,18.69c.728-.65,3.687-2.956-.516-3.471L.11,16.1A1.636,1.636,0,0,1,0,17.253v3.3A12.969,12.969,0,0,1,1.715,18.69Z"/><path class="cls-4" d="M101.651,24.434a2.735,2.735,0,0,0,.661.642h0A2.735,2.735,0,0,1,101.651,24.434Z"/><path class="cls-4" d="M91.336,93.365c.477-.9.58-2.055-1.105-1.965-.556,1.543-1.809,2.138-3.363,2.487-.573-1.692,1.41-1.54,1.731-2.514-1.766-.538-3.475.58-5.329.3-1.533-2.038-1.3-5.129-3.869-6.451.031-.929-.192-1.634-1.334-1.528-2.2,2.072-1.893,5.265-3.349,7.643-3.112.177-6.11-.745-9.174.187.409,3.539,3.856,4.924,5.507,7.764-.983,1.047-2.088,1.992-3.071,3.025H78.266a1.181,1.181,0,0,1,.7-.309.785.785,0,0,1,.722.309H90.41a34.367,34.367,0,0,1-2.43-3.423C89.1,97.082,90.324,95.281,91.336,93.365Zm-20.4.691c-.357.389-.773.027-1.08-.294a3.828,3.828,0,0,1-.86-.332,3.641,3.641,0,0,1-.6-.692c.927-1.081,1.51-.353,2.091.387C70.852,93.34,71.329,93.622,70.932,94.056Zm8.411-8.763c-.074,1.225.68,2.539-.432,3.715C77.725,87.568,77.882,86.351,79.343,85.293ZM75.406,97.529c-.872.143-1.192-.4-1.037-1.152.091-.445.328-.958,1-.8a.967.967,0,0,1,.869.971C76.312,97.176,75.892,97.45,75.406,97.529Zm4.818,1.529a1.5,1.5,0,0,1-1.06.954,1.426,1.426,0,0,1-1.424-1.085,1.147,1.147,0,0,1,.807-1.549c1.023-.337,1.581.3,1.706,1.189A1.175,1.175,0,0,1,80.224,99.058Zm2.589-4.383c.33.475.811.862.788,1.215s-.549.678-.855,1.015c-.3-.354-.818-.7-.823-1.063S82.439,95.132,82.813,94.675Zm.118,6.992c-.358.051-.789-.405-1.154-.613.13-.8.49-1.412,1.149-1.54.287-.056.889.45,1.012.814C84.2,101.109,83.57,101.576,82.931,101.667Z"/><path class="cls-4" d="M0,69.829H0c.2.179.4.358.607.534C.4,70.187.2,70.009,0,69.829Z"/><path class="cls-4" d="M2.87,21.911a1.423,1.423,0,0,0,.371-.659h0A1.423,1.423,0,0,1,2.87,21.911Z"/><path class="cls-4" d="M91.8,43.4c-.167,1.356.665,1.961,1.4,2.62l.916,1.116a4.275,4.275,0,0,0,1.422,2.013,3.732,3.732,0,0,1,1.32,2.208l-2.827,3.931-.649,1.283c-1.8,2.041-.227,2.441,1.379,2.894,2.383.672,4.508-1.08,6.581-.9A3.48,3.48,0,0,1,102.312,60V53.49a1.188,1.188,0,0,1-.915.323.791.791,0,0,1-.781-.9c.016-.768.422-1.162,1.165-1.064a1.353,1.353,0,0,1,.531.189v-2.5a.97.97,0,0,1-1.128-.28c-.936-.89-.377-1.767.851-1.931a.7.7,0,0,1,.277.031V42.979a4.132,4.132,0,0,1-.375.562C98.47,44.281,95.116,41.4,91.8,43.4Zm3.289,2.688-1.327-.63L92.9,43.82a3.9,3.9,0,0,1,3.923,2.055C96.284,46.862,95.671,46.273,95.09,46.088ZM93.7,56.841l1.024-.974,2.809-1.132C95.916,57.566,95.916,57.566,93.7,56.841Z"/><path class="cls-4" d="M100.694,21.23h0c-1.546-.442-2.133-1.62-2.671-2.895C98.561,19.61,99.148,20.788,100.694,21.23Z"/><path class="cls-4" d="M18.509,67.933h0V67.9h-.022Z"/><path class="cls-4" d="M15,85.037C20.174,77.51,16.3,71.779,11.579,65.8,9.62,67.194,6.5,64.33,5.252,68.023l.054-.067c0,.023-.006.045-.011.068,1.122.118,2.306-.548,3.716.487-1.041,5.635,5.8,8.835,5.523,15.1-4.862-.654-4.145-5.159-5.383-7.4C7.8,73.757,4.5,71.617,5.3,68.024H5.256C4,69.715,2.746,71.4,1.889,72.553c1.069,5.516,4.07,9.234,7.408,12.854C11.208,85.265,13.224,85.74,15,85.037Z"/><path class="cls-4" d="M10,59.523c.006-3.695-3.9-4.7-5.375-7.685,1.649-2.5,5.57-3.718,5.469-7.773-2.851-1.081-5.215.677-7.912,1.182C1.064,44.229.663,42.627,0,41.212v7.051a.918.918,0,0,1,.426-.156c.36,0,.716.49,1,.706C1.4,49.52,1.1,49.9.585,49.944A1.542,1.542,0,0,1,0,49.887v2.858c.259.163.525.341.558.556A1.037,1.037,0,0,1,0,54.454v8.757a21.365,21.365,0,0,1,1.481-3.393C4.142,59.545,7.008,60.764,10,59.523ZM7.164,45.482l.641-.26-.159.731c-.657.967-1.378,1.8-2.884,1.318A2.132,2.132,0,0,1,7.164,45.482Zm.5,12.614a4.134,4.134,0,0,1-4.227-2.053C5.421,55.24,6.231,56.44,7.661,58.1Z"/><path class="cls-4" d="M11.267,38.544c4.749-4.632,5.069-10.295,7.966-14.989a11.942,11.942,0,0,1-2.888-3.476c-3.514,4.575-7.457,8.91-8.126,14.84-1.647,1.075-2.7-.024-3.858-.58.447-3.29,3.576-4.937,4.814-7.923.915-2.206,2.429-4.23,2.342-6.541a5.212,5.212,0,0,1,4.816.084c-1.351-4.427-5.182-.989-7.391-2.542-2.41,3.943-5.755,7.038-7.3,11.3-1.017,2.66-.239,4.7,2.138,6.186,1.042,1.262-.663,3.953,2.216,4.26C7.843,37.6,10.3,39.123,11.267,38.544Z"/><path class="cls-4" d="M87.6,19.065a3.7,3.7,0,0,0,2.751.24c.342,4.527,2.606,8.059,5.506,11.3,1.932,2.157,1.339,3.437-1.643,3.882-1.5-5.23-4-9.6-8.691-12.4-1.526,1.252-1.774,2.341-1.242,4.607,1.023,4.367,4.151,7.056,6.264,10.458h6.612c1.456-2.609,2.823-5.061,3.9-6.985a17.21,17.21,0,0,0-5.005-10.2C93.417,17.177,90.6,17.626,87.6,19.065Z"/><path class="cls-5" d="M82.851,2.241c1.3-.207.826-1.358.628-2.241H81.458C81.754.882,81.051,2.526,82.851,2.241Z"/><path class="cls-5" d="M75.048,1.943C76.517,2.128,76.423.99,76.354,0H74.316C74.333.755,73.93,1.8,75.048,1.943Z"/><path class="cls-5" d="M7.661,58.1c-1.43-1.656-2.24-2.856-4.227-2.053A4.134,4.134,0,0,0,7.661,58.1Z"/><path class="cls-5" d="M.585,49.944c.516-.044.81-.424.837-1.131-.28-.216-.636-.7-1-.706A.918.918,0,0,0,0,48.263v1.624A1.542,1.542,0,0,0,.585,49.944Z"/><path class="cls-5" d="M.558,53.3c-.033-.215-.3-.393-.558-.556v1.709A1.037,1.037,0,0,0,.558,53.3Z"/><path class="cls-5" d="M7.646,45.953c-.167-.151-.328-.307-.482-.471a2.132,2.132,0,0,0-2.4,1.789C6.268,47.755,6.989,46.92,7.646,45.953Z"/><path class="cls-5" d="M7.805,45.222l-.641.26c.154.164.315.32.482.471Z"/><path class="cls-5" d="M78.134,11.137a3.45,3.45,0,0,0-.282,3.711C79,13.17,79,13.17,78.134,11.137Z"/><path class="cls-5" d="M67.734,10.343c2.355-.68,3.522-1.362,4.2-3.22C69.757,6.971,68.664,7.79,67.734,10.343Z"/><path class="cls-5" d="M78.69,3.84a1.149,1.149,0,0,0,1.438-.993.792.792,0,0,0-.47-.9A1.471,1.471,0,0,0,79.3,1.84c-.733-.132-1.338.1-1.434.931A.938.938,0,0,0,78.69,3.84Z"/><path class="cls-5" d="M82.609,6.8a.935.935,0,0,0,.963-.871c.016-.532-.085-.993-.5-1.161A1.142,1.142,0,0,0,82.55,4.7c-.483.038-.977.226-1.01.837C81.5,6.276,81.808,6.793,82.609,6.8Z"/><path class="cls-5" d="M78.5,7.951c.891.074.978-.545,1.066-1.147-.149-.479-.308-.9-.894-.87-.754.036-1.163.442-1.092,1.181A.912.912,0,0,0,78.5,7.951Z"/><path class="cls-5" d="M89.8,9.909c-.765-1.373-1.625-1.982-3.868-2.044C87.218,9.6,88.015,10.491,89.8,9.909Z"/><path class="cls-5" d="M75.064,5.977c.656.012,1.225-.239,1.229-1.426.009-.211-.381-.489-.839-.538-.71-.074-1.189.241-1.178,1.05A.821.821,0,0,0,75.064,5.977Z"/><path class="cls-5" d="M23.578,7.672A1.171,1.171,0,0,0,24.9,6.531a1.535,1.535,0,0,0-.818-1.106,1.058,1.058,0,0,0-1.485.847,1.387,1.387,0,0,0-.045.265C22.511,7.128,22.922,7.524,23.578,7.672Z"/><path class="cls-5" d="M27.757,5.9a1.384,1.384,0,0,0,.5.037c.442-.058.72-.391.853-.928.1-.833-.512-1.157-1.121-1.2-.377-.024-1.054.355-1.121.658A1.154,1.154,0,0,0,27.757,5.9Z"/><path class="cls-5" d="M33.724,6.97c-.594.133-1.193.265-1.967.437A2.791,2.791,0,0,0,34.4,9.769c.132-.627.259-1.232.386-1.838l-.019.062C34.022,8.052,33.664,7.723,33.724,6.97Z"/><path class="cls-5" d="M13.186,9.67c1.546-.119,2.457-.787,3.268-3.351C14.614,7.753,13.321,8.036,13.186,9.67Z"/><path class="cls-5" d="M19.548,5.708a1.076,1.076,0,0,0,1.24-.977.878.878,0,0,0-.767-1.068,1.035,1.035,0,0,0-1.193,1.175A.949.949,0,0,0,19.548,5.708Z"/><path class="cls-5" d="M23.81,12.345c-1.346.742-.918,1.419.432,2.372C24.487,13.589,24.838,12.833,23.81,12.345Z"/><path class="cls-5" d="M23.861,3.284a1.216,1.216,0,0,0,.471-.154,1.165,1.165,0,0,0,.454-1.21c-.116-.6-.471-.892-.915-.891a1.246,1.246,0,0,0-.467.1,1.481,1.481,0,0,0-.78,1.075A1.02,1.02,0,0,0,23.861,3.284Z"/><path class="cls-5" d="M.11,16.1l-.11,0v1.161A1.636,1.636,0,0,0,.11,16.1Z"/><path class="cls-5" d="M86.868,93.887c1.554-.349,2.807-.944,3.363-2.487L88.6,91.373C88.278,92.347,86.3,92.2,86.868,93.887Z"/><path class="cls-5" d="M20.075,63.931,18.5,63.892l-.011,1.979C19.214,65.385,21.377,66.091,20.075,63.931Z"/><path class="cls-5" d="M22.537,73.02c1.37-.753,1.285-1.677.4-2.912C22.2,71.164,22.5,72.107,22.537,73.02Z"/><path class="cls-5" d="M25.441,37.184a2.741,2.741,0,0,0,2.575,1.272q-.768-.977-1.535-1.955C26.018,36.6,25.13,36.665,25.441,37.184Z"/><path class="cls-5" d="M21.376,36.526l-2.407.557-.783,1.6A3.746,3.746,0,0,0,21.376,36.526Z"/><path class="cls-5" d="M23.425,32.359q.128-1.179.256-2.357a6.541,6.541,0,0,0-.206-.683C21.711,30.214,22.691,31.291,23.425,32.359Z"/><path class="cls-5" d="M79.374,29.374c-2.2-.753-1.9.439-1.649,1.869C79.076,31.034,79.039,30.065,79.374,29.374Z"/><path class="cls-5" d="M48.387,17.593c-.238-1.237-1.257-1.612-1.9-2.337l-.3-.038-.253,2.446.081-.03C46.8,17.235,47.777,18.861,48.387,17.593Z"/><path class="cls-5" d="M11.718,92.425c.571,2,1.735,2.415,3.587,2.768C14.751,93.286,13.672,92.773,11.718,92.425Z"/><path class="cls-5" d="M34.541,92.159c-1.556.8-3.214.567-2.932,2.739A3.179,3.179,0,0,0,34.541,92.159Z"/><path class="cls-5" d="M23.615,97.778a1.024,1.024,0,0,0-1.336.958.83.83,0,0,0,.778.979c.7.117,1.231-.116,1.26-.333C24.417,98.244,24.134,97.883,23.615,97.778Z"/><path class="cls-5" d="M20.137,97.234c.246-.714-.338-.776-.738-.924-.581-.216-.848.187-.925.658a.827.827,0,0,0,.7.987C19.723,98.066,19.986,97.674,20.137,97.234Z"/><path class="cls-5" d="M22.42,94.453c.111.479.292,1,.98.786.489-.154.957-.394.815-1.033-.118-.525-.441-.866-.96-.809C22.636,93.549,22.284,93.867,22.42,94.453Z"/><path class="cls-5" d="M19.811,100.738a.948.948,0,0,0-1.091.434.792.792,0,0,0,.511,1.105c.534.152.858-.209,1.011-.709C20.3,101.118,20.127,100.835,19.811,100.738Z"/><path class="cls-5" d="M28.14,101.985a2.161,2.161,0,0,0,.165-.338c.176-.57-.13-.817-.537-.951-.058-.02-.119-.037-.18-.052-.658-.164-.824.365-.987.819a.639.639,0,0,0,.243.849h.982A1.092,1.092,0,0,0,28.14,101.985Z"/><path class="cls-5" d="M22.831,86.424c-.485,1.3-.859,2.433.4,3.7C23.567,88.792,24.143,87.648,22.831,86.424Z"/><path class="cls-5" d="M27.313,95.614c-.647-.246-.755.275-.73.214-.354,1.059,0,1.361.459,1.5a.7.7,0,0,0,.96-.657A.959.959,0,0,0,27.313,95.614Z"/><path class="cls-5" d="M78.547,97.378a1.147,1.147,0,0,0-.807,1.549,1.426,1.426,0,0,0,1.424,1.085,1.5,1.5,0,0,0,1.06-.954,1.175,1.175,0,0,0,.029-.491C80.128,97.677,79.57,97.041,78.547,97.378Z"/><path class="cls-5" d="M82.926,99.514c-.659.128-1.019.743-1.149,1.54.365.208.8.664,1.154.613.639-.091,1.271-.558,1.007-1.339C83.815,99.964,83.213,99.458,82.926,99.514Z"/><path class="cls-5" d="M75.373,95.582c-.676-.163-.913.35-1,.8-.155.755.165,1.3,1.037,1.152.486-.079.906-.353.836-.976A.967.967,0,0,0,75.373,95.582Z"/><path class="cls-5" d="M78.963,102a1.181,1.181,0,0,0-.7.309h1.419A.785.785,0,0,0,78.963,102Z"/><path class="cls-5" d="M79.343,85.293c-1.461,1.058-1.618,2.275-.432,3.715C80.023,87.832,79.269,86.518,79.343,85.293Z"/><path class="cls-5" d="M82.746,96.905c.306-.337.831-.659.855-1.015s-.458-.74-.788-1.215c-.374.457-.895.815-.89,1.167S82.45,96.551,82.746,96.905Z"/><path class="cls-5" d="M68.4,92.738a3.641,3.641,0,0,0,.6.692,3.828,3.828,0,0,0,.86.332q.312-.324.635-.637C69.906,92.385,69.323,91.657,68.4,92.738Z"/><path class="cls-5" d="M70.487,93.125q-.322.314-.635.637c.307.321.723.683,1.08.294C71.329,93.622,70.852,93.34,70.487,93.125Z"/><path class="cls-5" d="M0,85.284v.224a1.5,1.5,0,0,0,.074-.215A.6.6,0,0,1,0,85.284Z"/><path class="cls-5" d="M50.557,59.458c-.811,1.2-.807,2.267.453,3.931C51.962,61.521,52.249,60.394,50.557,59.458Z"/><path class="cls-5" d="M51.867,38.636c-1.679.978-1.678,1.007-.988,2.991C52.076,40.916,51.418,39.593,51.867,38.636Z"/><path class="cls-5" d="M43.14,54.909c-2.182.461-3.464.876-4.117,2.533C40.82,57.92,41.823,57.025,43.14,54.909Z"/><path class="cls-5" d="M50.579,51.97c.547-.061,1.34-.273,1.087-1.188A1.268,1.268,0,0,0,50.345,49.7a1.118,1.118,0,0,0-.866,1.037,1.517,1.517,0,0,0,.041.458A1.342,1.342,0,0,0,50.579,51.97Z"/><path class="cls-5" d="M54.721,49.66c.52-.013.843-.45.949-.983a.871.871,0,0,0-.819-1.021.981.981,0,0,0-1.114.737A.9.9,0,0,0,54.721,49.66Z"/><path class="cls-5" d="M54.656,52.069c-.87-.11-.914.658-.922,1.253a.818.818,0,0,0,.821.912c.744-.033,1.018-.574,1.047-1.4C55.33,52.6,55.021,52.115,54.656,52.069Z"/><path class="cls-5" d="M61.379,44.582H59.04c-.22.569-.439,1.138-.676,1.75C59.929,46.924,60.481,46.016,61.379,44.582Z"/><path class="cls-5" d="M38.484,44.935c1.045,1,1.594,2.163,3.143,1.445C41.158,45.243,40.55,44.475,38.484,44.935Z"/><path class="cls-5" d="M50.727,47.141a.76.76,0,0,0,.855-.412,2.034,2.034,0,0,0,.149-.327c.161-.592-.224-.744-.606-.864l-.163-.051c-.589-.19-.865.2-.961.681A.79.79,0,0,0,50.727,47.141Z"/><path class="cls-5" d="M61.147,57.5c-.774-1.253-1.379-2.25-2.926-1.62C58.534,57.242,59.246,57.854,61.147,57.5Z"/><path class="cls-5" d="M47.1,49.775a1.451,1.451,0,0,0,.688-.382.476.476,0,0,0,.1-.192.78.78,0,0,0-.036-.405c-.146-.456-.3-.982-.975-.78-.493.149-.908.438-.8,1.023A.844.844,0,0,0,47.1,49.775Z"/><path class="cls-5" d="M47.083,54.306a1.6,1.6,0,0,0,.344-.142.772.772,0,0,0,.4-.5.921.921,0,0,0,0-.374c-.1-.5-.382-.882-.982-.712-.46.13-.954.293-.766.946C46.218,54.013,46.483,54.387,47.083,54.306Z"/><path class="cls-5" d="M50.59,56.244a.936.936,0,0,0,1.046-.713.691.691,0,0,0,.048-.393c-.071-.316-.473-.387-.765-.531-.6-.194-.864.188-.988.653A.74.74,0,0,0,50.59,56.244Z"/><path class="cls-5" d="M4.675,14.152c1.082,1.458.205,2.8.528,4.035.03-.011.056-.024.086-.034v.015c1.4-.436.955-2.473,2.986-2.99a11.134,11.134,0,0,0,8.182-.021c2.124,1.135,1.355,3.818,3.027,5.05a11.19,11.19,0,0,0-1.14-6.379c-3.6-.033-7.4,1.508-11.12-.844,1.13-2.065.462-4.792,3.214-5.773l-.05-.119C9.376,5.881,14.08,3.167,9.342,2.936c-.007.025,0,.046-.011.072l-.037-.019c.186,3.518-2.651,5.954-3.006,8.928A31.628,31.628,0,0,1,0,12.667V13.91C1.566,13.563,3.167,14.006,4.675,14.152Z"/><path class="cls-5" d="M1.448,78.939A4.711,4.711,0,0,0,0,75.665v2.664a8.328,8.328,0,0,0,.759,1.148Q1.1,79.2,1.448,78.939Z"/><path class="cls-5" d="M9.294,2.989c0-.019,0-.037,0-.057l.049,0C9.681,1.727,8.113,1.155,8.291,0H7.271C7.021,1.608,8.029,2.384,9.294,2.989Z"/><path class="cls-5" d="M65.191,3.52C65.8,2.076,64.442,1.2,64.185,0H63.148C63.131,1.569,64.131,2.561,65.191,3.52Z"/><path class="cls-5" d="M93.5,2.1a1.269,1.269,0,0,0,.1.848c.017,0,.032,0,.049.007v.029c1.687-.326,2.23-1.4,2-2.988h-1.04a2.779,2.779,0,0,1-.729,1.375A2.144,2.144,0,0,0,93.5,2.1Z"/><path class="cls-5" d="M18.5,67.93a2.18,2.18,0,0,1-1.309-.69,2.423,2.423,0,0,1-.271-.364,8.668,8.668,0,0,1-.7-1.779h0a1.757,1.757,0,0,1-.573-.785,2.973,2.973,0,0,1-.142-.967c-.007-.427.025-.908.02-1.452a128.465,128.465,0,0,0,15.745-.176c.492,2.343.1,3.6-1.549,4.266a3.046,3.046,0,0,1,.074.457,1.634,1.634,0,0,1-.093.743,1.1,1.1,0,0,1-.4.5,2.227,2.227,0,0,1-1.154.331.757.757,0,0,1-.484.471c.518,3.158-1.687,5.651-2.1,8.582.012,0,.022,0,.034,0,3.837-3.913,4.726-9.54,8.357-13.995,2.686-.422,5.915,2.5,8.867-.242-3-.038-6.01,0-8.834-1.625-.512-2.408,1.811-4.128,1.761-6.451-.022,0-.034.005-.057,0l0-.018c-2.87.861-2.234,4.114-3.8,5.834-5.55-1.123-10.959,1.759-16.993-.345-.983-1.76-.619-5.076-3.429-6.584l-.2.17c.406,2.549,2.61,4.662,1.869,7.48-1.768,1.682-3.9,1.582-6.074,1.646a3.989,3.989,0,0,1-.778-.072c-.178-.031-.359-.068-.54-.1a6.582,6.582,0,0,0-.788-.112l-.025,0a1.825,1.825,0,0,0-1.884,1.073q.3.281.587.567c3.258-1.019,6.711.125,9.854-1.062,3.165,4.489,4.748,9.672,8.054,13.855l.009,0C21.205,73.814,19.613,70.951,18.5,67.93Z"/><path class="cls-5" d="M15.7,43.189c5.476-.36,10.862-1.751,16.545-.022l1.428,5.524L36.2,50.6c.035-2.878-2.937-4.854-2.288-8.28a8.994,8.994,0,0,1,8.6-1.585c1.272.369,2.345.658,2.376-1.222-.027.015-.046.032-.074.047-.006-.016-.008-.031-.013-.047-3.685.636-7.5-.7-11.022.867C32.3,39.63,32.5,37.487,30.752,37.21c.069,1.28,1.295,2.434.115,4.3-4.854-.88-10,.022-14.889.168-1.131-2.209.9-3.513.477-5.194-.029,0-.049.015-.08.015V36.47c-2.077.42-1.645,2.443-2.361,3.809-2.6.953-5.071-.4-7.619-.6-1.341.905-2.52,1.453-3.356-.67-.561-1.425-1.126-2.977-2.822-3.542,0,.006,0,.01,0,.017-.026,0-.046-.007-.071-.009.456,2.48,2.4,4.19,3.136,6.613,3.452-.75,6.7-1.254,9.764.257a5.746,5.746,0,0,1,.3,1.2,5.389,5.389,0,0,1,.037,1.115,6.551,6.551,0,0,1-.318,1.559,11.464,11.464,0,0,1-.431,1.107A34.842,34.842,0,0,0,11.2,50.562l.535.475C14.668,49.237,14.1,45.632,15.7,43.189Z"/><path class="cls-5" d="M2.211,22.278c-.017.006-.03.014-.048.019,0-.031.005-.051,0-.08a2.273,2.273,0,0,0-1.512.416,1.46,1.46,0,0,0-.373.479,2.34,2.34,0,0,0-.194.6A5.722,5.722,0,0,0,0,24.367v5.241a3.892,3.892,0,0,0,.843-1.533Z"/><path class="cls-5" d="M11.731,51.037l-.535-.475c-2.087,1.123-2.619,2.219.056,3.261l.2-.17A3.24,3.24,0,0,1,11.731,51.037Z"/><path class="cls-5" d="M2.383,67.084c-.149-.12-.3-.238-.447-.357a7.215,7.215,0,0,0-.648.662A7.59,7.59,0,0,0,0,69.569v.26c.2.18.4.358.607.534A4.467,4.467,0,0,0,2.383,67.084Z"/><path class="cls-5" d="M1.936,66.727c.149.119.3.237.447.357,1.212-.573.826-1.855,1.236-2.784q-.289-.287-.587-.567C2.055,64.507,2.2,65.691,1.936,66.727Z"/><path class="cls-6" d="M3.032,63.733q.3.281.587.567"/><path class="cls-5" d="M0,69.829v1.464a3.535,3.535,0,0,0,.607-.93C.4,70.187.2,70.008,0,69.829Z"/><path class="cls-5" d="M.139,35.436c.028.009.051.023.079.033a1.526,1.526,0,0,0-.218-.8v.789c.05.006.1.017.149.021C.147,35.463.141,35.45.139,35.436Z"/><path class="cls-5" d="M98.265,12.984c-1.836-2.85-1.8-6.259-4.618-8.008V5c-.015.012-.029.016-.045.028-.446,3.234,3.18,5.332,2.452,8.605-3.5,2.236-7.1,1.017-10.874.172a24.434,24.434,0,0,1-5.006,9.236q.34.334.682.666c2.961-1.767,4-4.812,5.048-7.937,3.6.289,7.088,1.165,10.324-.464a5.178,5.178,0,0,1,1.162,1.593c.147.291.277.591.4.891.077.184.153.368.23.55.538,1.275,1.125,2.453,2.671,2.895l-.005-.025.083.013q-.06-1.241-.122-2.48L99.7,17.465c-.923-.694-1.057-1.621-.862-3.17l3.479-.205V12.529A6.973,6.973,0,0,0,98.265,12.984Z"/><path class="cls-5" d="M60.854,17.907c.749-1.48,1.281-3.335,3.607-2.279,2.422,1.1,4.96.394,7.384.523,1.446.676.96,2.518,2.136,3.31l.418-.319a5.652,5.652,0,0,0-1.652-4.9c-6.439,1.77-8.89,1.031-10.581-3.159-.026.01-.041.024-.068.034l-.007-.033c-2.3,2.357-5.841-.355-8.159,1.946l.094.118C60.2,13.184,60.418,13.339,60.854,17.907Z"/><path class="cls-5" d="M75.293,28.328c.019-.011.035-.024.055-.034l0,.065,1.177-.441a5.343,5.343,0,0,0,.7-.6c1.143-2.552,2.428-1.031,3.691-.127.489-1.173-1.031-2.312-.059-3.493q-.342-.332-.682-.666l-2.5,1.053-.332.208C77.12,25.871,74.815,26.4,75.293,28.328Z"/><path class="cls-5" d="M75.8,22.788l.67-.643c-.661-1.021-.973-2.281-2.067-3l-.418.319A4.491,4.491,0,0,0,75.8,22.788Z"/><path class="cls-5" d="M93.647,4.976l.009-1.988c-.013,0-.022.007-.035.009-.008-.016-.006-.029-.014-.045-1.151-.241-1.826.324-1.651,1.414a.973.973,0,0,0,1.646.657c0-.025,0-.049.006-.074C93.622,4.958,93.634,4.968,93.647,4.976Z"/><path class="cls-5" d="M93.621,3c-.008-.016-.006-.029-.014-.045h0c.008.016.006.029.014.045Z"/><path class="cls-5" d="M63.165,8.043c1.725-.6,2.257-1.893,2.025-3.618-1.12.955-2.228,1.916-2.086,3.594.02-.012.034-.025.054-.035C63.16,8,63.163,8.023,63.165,8.043Z"/><path class="cls-5" d="M62.166,11.084c1.509-.616,1.12-1.874,1-3.041-.022.008-.038.018-.06.025,0-.017,0-.032,0-.049-1.258.71-1.345,1.817-1.013,3.066.017-.019.036-.031.054-.049C62.151,11.053,62.159,11.067,62.166,11.084Z"/><path class="cls-5" d="M77.343,24.3l.332-.208a1.837,1.837,0,0,0-1.209-1.944l-.67.643Z"/><path class="cls-5" d="M28.65,19.223c1.793-.715.816-3.176,2.862-4.161,2.857.459,6.117.733,9.107-.492,1.628,1.5,1.23,3.841,3.053,4.792l.314-.278c.085-1.71-2.568-3.259-.3-5.1,2.235-1.492,4.743-.7,7.138-.867-2.592-1.959-5.731-.572-8.459-1.246C40.889,9.117,40.9,5.632,37.794,3.968c0,.009-.012.017-.017.026l-.035-.032c.32,3.114,2.879,5.549,2.685,8.822-3.426,2.6-7.31.8-10.856.845a8.824,8.824,0,0,0-.988,5.556c.022,0,.036-.01.058-.013C28.645,19.19,28.646,19.206,28.65,19.223Z"/><path class="cls-5" d="M21.505,26.277c.014.018.02.037.033.055,1.329.092,2.663-.488,3.989.01l0-.067h0c.01,0,.017.01.027.014l-.967-2.533a2.315,2.315,0,0,1-1.948-.855c-.145-.148-.285-.3-.426-.459a7.28,7.28,0,0,0-.655-.659,2.52,2.52,0,0,0-.642-.389,1.843,1.843,0,0,0-.431-.148C20.181,23.046,23.53,24.15,21.505,26.277Z"/><path class="cls-5" d="M37.794,3.968c.486-.8,1.515-1.385,1.014-2.576-.583.767-3.2.725-1.066,2.57l0-.027C37.758,3.946,37.775,3.958,37.794,3.968Z"/><path class="cls-5" d="M27.624,21.262a1.541,1.541,0,0,0,1.026-2.039c-.022.009-.039.02-.062.029l-.005-.067c-1.3.188-1.289,1.037-1.031,2.013.029,0,.052,0,.082.01C27.632,21.227,27.627,21.243,27.624,21.262Z"/><path class="cls-5" d="M27.624,21.262c-.019.007-.033.015-.051.021-.008-.029-.014-.056-.021-.085a.98.98,0,0,0-.728.112,2.4,2.4,0,0,0-.643.774c-.048.074-.1.147-.146.217C27.018,22.619,27.48,22.173,27.624,21.262Z"/><path class="cls-5" d="M20.478,21.231c-.021-.639-.183-1.143-.994-1.024l0,0C19.547,20.815,19.815,21.217,20.478,21.231Z"/><path class="cls-5" d="M9.137,100.308a5.84,5.84,0,0,0-1.7,2H9c.267-.478.543-.953.811-1.429Z"/><path class="cls-5" d="M94.249,102.312h1.029a11.6,11.6,0,0,0-.893-1.54A3.928,3.928,0,0,0,94.249,102.312Z"/><path class="cls-5" d="M54.026,13.149l-.094-.118-2.952.138C51.971,15.313,53,14.2,54.026,13.149Z"/><path class="cls-5" d="M20.422,82.148c-2.669.342-2.359,3.416-4.138,4.575-.049.585.218,1.351-.794,1.383H6.78c-.638-3.7-3.723-5.97-5.332-9.167q-.348.266-.689.538C1,81.431,2.486,82.6,3.531,84.085c1.3,1.848,2.678,3.9.749,6.208,3.086.716,1.685,4.152,3.4,5.7l.9-.841c.018-1.684-1.547-3.038-.95-5.313,2.86-1.052,6.052-.452,9.464-.559l3.366-7.095c-.014,0-.026.009-.04.012C20.425,82.179,20.425,82.164,20.422,82.148Z"/><path class="cls-5" d="M9.137,100.308l.677.575c1.993-1.29.377-2.977.5-4.473-.967.129-1.093-.919-1.723-1.26l-.9.841C8.192,97.422,9.586,98.554,9.137,100.308Z"/><path class="cls-5" d="M4.155,90.331l-3.827,0C1.6,91.36,2.872,91.7,4.155,90.331Z"/><path class="cls-5" d="M0,90.115v.116l.1.011C.068,90.192.032,90.159,0,90.115Z"/><path class="cls-5" d="M49.941,30.355,48.594,26.6c-.879-2.908-1.446-6.007-4.608-7.517l-.314.278a25.817,25.817,0,0,1,3.414,7.528c.35,1.458.743,3.276,2.808,3.523v-.058Z"/><path class="cls-5" d="M26.554,28.365c-.442,3.009.207,5.547,3.1,7.113l-.049-.074h0l.038.008c-.946-2.369-1.537-4.893-3.025-7.028h0C26.594,28.38,26.577,28.371,26.554,28.365Z"/><path class="cls-5" d="M45.916,36.487a7.207,7.207,0,0,0,4.024-4.043l-.034-.006v-.046a4.589,4.589,0,0,0-4.039,4.066c.014-.008.024-.017.039-.024C45.91,36.452,45.912,36.469,45.916,36.487Z"/><path class="cls-5" d="M49.94,32.444a5.783,5.783,0,0,0,3.009.016c0-.034,0-.064.007-.1.027.008.048.022.074.03q-.006-1-.01-1.993l-.04.018c0-.017,0-.031-.008-.047l-3.031-.014.026.073c-.027,0-.047-.012-.073-.015l.012,1.979c.023,0,.043-.012.067-.015C49.963,32.4,49.951,32.421,49.94,32.444Z"/><path class="cls-5" d="M44.9,39.512c1.261-.689,1.29-1.8,1.02-3.025-.022.008-.041.019-.063.028,0-.02.01-.037.014-.057a2.265,2.265,0,0,0-1.058,3.054L44.9,39.5Z"/><path class="cls-5" d="M26.554,28.365c0-.024,0-.046.007-.071.021.029.037.06.057.089a3.254,3.254,0,0,0-.084-.956,1.661,1.661,0,0,0-.976-1.138l.026.07c-.019-.008-.038-.01-.057-.017C25.468,27.223,25.388,28.115,26.554,28.365Z"/><polygon class="cls-5" points="25.531 26.275 25.531 26.275 25.584 26.359 25.531 26.275"/><path class="cls-5" d="M29.674,35.491l-.02-.013,1.024,1.552a1.834,1.834,0,0,0-.119-1.089.986.986,0,0,0-.615-.47,1.885,1.885,0,0,0-.3-.06C29.654,35.437,29.663,35.464,29.674,35.491Z"/><path class="cls-5" d="M29.605,35.4l.038.008h0l-.038-.008Z"/><path class="cls-5" d="M17.447,35.444c2.441-1.747,1.08-5.669,4.022-7.129-.015-.662.539-1.315.069-1.983-.026,0-.052,0-.078,0l.038-.065c-3.674,2.016-4.183,5.44-4.111,9.123.025.007.043.007.069.015C17.454,35.418,17.449,35.429,17.447,35.444Z"/><path class="cls-5" d="M3.259,21.206h0c0,.017-.013.03-.018.046a3.537,3.537,0,0,0,2.047-3.084c-.029.009-.053.021-.084.028v-.009a2.607,2.607,0,0,0-2.018,3.02c.028,0,.045,0,.074,0Z"/><path class="cls-5" d="M16.455,36.488c.646-.038.913-.449.992-1.044-.021.015-.037.032-.059.047,0-.034,0-.068,0-.1-.977-.268-1,.4-1.011,1.082.025,0,.046-.013.073-.017C16.452,36.465,16.452,36.476,16.455,36.488Z"/><path class="cls-5" d="M3.241,21.252l-.051.031c0-.027,0-.05,0-.076-.749-.075-1.066.285-1.019,1.01.021,0,.038,0,.06,0h0l-.015.064a1.588,1.588,0,0,0,.659-.367A1.423,1.423,0,0,0,3.241,21.252Z"/><path class="cls-5" d="M2.226,22.214h0l-.023.03Z"/><path class="cls-5" d="M3.259,21.206l-.022.025.022-.025Z"/><path class="cls-5" d="M72.577,87.247c-4.155-.958-8.816,2.056-12.482-1.99l-.061-.022c-.451,1.206.676,2.647-1.059,4.276a68.386,68.386,0,0,0-15.609-.258c.007.01.012.02.019.031-.018,0-.032.012-.05.017,1.108,1.383,2.742,1.257,4.115.989,4.485-.877,8.878.43,13.2.15,1.173,1.455,1.2,3.33,2.521,4.484.914-1.806-.927-3.411-.515-5.036,3.592-2.639,7.339-1.374,11.12-.656a42.009,42.009,0,0,1,3.817-8.855q-.336-.313-.684-.613C74.766,81.748,73.885,84.491,72.577,87.247Z"/><path class="cls-5" d="M43.366,89.253c-1.636-2.345.437-4.105.985-6.105-2.718-.084-2.075,3.049-4.136,4.058-2.208.7-5.172-1.123-7.536,1.039.013,0,.024,0,.037,0-.015.02-.031.033-.046.053,2.541.312,5.211-.635,7.681.693,1.264,3.2-1.973,5.458-1.617,8.39.027,0,.043,0,.072,0h0c0,.016-.007.028-.008.045,1.852-.892,2.011-2.844,2.737-4.439.567-1.245-.141-3.127,1.8-3.686-.013-.016-.028-.027-.041-.044Z"/><path class="cls-5" d="M37.722,98.394c-.936-.161-1.664.255-1.743,1.148-.1,1.123.8,1.624,1.758,1.942,0-.021-.01-.035-.012-.056h0c.027-.007.047-.007.073-.013l0-2.951c-.027,0-.044.011-.072.011C37.718,98.443,37.725,98.423,37.722,98.394Z"/><path class="cls-5" d="M65.364,99.157c-.321,1.093-1.736,1.78-1.294,3.155h.385C65.689,101.606,66.918,100.9,65.364,99.157Z"/><path class="cls-5" d="M38.739,97.46c0-.027,0-.054,0-.081-.79-.11-1.079.276-1.012,1.015.025,0,.047,0,.072.009v.06a1.04,1.04,0,0,0,.731-.277,1.188,1.188,0,0,0,.273-.76C38.776,97.436,38.761,97.45,38.739,97.46Z"/><path class="cls-5" d="M38.806,97.381h0l-.033.039Z"/><path class="cls-5" d="M38.535,101.438a.669.669,0,0,0-.3-.076,1.676,1.676,0,0,0-.432.052v.091c-.021-.006-.041-.014-.062-.021a1.091,1.091,0,0,0,.47.828h.621C38.853,101.9,38.785,101.577,38.535,101.438Z"/><path class="cls-5" d="M37.725,101.428c.027-.008.047-.008.073-.014h0c-.026.006-.046.006-.073.013Z"/><path class="cls-5" d="M32.679,88.245c-1.585.211-2.384-.641-2.916-2.036-.448-1.173-.7-2.547-2.143-3.035,0,.018.007.035.009.053-.025,0-.044-.012-.068-.015-.368,1.963.872,3.437,1.687,4.974.959,1.806,2.248,1.585,3.422.11l-.048,0C32.641,88.275,32.66,88.262,32.679,88.245Z"/><path class="cls-5" d="M24.626,80.111a2.017,2.017,0,0,0-.03-1.963c-.029,0-.046.007-.075,0,0-.024,0-.045-.006-.068L21.536,77.1l0,.013-.083-.039c1.054,1.973-1.39,3.245-1.033,5.078.024,0,.044-.01.069-.013l-.023.048c1.514-.357,2.159-2.5,4.078-2.025-.012-.018-.022-.038-.033-.056C24.554,80.1,24.586,80.11,24.626,80.111Z"/><path class="cls-5" d="M27.62,83.174c-.233-1.784-1.023-3.012-2.994-3.063-.012.019-.019.038-.032.057-.017-.005-.032-.005-.048-.01.776,1.246,1.234,2.809,3.015,3.054,0-.021,0-.04.007-.061C27.587,83.157,27.6,83.168,27.62,83.174Z"/><path class="cls-5" d="M98.154,87.9c-.04-2.369,1.008-4.191,2.007-6.029-2.8.553-2.7,3.47-4.514,5.555-2.622-2.11-5.494-.3-8.409-.24-1.292.094-1.726-.605-1.644-1.78l-1.083-.21c0,.019,0,.036,0,.055h0c-.022-.008-.04-.018-.061-.026a3.467,3.467,0,0,0,1.41,3.954c3.232-1.107,6.475-1.631,9.581-.5.622,1.7-.53,3.181.166,4.656.027-.006.047-.016.075-.021,0,.019,0,.037,0,.055,1.79-.593.8-3.133,2.545-3.746a7.964,7.964,0,0,0,4.085.595V88.351A9.015,9.015,0,0,1,98.154,87.9Z"/><path class="cls-5" d="M77.4,77.079c0,.025,0,.048-.008.073-.015,0-.026-.012-.04-.016a3.88,3.88,0,0,1-.441,2.628q.348.3.684.613l3.382-.209c-1.825-1.145-.793-2.514-.3-3.84q-.243-.224-.493-.441C79.359,76.544,78.59,77.32,77.4,77.079Z"/><path class="cls-5" d="M93.592,96.367c.019,0,.033,0,.053.006v.041c1.635-.37,2.055-1.557,2.036-3.039-.019.007-.034.016-.054.022-.01-.019-.012-.037-.02-.056C93.943,93.682,93.517,94.856,93.592,96.367Z"/><path class="cls-5" d="M82.41,82.207a2.327,2.327,0,0,0,1.122,2.573,5.2,5.2,0,0,0,.919.446c0-.013,0-.026.006-.039l.054.01a2.843,2.843,0,0,0-2.039-3.037c0,.02.009.034.009.054C82.455,82.214,82.435,82.208,82.41,82.207Z"/><path class="cls-5" d="M84.451,85.226h0c.021.008.039.018.061.026h0C84.49,85.244,84.472,85.234,84.451,85.226Z"/><path class="cls-5" d="M92.592,97.408c-.938.039-1.657.484-1.412,1.465s1.117,1.01,1.966.607q-.248-1.007-.494-2.013c-.022-.007-.038-.007-.061-.014C92.591,97.437,92.592,97.423,92.592,97.408Z"/><path class="cls-5" d="M93.592,96.367c-.85-.158-1.01.359-1,1.041l.045,0,.015.063c.98.282,1.017-.356.994-1.053-.019,0-.034.012-.053.016C93.592,96.408,93.593,96.388,93.592,96.367Z"/><path class="cls-5" d="M82.41,82.207c0-.025,0-.046.007-.071.02.007.036.017.055.024-.01-.754-.559-1.141-1.079-1.548C81.179,81.518,81.374,82.148,82.41,82.207Z"/><path class="cls-5" d="M67.195,40.619a15.719,15.719,0,0,0-8.5-.71c-1.368-.858-1.165-2.79-2.627-3.45,0,.019,0,.037.005.055-.023-.006-.04-.015-.063-.021.189,1.746-.144,3.665,1.722,5.067,3.144-.834,6.418-1.646,9.4.759.72,3.217-1.215,5.425-2.893,7.687-1.24,1.67-1.441,2.982.817,3.843l.245-.215c-.085-4.046,3.578-6.644,3.831-10.9,5.092.8,9.816-1.909,14.784-.258a2,2,0,0,0,2.573-.939C80.958,38.91,75.177,42.6,69.6,41.307c-.152-2.618,1.476-4.079,2.2-5.9C68.472,35.483,69.373,39.242,67.195,40.619Z"/><path class="cls-5" d="M67.172,60.937c-3.094,2.834-6.746.8-10.167,1.026l-1.5,5.024c2.411-.148,1.548-3.081,3.7-3.987,2.6,2.293,5.616-.1,8.229-.055,1.618.744,1.292,2.644,2.782,2.983a.134.134,0,0,1,0-.02l.076,0c.69-1.577-1.868-3.279.174-4.8l-.246-.328c-2.8-1.583-1.742-5.819-4.915-7.146l-.245.215C65.405,56.314,67.812,58.181,67.172,60.937Z"/><path class="cls-5" d="M47.92,67.948c0,.022.013.04.018.061-.027.006-.047,0-.073.009,0,2.06,2.854,3.65,1.038,6.008L48.941,74l-.01.07c1.142.061,1.791-1.411,3.039-1.019-.012-.017-.023-.036-.036-.054.053-.007.094,0,.145-.006.827-.833.351-1.665-.062-2.5C50.015,70.674,49.48,68.481,47.92,67.948Z"/><path class="cls-5" d="M46.877,66.917c-.951-1.758.237-5.632-4.068-4.073,2.539.2,1.839,3.6,4.041,4.132,0-.022,0-.043-.006-.065C46.857,66.911,46.865,66.917,46.877,66.917Z"/><path class="cls-5" d="M36.736,53.687c0,.014,0,.023,0,.036l2.275-.948.037-.011c-.436-1.385-.991-2.611-2.832-2.116l.459,3.025C36.7,53.679,36.713,53.68,36.736,53.687Z"/><path class="cls-5" d="M54.972,34.492c-.2.949-.023,1.7,1.04,2,0-.024,0-.048-.006-.071.025.01.04.027.064.037a2.348,2.348,0,0,0-1.029-2.034c0,.02.011.035.014.056C55.025,34.486,55,34.488,54.972,34.492Z"/><path class="cls-5" d="M54.053,33.453h0c-.035.008-.063.009-.1.016-.238.9.188,1.16,1.016,1.023.007-.034.011-.066.019-.1.018.011.032.023.05.034a1.121,1.121,0,0,0-1.013-1.033c.007.021.019.038.025.061Z"/><path class="cls-5" d="M47.92,67.948c-.132-.557-.371-1.01-1.043-1.031.014.025.024.054.038.079-.023,0-.042-.015-.065-.02.053.632.185,1.184,1.015,1.042,0-.031-.005-.061,0-.093C47.882,67.932,47.9,67.942,47.92,67.948Z"/><path class="cls-5" d="M36.733,53.723l-.05.021-.011-.071c-.96-.257-1.228.165-1,1.075.022-.007.04-.016.062-.022,0,.012,0,.024,0,.037C36.476,54.818,36.748,54.412,36.733,53.723Z"/><path class="cls-5" d="M36.683,53.744l-.011-.071.011.071.053-.057Z"/><path class="cls-5" d="M53.006,33.133a.562.562,0,0,0,.459.362,1.416,1.416,0,0,0,.491-.026c.009-.032.011-.058.021-.091a.425.425,0,0,1,.051.014,1.47,1.47,0,0,0-1-1v.044c-.027.01-.054.016-.081.025A1.5,1.5,0,0,0,53.006,33.133Z"/><path class="cls-5" d="M54.053,33.453c-.035.008-.063.009-.1.016h0c.034-.007.062-.008.1-.016Z"/><path class="cls-5" d="M48.9,74.026C46,76,45.579,78.96,45.733,82.142c1.711-1.212,1.037-3.746,2.749-4.957l.035-.155.414-2.961c-.02,0-.038.006-.059,0C48.884,74.057,48.891,74.042,48.9,74.026Z"/><path class="cls-5" d="M25.561,77.575a1.84,1.84,0,0,0,.05-.5l-.071.043c0-.018.006-.035.009-.052-.837-.163-1.125.231-1.034,1.012l.064.021.017.044C25.15,78.194,25.453,77.983,25.561,77.575Z"/><path class="cls-5" d="M87.726,59.606c-2.79-.468-15.573.4-17.512,1.174l.246.328c5.5.7,11.018-.191,16.4-.352.633,2.715-1.508,4.15-1.332,6.179,2.413-.733,2.172-3.49,3.844-5.084,3.1,1.079,6.228,3.006,9.513,1.068,1.057.789.8,2.128,1.866,2.549.3-1.33.4-2.615-.865-3.635-3.553.349-7.2,1-10.16-1.81l1.125-4c-.184-.164-.372-.324-.562-.481C88.709,56.44,88.821,58.433,87.726,59.606Z"/><path class="cls-5" d="M86.508,41.533c2.542,1.29,1.448,4.886,3.931,6.214l.2-.159c.057-2.1-1.938-3.942-.757-6.364,2.412-1.2,5.036-1.037,7.649-.567,2.682.483,3.764-.479,3.23-3.143-.021,0-.036.01-.058.012,0-.017,0-.034-.009-.052-1.275.446-1.467,2.81-3.44,1.991-2.768-1.15-5.554-.076-8.226.146C87.7,37.565,87.1,35.4,85.464,33.883,85.025,36.539,88.334,38.688,86.508,41.533Z"/><path class="cls-5" d="M101.755,35.414h0c.006.019.009.037.015.056a2.638,2.638,0,0,0,.542-.116V33.6a3.022,3.022,0,0,0-.608,1.832C101.723,35.426,101.736,35.418,101.755,35.414Z"/><path class="cls-5" d="M101.685,80.1c.018,0,.031,0,.05,0,0,.017,0,.03,0,.046a1.692,1.692,0,0,0,.573-.442V75.2A6.449,6.449,0,0,0,101.685,80.1Z"/><path class="cls-5" d="M92.36,52.517l.526.469c1.066-.844,2.266-1.679.176-2.727q-.249.249-.516.477Z"/><path class="cls-5" d="M100.759,37.514c.823-.125,1.128-.509,1.164-1.027a3.1,3.1,0,0,0-.153-1.017c-.024,0-.044.008-.068.01,0-.017,0-.033,0-.05-1.159.272-1.207,1.1-1.012,2.044.02-.007.038-.017.058-.023C100.755,37.474,100.755,37.491,100.759,37.514Z"/><path class="cls-5" d="M101.77,35.47h0c-.006-.019-.009-.037-.015-.056h0C101.761,35.433,101.764,35.451,101.77,35.47Z"/><path class="cls-5" d="M102.312,68.823V67.069a2.96,2.96,0,0,0-1.115-.163C101.573,67.541,101.637,68.412,102.312,68.823Z"/><path class="cls-5" d="M91.589,49.651a1.377,1.377,0,0,0-.952-2.063l-.2.159A1.976,1.976,0,0,0,91.589,49.651Z"/><path class="cls-5" d="M90.286,55.545c.19.157.378.317.562.481.785-.362.937-1.125,1.168-1.837l-.55-.561C90.532,53.934,90.414,54.742,90.286,55.545Z"/><path class="cls-5" d="M91.466,53.628l.55.561.87-1.2-.526-.469A1.306,1.306,0,0,0,91.466,53.628Z"/><path class="cls-5" d="M92.546,50.736q.267-.228.516-.477c-.388-.449-.728-1.024-1.454-.583A1.228,1.228,0,0,0,92.546,50.736Z"/><path class="cls-5" d="M85.028,33.445A5.976,5.976,0,0,1,83.4,30.083c-.231-1.239-.384-3.018-2.487-2.8.464,1.423,1.015,2.825,1.367,4.275C82.654,33.093,83.269,34.043,85.028,33.445Z"/><path class="cls-5" d="M100.774,21.257h0c-.029-.008-.052-.02-.08-.028a12.177,12.177,0,0,0,.736,2.846,2.872,2.872,0,0,0,.221.358,2.735,2.735,0,0,0,.661.642V21.445l-1.54-.227Z"/><path class="cls-5" d="M100.774,21.257l0-.039h0l0,.039Z"/><path class="cls-5" d="M60.64,18.169c-4.389,1.518-6.123,4.661-5.64,9.16l.04-.017C56.865,24.239,58.167,20.845,60.64,18.169Z"/><path class="cls-5" d="M72.226,34.951l2.249-.92L74.392,34c.159-1.251-.491-2.743,1.064-3.579.013.035.02.067.032.1q-.067-1.081-.136-2.162l-.049.019c0-.018-.006-.033-.01-.05C72.681,29.79,73.066,32.658,72.226,34.951Z"/><path class="cls-5" d="M53.02,30.4c1.356-.578,2.472-1.317,2.035-3.091l-.051.07c0-.017,0-.032,0-.048-1.4.532-2.449,1.295-2.028,3.04h.048Z"/><path class="cls-5" d="M51.97,73.05c.831,1.192,1.417,2.629,3.025,3.043l0-.054c.019.008.032.019.05.027-.206-1.81-.733-3.3-2.97-3.076-.023.023-.036.046-.06.069C52,73.053,51.987,73.056,51.97,73.05Z"/><path class="cls-5" d="M56.014,79.135c-.5,1.8.594,2.541,2.029,3.054l-.005-.059c.022,0,.035,0,.056,0-.268-1.277-.547-2.547-2.013-3.026-.006.022-.01.044-.015.066C56.046,79.161,56.033,79.147,56.014,79.135Z"/><path class="cls-5" d="M55,76.093c-.1,1.163-.156,2.312,1.019,3.042,0-.019,0-.034.01-.053.021.007.036.017.057.024.307-1.235.382-2.391-1.032-3.04,0,.016.005.031.007.047C55.034,76.108,55.016,76.1,55,76.093Z"/><path class="cls-5" d="M60.116,85.264c.194-.958.136-1.793-.993-2.1,0,.018.005.029,0,.047h0c-.028.007-.048.007-.074.012a1.375,1.375,0,0,0,.981,2.014c0-.01.005-.02.009-.03Z"/><path class="cls-5" d="M58.043,82.189c.042.481.1.944.513,1.051a1.112,1.112,0,0,0,.5-.019c.009-.026.013-.049.022-.075.018,0,.031.012.048.016.02-.709-.284-1.092-1.029-1.03l.018.083C58.088,82.207,58.067,82.2,58.043,82.189Z"/><path class="cls-5" d="M59.053,83.221h0c.026-.005.046-.005.074-.012h0C59.1,83.216,59.079,83.216,59.053,83.221Z"/><path class="cls-5" d="M80.178,75.887q.251.218.493.441a9.285,9.285,0,0,0,2.53-4.257,10.733,10.733,0,0,0,.351-3.017l-.471-.391Q81.631,72.275,80.178,75.887Z"/><path class="cls-5" d="M83.081,68.663l.471.391q.954-1.037,1.91-2.072C84.3,67.013,83.69,67.834,83.081,68.663Z"/><path class="cls-5" d="M101.739,80.141c-.014.006-.025.015-.039.021-.006-.021-.009-.042-.015-.063-.544.007-.865.164-1.014.435a.993.993,0,0,0-.106.5,2.6,2.6,0,0,0,.108.647C101.323,81.367,101.864,80.977,101.739,80.141Z"/><path class="cls-5" d="M72.539,67.731l-.9.764c1.538,1.161,1.922,2.962,2.607,4.61.668,1.609,1.142,3.411,3.105,4.031l0-.064c.019,0,.035,0,.053.007.229-1.5-1.718-2.422-1.09-4.023C74.161,71.913,75.264,68.462,72.539,67.731Z"/><path class="cls-5" d="M70.21,65.928c-.124,1.186.773,1.81,1.426,2.567l.9-.764c-.154-.578-.778-1.075-.317-1.758l-1.936-.062c-.006.013-.008.026-.014.039C70.248,65.946,70.233,65.933,70.21,65.928Z"/><path class="cls-7" d="M37.794,3.968c3.107,1.664,3.1,5.149,4.572,7.906,2.728.674,5.867-.713,8.459,1.246.042,0,.086,0,.128,0,.009.02.018.034.027.054l2.952-.138c2.318-2.3,5.854.411,8.159-1.946-.332-1.249-.245-2.356,1.013-3.066-.142-1.678.966-2.639,2.086-3.594a2.157,2.157,0,0,1,0-.9c-1.06-.959-2.06-1.951-2.043-3.52h-3c.066.125.134.249.206.373s.159.268.239.4c.559.939,1.066,1.889.38,3.1.106.605.053,1.091-.564,1.159a1.755,1.755,0,0,1-.253,0c.5,2.728-.847,3.663-3.4,4.36-4.442,1.213-8.566-.2-13.235-.637.653-2.438-3.636-4.035-.727-6.809Q42.811.975,42.828,0H39.723l-.915,1.392C39.309,2.583,38.28,3.168,37.794,3.968Z"/><path class="cls-7" d="M62.145,11.036c-.018.018-.037.03-.054.049l.007.033Z"/><path class="cls-7" d="M63.158,7.984c-.02.01-.034.023-.054.035,0,.017,0,.032,0,.049Z"/><path class="cls-7" d="M37.777,3.994c0-.009.012-.017.017-.026-.019-.01-.036-.022-.056-.033Z"/><path class="cls-7" d="M9.137,100.308c.449-1.754-.945-2.886-1.454-4.317-1.718-1.546-.317-4.982-3.4-5.7-.011.013-.019.026-.03.038H4.155C2.872,91.7,1.6,91.36.328,90.327H.157c-.018-.033-.04-.053-.059-.084L0,90.231v2.817c1.3.179,2.665.224,4.02.386.1,2.546,3.784,4.124,1.35,7.134l-.659,1.744H7.433A5.84,5.84,0,0,1,9.137,100.308Z"/><path class="cls-7" d="M93.656,2.988l-.009,1.988c2.819,1.749,2.782,5.158,4.618,8.008a6.973,6.973,0,0,1,4.047-.455V10.093c-.82-.063-1.648-.153-2.487-.282C98.789,8.02,96.916,6.48,96.918,3.937c.442-1.278,1.335-2.472.787-3.937H95.656C95.886,1.584,95.343,2.662,93.656,2.988Z"/><path class="cls-7" d="M93.621,3c.013,0,.022-.006.035-.009V2.959L93.621,3Z"/><path class="cls-7" d="M93.647,5V4.976c-.013-.008-.025-.018-.039-.027Z"/><path class="cls-7" d="M4.984,5.752c-.577,1.328-.605,2.908-1.7,3.93-1.1.2-2.191.383-3.28.536v2.449a31.628,31.628,0,0,0,6.288-.75c.355-2.974,3.192-5.41,3.006-8.928C8.029,2.384,7.021,1.608,7.271,0H4.26l.831,2.728A4.594,4.594,0,0,1,4.984,5.752Z"/><path class="cls-7" d="M9.293,2.932c0,.02,0,.038,0,.057l.037.019Z"/><path class="cls-7" d="M3.04,39.011c.836,2.123,2.015,1.575,3.356.67-.133-.172-.265-.346-.4-.52-2.879-.307-1.174-3-2.216-4.26C1.407,33.414.629,31.375,1.646,28.715l-.8-.64A3.892,3.892,0,0,1,0,29.608v5.059a1.526,1.526,0,0,1,.218.8C1.914,36.034,2.479,37.586,3.04,39.011Z"/><path class="cls-7" d="M.218,35.469c-.028-.01-.051-.024-.079-.033l.081.05C.22,35.479.217,35.475.218,35.469Z"/><path class="cls-7" d="M26.291,26.884a1.762,1.762,0,0,1,.243.543,3.254,3.254,0,0,1,.084.956c1.488,2.135,2.079,4.659,3.025,7.028a1.885,1.885,0,0,1,.3.06.986.986,0,0,1,.615.47,1.834,1.834,0,0,1,.119,1.089l.074.18c1.75.277,1.55,2.42,3.035,3.169,3.519-1.568,7.337-.231,11.022-.867a2.265,2.265,0,0,1,1.058-3.054,4.589,4.589,0,0,1,4.039-4.066l-.012-1.979c-2.065-.247-2.458-2.065-2.808-3.523a25.817,25.817,0,0,0-3.414-7.528c-1.823-.951-1.425-3.3-3.053-4.792-2.99,1.225-6.25.951-9.107.492-2.046.985-1.069,3.446-2.862,4.161a1.541,1.541,0,0,1-1.026,2.039c-.144.911-.606,1.357-1.589,1.039h0l-1.444,1.455.967,2.533A1.747,1.747,0,0,1,26.291,26.884Zm12.95-9.391c3.77,5.776,10.667,11.394,2.751,19.79H35.213c-3.969-3.389-5.656-7.742-7.1-12.483C31.183,21.846,31.572,14.859,39.241,17.493Z"/><path class="cls-7" d="M25.558,26.289c-.01,0-.017-.01-.027-.014h0c.01,0,.017.01.027.014Z"/><path class="cls-7" d="M28.588,19.252c.023-.009.04-.02.062-.029,0-.017,0-.033-.009-.051Z"/><path class="cls-7" d="M27.573,21.283c.018-.006.032-.014.051-.021,0-.019.008-.035.01-.054Z"/><polygon class="cls-7" points="29.605 35.403 29.605 35.404 29.605 35.403 29.605 35.403"/><path class="cls-7" d="M49.894,30.355v.058c.026,0,.046.013.073.015Z"/><path class="cls-7" d="M49.973,32.377c-.024,0-.044.011-.067.015v.046Z"/><path class="cls-7" d="M44.9,39.5l-.088.013c.005.016.007.031.013.047Z"/><path class="cls-7" d="M45.906,36.434c-.015.007-.025.016-.039.024s-.01.037-.014.057Z"/><path class="cls-7" d="M25.558,26.289c-.01,0-.017-.01-.027-.014l.053.084Z"/><path class="cls-7" d="M26.618,28.384h0c-.02-.029-.036-.06-.057-.089Z"/><path class="cls-7" d="M29.944,35.471a1.885,1.885,0,0,0-.3-.06h0A1.885,1.885,0,0,1,29.944,35.471Z"/><path class="cls-8" d="M29.944,35.471a.986.986,0,0,1,.615.47"/><path class="cls-7" d="M29.674,35.491c-.011-.027-.02-.054-.031-.08l-.038-.008.034.043Z"/><path class="cls-7" d="M16.456,15.157a11.134,11.134,0,0,1-8.182.021c-2.031.517-1.581,2.554-2.986,2.99a3.537,3.537,0,0,1-2.047,3.084,1.423,1.423,0,0,1-.371.659,1.588,1.588,0,0,1-.659.367l-1.368,5.8.8.64c1.541-4.26,4.886-7.355,7.3-11.3,2.209,1.553,6.04-1.885,7.391,2.542l.012.12a11.942,11.942,0,0,0,2.888,3.476c-2.9,4.694-3.217,10.357-7.966,14.989-.966.579-3.424-.946-5.267.617.131.174.263.348.4.52,2.548.2,5.015,1.551,7.619.6.716-1.366.284-3.389,2.361-3.809.006-.685.034-1.35,1.011-1.082-.072-3.683.437-7.107,4.111-9.123l.007.012c2.025-2.127-1.324-3.231-1.016-5.031l-.01,0h0v-.013c-.663-.014-.931-.416-.991-1.021l0,0h0C17.811,18.975,18.58,16.292,16.456,15.157Z"/><polygon class="cls-7" points="20.479 21.244 20.489 21.246 20.489 21.246 20.479 21.244 20.479 21.244"/><polygon class="cls-7" points="19.487 20.21 19.484 20.207 19.483 20.207 19.487 20.21"/><path class="cls-7" d="M3.259,21.206c0,.017-.013.03-.018.046h0c0-.016.014-.029.018-.046Z"/><path class="cls-7" d="M5.288,18.168v-.015L5.2,18.2C5.235,18.189,5.259,18.177,5.288,18.168Z"/><path class="cls-7" d="M16.449,36.453c-.027,0-.048.012-.073.017V36.5Z"/><path class="cls-7" d="M17.456,35.4c-.026-.008-.044-.008-.069-.015,0,.035,0,.069,0,.1Z"/><path class="cls-7" d="M2.2,22.244l-.04.053c.018,0,.031-.013.048-.019l.015-.064Z"/><path class="cls-7" d="M3.237,21.231l-.047.052.051-.031c0-.016.014-.029.018-.046Z"/><path class="cls-7" d="M65.364,99.157c.079-1.831-2.029-2.529-2.2-4.233-1.324-1.154-1.348-3.029-2.521-4.484-4.32.28-8.713-1.027-13.2-.15-1.373.268-3.007.394-4.115-.989-1.941.559-1.233,2.441-1.8,3.686-.726,1.595-.885,3.547-2.737,4.439a1.188,1.188,0,0,1-.273.76,1.04,1.04,0,0,1-.731.277l0,2.951a1.676,1.676,0,0,1,.432-.052.669.669,0,0,1,.3.076c.25.139.318.461.293.874h3.48l-1.443-2.693,3.577-7.4c5.672.8,12.415-2.56,16.564,4.561.5.659,1.169,1.228,1.173,2.157.058,1.446-.222,2.621-2.018,2.585a2.425,2.425,0,0,1,.036.791H64.07C63.628,100.937,65.043,100.25,65.364,99.157Z"/><path class="cls-7" d="M38.806,97.381c0,.017-.007.028-.008.045h0c0-.017.007-.029.008-.045Z"/><path class="cls-7" d="M43.294,89.257c.013.017.028.028.041.044.018,0,.032-.012.05-.017Z"/><path class="cls-7" d="M38.739,97.46c.022-.01.037-.024.059-.034,0-.017.007-.028.008-.045l-.033.039Z"/><path class="cls-7" d="M37.722,98.474c.028,0,.045-.01.072-.011V98.4Z"/><path class="cls-7" d="M38.23,101.362a1.676,1.676,0,0,0-.432.052h0A1.676,1.676,0,0,1,38.23,101.362Z"/><path class="cls-8" d="M38.535,101.438a.669.669,0,0,0-.3-.076"/><path class="cls-7" d="M37.751,101.455l.048.05v-.091c-.026.006-.046.006-.073.014Z"/><path class="cls-7" d="M6.78,88.106h8.71c.042-.589-.012-1.233.794-1.383,1.779-1.159,1.469-4.233,4.138-4.575-.357-1.833,2.087-3.1,1.033-5.078l.072.023c-3.306-4.183-4.889-9.366-8.054-13.855-3.143,1.187-6.6.043-9.854,1.062-.41.929-.024,2.211-1.236,2.784A4.467,4.467,0,0,1,.607,70.363a3.535,3.535,0,0,1-.607.93v4.372a4.711,4.711,0,0,1,1.448,3.274C3.057,82.136,6.142,84.4,6.78,88.106ZM5.256,68.023h0C6.5,64.33,9.62,67.194,11.579,65.8,16.3,71.779,20.174,77.51,15,85.037c-1.773.7-3.789.228-5.7.37-3.338-3.62-6.339-7.338-7.408-12.854C2.746,71.4,4,69.715,5.256,68.023Z"/><path class="cls-7" d="M20.491,82.135c-.025,0-.045.01-.069.013,0,.016,0,.031.006.047Z"/><path class="cls-7" d="M45.721,82.148l.012-.006C45.579,78.96,46,76,48.9,74.026c1.816-2.358-1.04-3.948-1.038-6.008-.83.142-.962-.41-1.015-1.042-2.2-.532-1.5-3.934-4.041-4.132l0-.005c-2.952,2.74-6.181-.18-8.867.242-3.631,4.455-4.52,10.082-8.357,13.995l.028,0h0a1.84,1.84,0,0,1-.05.5c-.108.408-.411.619-.965.573a2.017,2.017,0,0,1,.03,1.963c1.971.051,2.761,1.279,2.994,3.063,1.44.488,1.7,1.862,2.143,3.035.532,1.395,1.331,2.247,2.916,2.036,2.364-2.162,5.328-.338,7.536-1.039,2.061-1.009,1.418-4.142,4.136-4.058A1.768,1.768,0,0,1,45.721,82.148Zm-7.726,3.03a16.185,16.185,0,0,1-5.634-.207l-3.58-5.461C29.8,74.636,31.451,69.991,36,66.19a21.982,21.982,0,0,1,6.432.078l3.1,4.569C44.379,76.146,42.63,81.1,37.995,85.178Z"/><path class="cls-7" d="M32.716,88.243c-.013,0-.024,0-.037,0-.019.017-.038.03-.057.047Z"/><path class="cls-7" d="M27.629,83.227c0-.018-.007-.035-.009-.053-.019-.006-.033-.017-.052-.023Z"/><path class="cls-7" d="M24.594,80.168c.013-.019.02-.038.032-.057-.04,0-.072-.009-.113-.009Z"/><path class="cls-7" d="M47.861,67.925c0,.032,0,.062,0,.093.026,0,.046,0,.073-.009Z"/><path class="cls-7" d="M46.844,66.911c0,.022,0,.043.006.065.023,0,.042.015.065.02Z"/><path class="cls-7" d="M48.941,74l-.038.027c-.012.016-.019.031-.031.047Z"/><polygon class="cls-7" points="25.611 77.08 25.611 77.08 25.54 77.123 25.611 77.08"/><path class="cls-7" d="M24.521,78.151c.029,0,.046,0,.075,0l-.017-.044Z"/><path class="cls-7" d="M36.672,53.673l-.459-3.025L36.2,50.6l-2.533-1.908v0h-.018c.292,3.712-2.038,6.169-4.18,8.717a26.812,26.812,0,0,1-12.944.216c-.8-2.043-2.821-3.587-2.27-6.158A4.086,4.086,0,0,1,16.2,48.484c.4-1.7.275-3.125,3-3.681,5.3-1.079,9.657-.753,13.076,3.845.171.231.9.047,1.381.048v-.018l.017.013-1.428-5.524c-5.683-1.729-11.069-.338-16.545.022-1.6,2.443-1.03,6.048-3.967,7.848a3.24,3.24,0,0,0-.283,2.616c2.81,1.508,2.446,4.824,3.429,6.584,6.034,2.1,11.443-.778,16.993.345,1.569-1.72.933-4.973,3.8-5.834C35.444,53.838,35.712,53.416,36.672,53.673Z"/><path class="cls-7" d="M33.672,48.7v0l-.017-.013Z"/><path class="cls-8" d="M36.672,53.673l-.459-3.025"/><path class="cls-7" d="M35.673,54.748l0,.018.058-.04C35.713,54.732,35.7,54.741,35.673,54.748Z"/><path class="cls-7" d="M36.736,53.687c-.023-.007-.041-.008-.064-.014l.011.071Z"/><path class="cls-7" d="M101.651,24.434a2.872,2.872,0,0,1-.221-.358,12.177,12.177,0,0,1-.736-2.846c-1.546-.442-2.133-1.62-2.671-2.895-.077-.182-.153-.366-.23-.55-.126-.3-.256-.6-.4-.891A5.178,5.178,0,0,0,96.228,15.3c-3.236,1.629-6.726.753-10.324.464-1.044,3.125-2.087,6.17-5.048,7.937-.972,1.181.548,2.32.059,3.493l0,.092c2.1-.222,2.256,1.557,2.487,2.8a5.976,5.976,0,0,0,1.624,3.362,3.837,3.837,0,0,1,.436.438c1.631,1.517,2.24,3.682,3.562,5.728,2.672-.222,5.458-1.3,8.226-.146,1.973.819,2.165-1.545,3.44-1.991-.195-.947-.147-1.772,1.012-2.044a3.022,3.022,0,0,1,.608-1.832V25.076A2.735,2.735,0,0,1,101.651,24.434Zm-4.5,12.712H90.543c-2.113-3.4-5.241-6.091-6.264-10.458-.532-2.266-.284-3.355,1.242-4.607L87.6,19.065c3-1.439,5.819-1.888,8.449.893a17.21,17.21,0,0,1,5.005,10.2C99.978,32.085,98.611,34.537,97.155,37.146Z"/><path class="cls-7" d="M100.75,37.451c-.02.006-.038.016-.058.023,0,.018.006.035.009.052Z"/><polygon class="cls-7" points="101.755 35.414 101.755 35.414 101.755 35.414 101.755 35.414"/><path class="cls-7" d="M101.736,35.437l.019-.023c-.019,0-.032.012-.051.016,0,.017,0,.033,0,.05Z"/><path class="cls-7" d="M100.774,21.258h0c-.028-.008-.052-.019-.079-.027h0C100.722,21.238,100.745,21.25,100.774,21.258Z"/><path class="cls-7" d="M100.689,21.205l.005.025c.027.008.051.019.079.027Z"/><path class="cls-7" d="M55.055,27.307c.437,1.774-.679,2.513-2.035,3.091q0,1,.01,1.993a1.47,1.47,0,0,1,1,1,1.121,1.121,0,0,1,1.013,1.033,2.348,2.348,0,0,1,1.029,2.034c1.462.66,1.259,2.592,2.627,3.45a15.719,15.719,0,0,1,8.5.71c2.178-1.377,1.277-5.136,4.606-5.214q-.024-.457.425-.454c.84-2.293.455-5.161,3.067-6.623-.478-1.924,1.827-2.457,2.05-4.031L75.8,22.788a4.491,4.491,0,0,1-1.815-3.327c-1.176-.792-.69-2.634-2.136-3.31-2.424-.129-4.962.577-7.384-.523-2.326-1.056-2.858.8-3.607,2.279l-.214.262c-2.473,2.676-3.775,6.07-5.6,9.143Zm8.39-9.218c4.654-.646,8.4.512,9.625,6.01-1.446,4.065-2.809,8.347-5.9,11.8a5.472,5.472,0,0,1-8.064-.45c-1.546-1.107-2.071-2.92-3.095-4.265A32.863,32.863,0,0,1,63.445,18.089Z"/><path class="cls-7" d="M56.075,36.514c0-.018,0-.036-.005-.055-.024-.01-.039-.027-.064-.037Z"/><path class="cls-7" d="M55.055,34.481c0-.021-.011-.036-.014-.056s-.032-.023-.05-.034Z"/><path class="cls-7" d="M53.03,32.391c-.026-.008-.047-.022-.074-.03l.074.074Z"/><polygon class="cls-7" points="54.053 33.453 54.053 33.453 54.053 33.453 54.053 33.453"/><path class="cls-7" d="M54.015,33.415l.038.038c-.006-.023-.018-.04-.025-.061a.425.425,0,0,0-.051-.014Z"/><path class="cls-7" d="M75.348,28.294c-.02.01-.036.023-.055.034,0,.017,0,.032.01.05Z"/><path class="cls-7" d="M52.98,30.416l.04-.018v-.029Z"/><path class="cls-7" d="M98.227,89.629c-1.748.613-.755,3.153-2.545,3.746.019,1.482-.4,2.669-2.036,3.039.023.7-.014,1.335-.994,1.053q.247,1.007.494,2.013l1.239,1.292a11.6,11.6,0,0,1,.893,1.54h3.338a6.065,6.065,0,0,1,.043-.828c-3.429-3.315-3.424-3.334-.008-6.127l-.007,0c-.169-1.9.388-2.754,2.557-3.309.372-.1.742-.172,1.111-.237V90.224A7.964,7.964,0,0,1,98.227,89.629Z"/><path class="cls-7" d="M95.682,93.375c0-.018,0-.036,0-.055l-.055.077C95.648,93.391,95.663,93.382,95.682,93.375Z"/><path class="cls-7" d="M93.593,96.43c.019,0,.034-.012.053-.016v-.041Z"/><path class="cls-7" d="M92.591,97.453c.023.007.039.007.061.014l-.015-.063Z"/><path class="cls-7" d="M1.2,15.219,0,15.2v.9l.11,0Z"/><path class="cls-7" d="M27.492,92.49l-.612-1C26.932,91.915,26.432,92.68,27.492,92.49Z"/><path class="cls-7" d="M101.2,66.906q-.225-.72-.449-1.438c-1.067-.421-.809-1.76-1.866-2.549-3.285,1.938-6.411.011-9.513-1.068-1.672,1.594-1.431,4.351-3.844,5.084,0,.014,0,.028,0,.042-.023,0-.042,0-.065,0q-.956,1.037-1.91,2.072h0a10.733,10.733,0,0,1-.351,3.017,9.285,9.285,0,0,1-2.53,4.257c-.491,1.326-1.523,2.695.3,3.84.14.147.28.3.42.444.52.407,1.069.794,1.079,1.548A2.843,2.843,0,0,1,84.511,85.2l1.083.21a2.4,2.4,0,0,1,1.644,1.78c2.915-.061,5.787-1.87,8.409.24,1.811-2.085,1.719-5,4.514-5.555a.864.864,0,0,1,.512-.187,2.6,2.6,0,0,1-.108-.647.993.993,0,0,1,.106-.5c.149-.271.47-.428,1.014-.435a6.449,6.449,0,0,1,.627-4.9V68.823C101.637,68.412,101.573,67.541,101.2,66.906ZM95.881,82.2c-1.9,2.709-4.357,2.834-8.889.893q-.684-1.385-1.367-2.769c-1.948-2.752-1.367-8.224,1.288-11.193,1.118-1.25,2.425-2.331,3.955-3.781.787-.389,1.894.458,3.065.4s2.348.079,3.4.126C102.3,71.54,102.215,73.184,95.881,82.2Z"/><polygon class="cls-7" points="84.512 85.252 84.512 85.252 84.511 85.252 84.512 85.252"/><path class="cls-7" d="M84.484,85.219l.028.033c0-.019,0-.036,0-.055l-.054-.01Z"/><path class="cls-7" d="M82.481,82.214c0-.02-.009-.034-.009-.054-.019-.007-.035-.017-.055-.024Z"/><path class="cls-7" d="M83.552,69.054h0a10.733,10.733,0,0,1-.351,3.017A10.733,10.733,0,0,0,83.552,69.054Z"/><path class="cls-7" d="M101.735,80.1c-.019,0-.032,0-.05,0,.006.021.009.042.015.063Z"/><path class="cls-7" d="M74.243,73.105c-.685-1.648-1.069-3.449-2.607-4.61-.653-.757-1.55-1.381-1.426-2.567-1.49-.339-1.164-2.239-2.782-2.983C64.815,62.9,61.8,65.293,59.2,63c-2.148.906-1.285,3.839-3.7,3.987l-3.486,3.505c.413.833.889,1.665.062,2.5,2.237-.223,2.764,1.266,2.97,3.076,1.414.649,1.339,1.8,1.032,3.04,1.466.479,1.745,1.749,2.013,3.026.745-.062,1.049.321,1.029,1.03,1.129.309,1.187,1.144.993,2.1l-.021-.007c3.666,4.046,8.327,1.032,12.482,1.99,1.308-2.756,2.189-5.5,4.33-7.483a3.88,3.88,0,0,0,.441-2.628C75.385,76.516,74.911,74.714,74.243,73.105Zm-3.51,11.833c-2.531-.431-4.8-1.027-7.256-.109-3.7-5.853-8.824-11.2-3.835-18.649,8.569-.678,8.569-.678,13.832,12.109C72.562,80.374,71.078,82.26,70.733,84.938Z"/><path class="cls-7" d="M52.019,73.059c.024-.023.037-.046.06-.069-.051.006-.092,0-.145.006Z"/><path class="cls-7" d="M55.056,76.113c0-.016,0-.031-.007-.047-.018-.008-.031-.019-.05-.027Z"/><path class="cls-7" d="M56.066,79.172c0-.022.009-.044.015-.066-.021-.007-.036-.017-.057-.024Z"/><path class="cls-7" d="M58.112,82.215l-.018-.083c-.021,0-.034-.005-.056,0Z"/><path class="cls-7" d="M59.1,83.179l.025.03c0-.018,0-.029,0-.047-.017,0-.03-.012-.048-.016Z"/><polygon class="cls-7" points="59.127 83.209 59.127 83.209 59.127 83.209 59.127 83.209"/><path class="cls-7" d="M77.348,77.136c.014,0,.025.012.04.016l-.045-.08Z"/><path class="cls-7" d="M70.21,65.908a.134.134,0,0,0,0,.02c.023.005.038.018.062.022Z"/><path class="cls-7" d="M44.034,15.024l2.159.194.3.038,1.34-.3c-1.131-1.123-2.546-.724-3.886-.726A1.477,1.477,0,0,0,44.034,15.024Z"/><path class="cls-7" d="M90.439,47.747c-2.483-1.328-1.389-4.924-3.931-6.214l-.006.011-.015-.006a2,2,0,0,1-2.573.939c-4.968-1.651-9.692,1.054-14.784.258-.253,4.255-3.916,6.853-3.831,10.9,3.173,1.327,2.115,5.563,4.915,7.146,1.939-.773,14.722-1.642,17.512-1.174,1.095-1.173.983-3.166,2.56-4.061.128-.8.246-1.611,1.18-1.917a1.306,1.306,0,0,1,.894-1.111l.186-1.781a1.228,1.228,0,0,1-.938-1.06l-.034.017c.006-.014.009-.027.015-.042A1.976,1.976,0,0,1,90.439,47.747Zm-4.762,9.576c-4.964.441-9.8,1.521-15.016.071-.634-1.91-2.552-3.523-2.491-6.049l2.041-3.426c1.35-2.343,7.285-5.192,10.1-4.108,2.237.86,5.8-.448,6.6,3.32L88.6,51.139A19.222,19.222,0,0,1,85.677,57.323Z"/><path class="cls-5" d="M23.133,35.315c-.913-.2-1.127.545-1.511,1.037C22.211,36.171,23.139,36.526,23.133,35.315Z"/><path class="cls-5" d="M92.9,43.82l.861,1.638,1.327.63c.581.185,1.194.774,1.735-.213A3.9,3.9,0,0,0,92.9,43.82Z"/><path class="cls-5" d="M93.7,56.841c2.215.725,2.215.725,3.833-2.106l-2.809,1.132Z"/><path class="cls-5" d="M101.184,49.252a.97.97,0,0,0,1.128.28v-2.18a.7.7,0,0,0-.277-.031C100.807,47.485,100.248,48.362,101.184,49.252Z"/><path class="cls-5" d="M100.616,52.91a.791.791,0,0,0,.781.9,1.188,1.188,0,0,0,.915-.323V52.035a1.353,1.353,0,0,0-.531-.189C101.038,51.748,100.632,52.142,100.616,52.91Z"/><path class="cls-5" d="M51.6,23.9c-.031-.716,1.007-1.606-.321-2.245A1.368,1.368,0,0,0,51.6,23.9Z"/><path class="cls-5" d="M100.961,84.321a1.11,1.11,0,0,0-.2.748,3.833,3.833,0,0,0,1.554.174V83.927l-1.351.394Z"/><path class="cls-5" d="M46.562,85.792c1.016.267,1.4-.362,1.346-1.4C47.339,84.753,46.372,84.723,46.562,85.792Z"/><path class="cls-5" d="M75.033,64.448l-.939-1.231a.879.879,0,0,0-.558-.065C73.542,64.115,73.464,65.175,75.033,64.448Z"/><path class="cls-9" d="M1.936,66.727c.261-1.036.119-2.22,1.1-2.994h0A1.824,1.824,0,0,1,4.916,62.66l.025,0a6.582,6.582,0,0,1,.788.112c.181.035.362.072.54.1a3.989,3.989,0,0,0,.778.072c2.176-.064,4.306.036,6.074-1.646.741-2.818-1.463-4.931-1.869-7.48-2.675-1.042-2.143-2.138-.056-3.261h0a34.842,34.842,0,0,1,1.441-3.239,11.464,11.464,0,0,0,.431-1.107,6.551,6.551,0,0,0,.318-1.559,5.389,5.389,0,0,0-.037-1.115,5.746,5.746,0,0,0-.3-1.2c-3.06-1.511-6.312-1.007-9.764-.257C2.552,39.667.605,37.957.149,35.477c-.053,0-.1-.015-.149-.021v5.756c.663,1.415,1.064,3.017,2.178,4.035,2.7-.505,5.061-2.263,7.912-1.182.1,4.055-3.82,5.272-5.469,7.773C6.1,54.824,10,55.828,10,59.523c-2.988,1.241-5.854.022-8.515.295A21.365,21.365,0,0,0,0,63.211v6.357a7.607,7.607,0,0,1,1.288-2.179A7.215,7.215,0,0,1,1.936,66.727Z"/><path class="cls-9" d="M4.916,62.66a1.824,1.824,0,0,0-1.884,1.073h0A1.825,1.825,0,0,1,4.916,62.66Z"/><path class="cls-10" d="M5.729,62.774a6.582,6.582,0,0,0-.788-.112"/><path class="cls-9" d="M11.2,50.562h0a34.842,34.842,0,0,1,1.441-3.239A34.842,34.842,0,0,0,11.2,50.562Z"/><path class="cls-10" d="M12.637,47.323a11.464,11.464,0,0,0,.431-1.107"/><path class="cls-10" d="M13.349,43.542a5.389,5.389,0,0,1,.037,1.115"/><path class="cls-9" d="M0,69.568H0a7.59,7.59,0,0,1,1.288-2.18A7.607,7.607,0,0,0,0,69.568Z"/><path class="cls-9" d="M.139,35.436c0,.014.008.027.01.041.025,0,.045.007.071.009Z"/><path class="cls-9" d="M65.191,3.52a2.157,2.157,0,0,0,0,.9c.232,1.725-.3,3.013-2.025,3.618.121,1.167.51,2.425-1,3.041,1.691,4.19,4.142,4.929,10.581,3.159a5.652,5.652,0,0,1,1.652,4.9c1.094.722,1.406,1.982,2.067,3a1.837,1.837,0,0,1,1.209,1.944l2.5-1.053A24.434,24.434,0,0,0,85.18,13.8c3.77.845,7.376,2.064,10.874-.172.728-3.273-2.9-5.371-2.452-8.6a.973.973,0,0,1-1.646-.657c-.175-1.09.5-1.655,1.651-1.414a1.269,1.269,0,0,1-.1-.848,2.144,2.144,0,0,1,.384-.729A2.779,2.779,0,0,0,94.616,0H92.492l-4.1,3.451c1.824,2.821,4.2,4.723,4.055,7.8-1.63,1.3-3.364.75-4.946.576s-3.019-1.36-4.992-.752c-.124,3.616-.806,7.121-3.569,9.852-3.036-2.614-3.1-6.327-4.171-9.766-3.2.633-6.263,1.54-9.493.271.279-3.195,2.085-5.36,4.046-7.37-1.132-1.5-2.1-2.781-3.065-4.059H64.185C64.442,1.2,65.8,2.076,65.191,3.52Z"/><path class="cls-9" d="M93.5,2.1a1.269,1.269,0,0,0,.1.848h0A1.269,1.269,0,0,1,93.5,2.1Z"/><path class="cls-9" d="M93.656,2.959c-.017,0-.032,0-.049-.007.008.016.006.029.014.045Z"/><path class="cls-9" d="M93.608,4.949c0,.025,0,.049-.006.074.016-.012.03-.016.045-.028Z"/><path class="cls-9" d="M62.1,11.118c.027-.01.042-.024.068-.034-.007-.017-.015-.031-.021-.048Z"/><path class="cls-9" d="M63.105,8.068c.022-.007.038-.017.06-.025,0-.02-.005-.04-.007-.059Z"/><line class="cls-10" x1="93.656" y1="2.959" x2="93.621" y2="2.997"/><path class="cls-9" d="M33.775,6.946c.964-.29,1.29.063.991,1.047l.019-.062c2.458.061,2.3,1.693,2.3,3.606-3.429.735-6.352-.8-9.71-1.33-.906,3.161-.658,6.814-3.9,9.039-3.046-2.185-3.463-5.591-4.28-8.868-3.025.726-5.7,2.779-8.728,1.292-.77-1.567.869-3-.027-4.459-2.752.981-2.084,3.708-3.214,5.773,3.72,2.352,7.517.811,11.12.844a11.19,11.19,0,0,1,1.14,6.379h0c.811-.119.973.385.994,1.024l.011,0v.013a1.843,1.843,0,0,1,.431.148,2.52,2.52,0,0,1,.642.389,7.28,7.28,0,0,1,.655.659c.141.155.281.311.426.459a2.315,2.315,0,0,0,1.948.855L26.035,22.3c.05-.07.1-.143.146-.217a2.4,2.4,0,0,1,.643-.774.98.98,0,0,1,.728-.112c-.258-.976-.266-1.825,1.031-2.013a8.824,8.824,0,0,1,.988-5.556c3.546-.04,7.43,1.758,10.856-.845.194-3.273-2.365-5.708-2.685-8.822-2.139-1.845.483-1.8,1.066-2.57L39.723,0H35.6L31.907,2.711C32.006,4.466,34.69,4.91,33.775,6.946Z"/><path class="cls-9" d="M37.738,3.935l0,.027.035.032Z"/><path class="cls-9" d="M28.641,19.172c-.022,0-.036.009-.058.013l.005.067Z"/><path class="cls-10" d="M26.181,22.084a2.4,2.4,0,0,1,.643-.774"/><path class="cls-9" d="M26.181,22.084c-.048.074-.1.147-.146.217h0C26.085,22.231,26.133,22.158,26.181,22.084Z"/><path class="cls-9" d="M27.634,21.208c-.03-.007-.053,0-.082-.01.007.029.013.056.021.085Z"/><path class="cls-9" d="M26.035,22.3h0l-1.444,1.455L26.035,22.3Z"/><polygon class="cls-9" points="19.484 20.207 19.483 20.207 19.483 20.207 19.484 20.207"/><path class="cls-9" d="M20.489,21.246v-.013l-.01.011Z"/><path class="cls-9" d="M20.489,21.233l-.011,0v.013Z"/><path class="cls-9" d="M9.342,2.936c4.738.231.034,2.945,1.045,4.156,2.417-.048,2.5-2.556,3.934-3.437C14,1.684,11.221,2.055,11.341,0H8.291C8.113,1.155,9.681,1.727,9.342,2.936Z"/><path class="cls-9" d="M9.342,2.936l-.049,0,.038.076C9.339,2.982,9.335,2.961,9.342,2.936Z"/><path class="cls-9" d="M.281,23.112a1.46,1.46,0,0,1,.373-.479,2.273,2.273,0,0,1,1.512-.416c-.047-.725.27-1.085,1.019-1.01A2.607,2.607,0,0,1,5.2,18.187c-.323-1.231.554-2.577-.528-4.035C3.167,14.006,1.566,13.563,0,13.91V15.2l1.2.024c4.2.515,1.244,2.821.516,3.471A12.969,12.969,0,0,0,0,20.551v3.816a5.722,5.722,0,0,1,.087-.659A2.34,2.34,0,0,1,.281,23.112Z"/><path class="cls-9" d="M5.289,18.153c-.03.01-.056.023-.086.034V18.2Z"/><path class="cls-9" d="M2.226,22.214c-.022,0-.039,0-.06,0,0,.029-.006.049,0,.08l.04-.053Z"/><path class="cls-9" d="M3.237,21.231l.022-.025c-.029,0-.046,0-.074,0,0,.026,0,.049,0,.076Z"/><line class="cls-10" x1="2.203" y1="22.244" x2="2.163" y2="22.297"/><path class="cls-10" d="M3.237,21.231l-.047.052"/><path class="cls-9" d="M10.354,96.385l0,.024c-.014,0-.024,0-.038,0-.12,1.5,1.5,3.183-.5,4.473-.268.476-.544.951-.811,1.429h2.179A24.848,24.848,0,0,1,13.341,99.5,4.453,4.453,0,0,0,10.354,96.385Z"/><path class="cls-9" d="M37.737,101.484c-.956-.318-1.857-.819-1.758-1.942.079-.893.807-1.309,1.743-1.148-.067-.739.222-1.125,1.012-1.015-.356-2.932,2.881-5.193,1.617-8.39-2.47-1.328-5.14-.381-7.681-.693-1.174,1.475-2.463,1.7-3.422-.11-.815-1.537-2.055-3.011-1.687-4.974-1.781-.245-2.239-1.808-3.015-3.054-1.919-.475-2.564,1.668-4.078,2.025L17.1,89.278c-3.412.107-6.6-.493-9.464.559-.6,2.275.968,3.629.95,5.313.63.341.756,1.389,1.723,1.26,0-.014,0-.028,0-.042.014.005.027.012.042.017C10.753,94.84,8.8,93.73,9.6,92c2.85-1.361,5.805.08,8.643.054,2.223-2.282,1.436-5.965,4.131-8.134,2.981,1.748,3.56,4.774,4.5,7.573l.612,1c3.25-.171,6.273-2.548,9.917-.9-.247,3.374-3.068,5.3-4.779,7.792a9.294,9.294,0,0,0,1.8,2.933h3.777A1.091,1.091,0,0,1,37.737,101.484Z"/><path class="cls-9" d="M10.312,96.368c0,.014,0,.028,0,.042.014,0,.024,0,.038,0Z"/><path class="cls-9" d="M38.773,97.42l.033-.039c-.029,0-.045,0-.072,0,0,.027,0,.054,0,.081Z"/><path class="cls-9" d="M37.794,98.4c-.025-.005-.047-.005-.072-.009,0,.029,0,.049,0,.08Z"/><path class="cls-9" d="M37.725,101.428c0,.021.01.035.012.056.021.007.041.015.062.021l-.048-.05Z"/><polygon class="cls-9" points="37.725 101.427 37.725 101.428 37.725 101.428 37.725 101.427"/><path class="cls-9" d="M32.622,88.292l.048,0c.015-.02.031-.033.046-.053Z"/><path class="cls-9" d="M20.428,82.2c.014,0,.026-.008.04-.012l.023-.048Z"/><path class="cls-9" d="M27.568,83.151c-.005.021,0,.04-.007.061.024,0,.043.012.068.015Z"/><path class="cls-9" d="M24.513,80.1c.011.018.021.038.033.056s.031,0,.048.01Z"/><path class="cls-9" d="M37.725,101.428h0l.026.027Z"/><path class="cls-9" d="M37.8,101.505l-.048-.05Z"/><path class="cls-9" d="M94.385,100.772,93.146,99.48c-.849.4-1.719.377-1.966-.607s.474-1.426,1.412-1.465c-.01-.682.15-1.2,1-1.041-.075-1.511.351-2.685,2.016-3.026-.7-1.475.456-2.958-.166-4.656-3.106-1.136-6.349-.612-9.581.5a3.467,3.467,0,0,1-1.41-3.954,5.2,5.2,0,0,1-.919-.446,2.327,2.327,0,0,1-1.122-2.573c-1.036-.059-1.231-.689-1.017-1.595-.14-.148-.28-.3-.42-.444l-3.382.209a42.009,42.009,0,0,0-3.817,8.855c-3.781-.718-7.528-1.983-11.12.656-.412,1.625,1.429,3.23.515,5.036.166,1.7,2.274,2.4,2.2,4.233,1.554,1.741.325,2.449-.909,3.155H67.98c.983-1.033,2.088-1.978,3.071-3.025-1.651-2.84-5.1-4.225-5.507-7.764,3.064-.932,6.062-.01,9.174-.187,1.456-2.378,1.148-5.571,3.349-7.643,1.142-.106,1.365.6,1.334,1.528,2.569,1.322,2.336,4.413,3.869,6.451,1.854.281,3.563-.837,5.329-.3l1.632.027c1.685-.09,1.582,1.061,1.105,1.965-1.012,1.916-2.241,3.717-3.356,5.524a34.367,34.367,0,0,0,2.43,3.423h3.839A3.928,3.928,0,0,1,94.385,100.772Z"/><path class="cls-9" d="M95.683,93.32c-.028.005-.048.015-.075.021.008.019.01.037.02.056Z"/><path class="cls-9" d="M83.532,84.78a5.2,5.2,0,0,0,.919.446h0A5.2,5.2,0,0,1,83.532,84.78Z"/><path class="cls-9" d="M84.484,85.219l-.027-.032c0,.013,0,.026-.006.039.021.008.039.018.06.026Z"/><path class="cls-9" d="M93.645,96.373c-.02,0-.034,0-.053-.006,0,.021,0,.041,0,.063Z"/><path class="cls-9" d="M92.637,97.4l-.045,0c0,.015,0,.029,0,.045Z"/><path class="cls-9" d="M82.417,82.136c0,.025,0,.046-.007.071.025,0,.045.007.071.007Z"/><path class="cls-9" d="M84.511,85.252h0l-.028-.033Z"/><path class="cls-9" d="M.234,90.254c.031.026.063.047.094.073l3.827,0c.02-.021.04-.034.061-.057.023,0,.041.014.064.019,1.929-2.313.555-4.36-.749-6.208C2.486,82.6,1,81.431.759,79.477A8.328,8.328,0,0,1,0,78.329v5.377a6.511,6.511,0,0,0,.828.911,2.459,2.459,0,0,1,1.639,2.265A5.014,5.014,0,0,1,0,87.425v2.69c.032.044.068.077.1.127Z"/><path class="cls-9" d="M4.25,90.331c.011-.012.019-.025.03-.038-.023-.005-.041-.014-.064-.019Z"/><path class="cls-9" d="M4.155,90.331H4.25l-.034-.057C4.2,90.3,4.175,90.31,4.155,90.331Z"/><path class="cls-9" d="M.157,90.326H.328C.3,90.3.265,90.28.234,90.254Z"/><path class="cls-9" d="M.1,90.242c.019.031.041.051.059.084l.077-.072Z"/><path class="cls-9" d="M46.877,66.917c.672.021.911.474,1.043,1.031,1.56.533,2.095,2.726,4.1,2.544L55.5,66.987l1.5-5.024c3.421-.229,7.073,1.808,10.167-1.026.64-2.756-1.767-4.623-2.118-7.088-2.258-.861-2.057-2.173-.817-3.843,1.678-2.262,3.613-4.47,2.893-7.687-2.978-2.405-6.252-1.593-9.4-.759-1.866-1.4-1.533-3.321-1.722-5.067-1.063-.3-1.245-1.052-1.04-2-.828.137-1.254-.119-1.016-1.023a1.416,1.416,0,0,1-.491.026.562.562,0,0,1-.459-.362,1.5,1.5,0,0,1-.057-.673,5.783,5.783,0,0,1-3.009-.016,7.207,7.207,0,0,1-4.024,4.043c.27,1.22.241,2.336-1.02,3.025-.031,1.88-1.1,1.591-2.376,1.222a8.994,8.994,0,0,0-8.6,1.585c-.649,3.426,2.323,5.4,2.288,8.28l.009.049c1.841-.5,2.4.731,2.832,2.116,1.434.487,2.106-.48,2.961-1.345C40.25,48.8,37.618,47.047,36.5,44.273c3.088-2.915,6.281-.3,9.078-.482,1.629-1.18,1.457-2.891,2.025-4.239a6.586,6.586,0,0,1,2.2-3.085,2.692,2.692,0,0,1,2.114,2.121c1.98,1.327,1.74,3.794,2.773,5.544,1.411,1.089,2.961-.169,4.344.412,1.472-1.895,3.222-.562,4.949-.651.175,3.5-2.484,5.2-4.047,7.6,1.24,2.494,3.934,4.176,4.215,7.533-3.079.612-5.968-.327-9.1-.375-1.721,2.4-.9,6.216-4.063,8.328-2.245-2.443-3.086-5.566-4.737-8.572l-8.987.963c-1.28-2.948,2.393-4.124,1.743-6.6l-2.275.948c.015.689-.257,1.095-1,1.04.05,2.323-2.273,4.043-1.761,6.451,2.824,1.623,5.836,1.587,8.834,1.625l0,.005C47.114,61.285,45.926,65.159,46.877,66.917Z"/><path class="cls-9" d="M49.906,32.438l.034.006c.011-.023.023-.044.033-.067Z"/><path class="cls-9" d="M44.822,39.559c.028-.015.047-.032.074-.047V39.5Z"/><path class="cls-9" d="M45.853,36.515c.022-.009.041-.02.063-.028,0-.018-.006-.035-.01-.053Z"/><path class="cls-9" d="M56.012,36.493c.023.006.04.015.063.021l-.069-.092C56.009,36.445,56.01,36.469,56.012,36.493Z"/><path class="cls-9" d="M54.991,34.391c-.008.035-.012.067-.019.1.028,0,.053-.006.083-.011Z"/><path class="cls-9" d="M47.938,68.009c-.005-.021-.013-.039-.018-.061-.02-.006-.038-.016-.059-.023Z"/><path class="cls-9" d="M46.915,67c-.014-.025-.024-.054-.038-.079-.012,0-.02-.006-.033-.006Z"/><path class="cls-9" d="M35.677,54.766c.023,0,.035,0,.057,0,0-.013,0-.025,0-.037Z"/><path class="cls-9" d="M36.683,53.744l.05-.021c0-.013,0-.022,0-.036Z"/><path class="cls-9" d="M53.465,33.495a1.416,1.416,0,0,0,.491-.026h0A1.416,1.416,0,0,1,53.465,33.495Z"/><path class="cls-10" d="M53.465,33.495a.562.562,0,0,1-.459-.362"/><path class="cls-9" d="M52.956,32.361c0,.035,0,.065-.007.1.027-.009.054-.015.081-.025Z"/><path class="cls-9" d="M54.015,33.415l-.038-.037c-.01.033-.012.059-.021.091.034-.007.062-.008.1-.016Z"/><path class="cls-9" d="M54.053,33.453h0l-.038-.038.038.038Z"/><path class="cls-9" d="M16.4,64.943l.194-.158c.252-1.12,1.02-1.134,1.908-.893l1.573.039c3.13.583,6.2-.6,9.188-.419.876.793.368,1.668.437,2.468l.011,0h0v.008c1.646-.665,2.041-1.923,1.549-4.266a128.465,128.465,0,0,1-15.745.176c.005.544-.027,1.025-.02,1.452a2.973,2.973,0,0,0,.142.967,1.757,1.757,0,0,0,.573.785l.037-.03Z"/><polygon class="cls-9" points="29.711 65.976 29.711 65.976 29.712 65.983 29.711 65.975 29.711 65.976"/><path class="cls-9" d="M16.211,65.1h0a1.757,1.757,0,0,1-.573-.785A1.757,1.757,0,0,0,16.211,65.1Z"/><path class="cls-10" d="M15.5,63.345a2.973,2.973,0,0,0,.142.967"/><path class="cls-9" d="M25.549,77.071c.416-2.931,2.621-5.424,2.1-8.582-2.819,1.231-.994,5.247-3.611,6.512a1.805,1.805,0,0,1-1.555-1.929c-1.069-.548-.987-1.623-1.089-2.576-.19-1.768-.98-2.789-2.889-2.592v.029h0l-.014,0c1.118,3.021,2.71,5.884,3.041,9.166l2.979.987C24.424,77.3,24.712,76.908,25.549,77.071Z"/><polygon class="cls-9" points="18.509 67.933 18.509 67.933 18.509 67.933 18.509 67.933"/><path class="cls-9" d="M21.536,77.1l-.009,0,.011.016Z"/><path class="cls-9" d="M25.583,77.076c-.012,0-.022,0-.034,0,0,.017-.007.034-.009.052C25.555,77.107,25.568,77.091,25.583,77.076Z"/><path class="cls-9" d="M24.515,78.083c0,.023,0,.044.006.068l.058-.047Z"/><path class="cls-9" d="M21.527,77.093l-.072-.023.083.039Z"/><path class="cls-9" d="M25.611,77.08l-.028,0c-.015.015-.028.031-.043.047Z"/><path class="cls-9" d="M18.508,67.9q-.028-.987-.058-1.973c-.926.127-1.127-.947-1.856-1.146l-.194.158-.152.124-.037.03a8.668,8.668,0,0,0,.7,1.779,2.423,2.423,0,0,0,.271.364,2.18,2.18,0,0,0,1.309.69l-.009-.025Z"/><path class="cls-9" d="M18.5,67.93a2.18,2.18,0,0,1-1.309-.69A2.18,2.18,0,0,0,18.5,67.93Z"/><path class="cls-10" d="M17.186,67.24a2.423,2.423,0,0,1-.271-.364"/><path class="cls-10" d="M16.248,65.067l-.037.03"/><path class="cls-9" d="M18.486,67.905l.009.025.014,0Z"/><path class="cls-9" d="M29.7,65.98c-1,.315-1.237,1.209-1.564,2.038a2.227,2.227,0,0,0,1.154-.331,1.1,1.1,0,0,0,.4-.5,1.634,1.634,0,0,0,.093-.743,3.046,3.046,0,0,0-.074-.457l-.012.006Z"/><path class="cls-10" d="M29.693,67.183a1.1,1.1,0,0,1-.4.5"/><path class="cls-10" d="M29.693,67.183a1.634,1.634,0,0,0,.093-.743"/><path class="cls-9" d="M29.7,65.989l.012-.006v-.007Z"/><path class="cls-9" d="M21.469,28.315c.014-.007.025-.016.039-.022l-.01.05c.855-.078,1.785-.313,1.977.976a6.541,6.541,0,0,1,.206.683c1.912,1.744,1.537,4.474,2.8,6.5q.768.978,1.535,1.955.168.186.338.37c-3.451,1.1-7.006.716-10.533.742q.183-.444.365-.888l.783-1.6a38.126,38.126,0,0,0,2.529-8.74l-.03,0c0-.01,0-.02,0-.031-2.942,1.46-1.581,5.382-4.022,7.129-.079.595-.346,1.006-.992,1.044.425,1.681-1.608,2.985-.477,5.194,4.893-.146,10.035-1.048,14.889-.168,1.18-1.87-.046-3.024-.115-4.3l-.074-.18-1.024-1.552c-2.893-1.566-3.542-4.1-3.1-7.113-1.166-.25-1.086-1.142-1.027-2.023-1.326-.5-2.66.082-3.989-.01C22.008,27,21.454,27.653,21.469,28.315Z"/><path class="cls-9" d="M25.531,26.275l0,.067c.019.007.038.009.057.017Z"/><path class="cls-9" d="M26.561,28.294c0,.025,0,.047-.007.071.023.006.04.015.064.019Z"/><path class="cls-9" d="M29.639,35.446l-.034-.042.049.074.02.013Z"/><line class="cls-10" x1="29.605" y1="35.403" x2="29.605" y2="35.403"/><path class="cls-9" d="M21.508,28.293c-.014.006-.025.015-.039.022s0,.021,0,.031Z"/><path class="cls-9" d="M21.538,26.332c-.013-.018-.019-.037-.033-.055-.017.018-.027.035-.045.053C21.486,26.332,21.512,26.33,21.538,26.332Z"/><path class="cls-9" d="M16.375,36.5c.031,0,.051-.013.08-.015,0-.012,0-.023-.006-.035Z"/><path class="cls-9" d="M17.388,35.491c.022-.015.038-.032.059-.047,0-.015.007-.026.009-.041Z"/><path class="cls-9" d="M29.605,35.4h0l.034.042Z"/><path class="cls-9" d="M29.674,35.491l-.035-.045Z"/><path class="cls-9" d="M21.505,26.277l-.007-.012-.038.065C21.478,26.312,21.488,26.3,21.505,26.277Z"/><path class="cls-9" d="M101.923,36.487c-.036.518-.341.9-1.164,1.027.534,2.664-.548,3.626-3.23,3.143-2.613-.47-5.237-.629-7.649.567-1.181,2.422.814,4.26.757,6.364a1.377,1.377,0,0,1,.952,2.063l.015.01,0,.015c.726-.441,1.066.134,1.454.583,2.09,1.048.89,1.883-.176,2.727l-.87,1.2c-.231.712-.383,1.475-1.168,1.837l-1.125,4c2.96,2.812,6.607,2.159,10.16,1.81,1.268,1.02,1.16,2.305.865,3.635q.225.718.449,1.438a2.96,2.96,0,0,1,1.115.163V60a3.48,3.48,0,0,0-.966-1.426c-2.073-.185-4.2,1.567-6.581.9-1.606-.453-3.174-.853-1.379-2.894l.649-1.283,2.827-3.931a3.732,3.732,0,0,0-1.32-2.208,4.275,4.275,0,0,1-1.422-2.013L93.2,46.02c-.738-.659-1.57-1.264-1.4-2.62,3.315-2,6.669.881,10.136.141a4.132,4.132,0,0,0,.375-.562V35.354a2.638,2.638,0,0,1-.542.116A3.1,3.1,0,0,1,101.923,36.487Z"/><polygon class="cls-9" points="101.755 35.414 101.755 35.414 101.755 35.414 101.755 35.414"/><path class="cls-9" d="M101.923,36.487a3.1,3.1,0,0,0-.153-1.017h0A3.1,3.1,0,0,1,101.923,36.487Z"/><path class="cls-9" d="M100.7,37.526c.022,0,.037-.009.058-.012,0-.023,0-.04-.009-.063Z"/><path class="cls-9" d="M101.736,35.437l-.034.043c.024,0,.044-.008.068-.01-.006-.019-.009-.037-.015-.056Z"/><path class="cls-9" d="M101.755,35.414h0l-.019.023Z"/><path class="cls-9" d="M101.7,35.48l.034-.043Z"/><path class="cls-9" d="M91.6,49.661l-.015-.01c-.006.015-.009.028-.015.042Z"/><path class="cls-9" d="M91.608,49.676l0-.015-.03.032Z"/><path class="cls-9" d="M99.7,17.465c.1-.814,0-1.7,1.334-1.577.427.039.855.059,1.283.091V14.09l-3.479.205C98.638,15.844,98.772,16.771,99.7,17.465Z"/><path class="cls-9" d="M100.772,21.218l1.54.227V20.371l-1.662-1.633Q100.712,19.979,100.772,21.218Z"/><path class="cls-9" d="M100.65,18.738q.061,1.241.122,2.48h0Q100.712,19.978,100.65,18.738Z"/><polygon class="cls-9" points="100.774 21.258 100.774 21.257 100.773 21.257 100.774 21.258"/><path class="cls-9" d="M100.774,21.257l0-.039-.083-.013.084.052Z"/><path class="cls-9" d="M43.687,13.987l.259.24c1.34,0,2.755-.4,3.886.726,3.065.466,6,2.274,9.17.4a2.511,2.511,0,0,1-.775,2.671,7.6,7.6,0,0,0-3.4,6.746c.057,1.778-1.087,4.128-3.26,1.019l-.97.816,1.347,3.754,3.031.014c-.421-1.745.631-2.508,2.028-3.04-.483-4.5,1.251-7.642,5.64-9.16l.214-.262c-.436-4.568-.658-4.723-6.828-4.758-1.027,1.051-2.055,2.164-3.046.02l-.08,0c-.025-.019-.05-.033-.075-.052C48.43,13.282,45.922,12.5,43.687,13.987Z"/><path class="cls-9" d="M49.967,30.428l-.026-.073h-.047Z"/><path class="cls-9" d="M53.02,30.369h-.048c0,.016,0,.03.008.047Z"/><path class="cls-9" d="M55.04,27.312l-.04.017c0,.016,0,.031,0,.048Z"/><path class="cls-9" d="M50.953,13.115c-.042,0-.086,0-.128,0,.025.019.05.033.075.052Z"/><path class="cls-9" d="M50.98,13.169c-.009-.02-.018-.034-.027-.054l-.053.057Z"/><path class="cls-9" d="M55,27.377l.051-.07-.015.005Z"/><path class="cls-9" d="M77.224,27.322c1.742-.386,2.347.439,2.2,2.061,2,2.726,2.318,6.41,5.394,8.863-4.36.68-8.39.139-12.276,1.455-.357-2.7,1.877-3.755,1.929-5.67l-2.249.92q-.448,0-.425.454c-.727,1.823-2.355,3.284-2.2,5.9,5.579,1.293,11.36-2.4,16.889.231l.008-.013.013.008c1.826-2.845-1.483-4.994-1.044-7.65a3.837,3.837,0,0,0-.436-.438c-1.759.6-2.374-.352-2.744-1.883-.352-1.45-.9-2.852-1.367-4.275l0-.092C79.652,26.291,78.367,24.77,77.224,27.322Z"/><path class="cls-9" d="M86.5,41.525l-.008.013.015.006Z"/><path class="cls-9" d="M86.508,41.533l-.013-.008.007.019Z"/><path class="cls-9" d="M75.49,30.526c1.229-.517,1.127-1.565,1.039-2.608l-1.177.441q.067,1.081.136,2.162Z"/><path class="cls-9" d="M75.352,28.359l0-.065-.045.084Z"/><path class="cls-9" d="M48.594,26.6l.97-.816c-.6-2.967-1.32-5.887-3.543-8.151l-.081.03a4.155,4.155,0,0,1-1.906-2.64,1.477,1.477,0,0,1-.088-.8l-.259-.24c-2.269,1.838.384,3.387.3,5.1C47.148,20.594,47.715,23.693,48.594,26.6Z"/><path class="cls-9" d="M59.053,83.221a1.112,1.112,0,0,1-.5.019c-.412-.107-.471-.57-.513-1.051-1.435-.513-2.525-1.255-2.029-3.054-1.175-.73-1.119-1.879-1.019-3.042-1.608-.414-2.194-1.851-3.025-3.043-1.248-.392-1.9,1.08-3.039,1.019l-.414,2.961,2.07-1.777A8.3,8.3,0,0,1,53.9,80.828c.453,2.511,3.273,3.366,3.731,6.4-4.517.09-8.941-.466-13.3.137-.449-2.344,1.43-3.218,2.025-4.7a4.135,4.135,0,0,0-.63-.512,1.768,1.768,0,0,0-1.37,1c-.548,2-2.621,3.76-.985,6.105a68.386,68.386,0,0,1,15.609.258c1.735-1.629.608-3.07,1.059-4.276A1.375,1.375,0,0,1,59.053,83.221Z"/><path class="cls-9" d="M43.385,89.284c-.007-.011-.012-.021-.019-.031l-.072,0Z"/><path class="cls-9" d="M48.872,74.073c.021,0,.039,0,.059,0l.01-.07Z"/><path class="cls-9" d="M51.934,73c.013.018.024.037.036.054s.032,0,.049.009Z"/><path class="cls-9" d="M55,76.039l0,.054c.021,0,.039.015.061.02Z"/><path class="cls-9" d="M56.024,79.082c-.006.019-.005.034-.01.053.019.012.032.026.052.037Z"/><path class="cls-9" d="M60.034,85.235l.061.022c-.017-.019-.035-.033-.052-.052C60.039,85.215,60.038,85.225,60.034,85.235Z"/><path class="cls-9" d="M58.556,83.24a1.112,1.112,0,0,0,.5-.019h0A1.112,1.112,0,0,1,58.556,83.24Z"/><path class="cls-9" d="M58.038,82.13l.005.059c.024.008.045.018.069.026Z"/><path class="cls-9" d="M59.1,83.179l-.027-.033c-.009.026-.013.049-.022.075.026-.005.046-.005.074-.012Z"/><path class="cls-9" d="M60.043,85.205c.017.019.035.033.052.052l.021.007Z"/><path class="cls-9" d="M59.127,83.209h0l-.025-.03Z"/><path class="cls-9" d="M48.482,77.185c-1.712,1.211-1.038,3.745-2.749,4.957l-.012.006a4.135,4.135,0,0,1,.63.512C48.908,81.554,48.017,79.106,48.482,77.185Z"/><path class="cls-9" d="M75.49,30.526h0l-.032-.108c-1.555.836-.905,2.328-1.064,3.579A2.626,2.626,0,0,0,75.49,30.526Z"/><path class="cls-9" d="M101.739,80.141c.125.836-.416,1.226-1.066,1.544a.864.864,0,0,0-.512.187c-1,1.838-2.047,3.66-2.007,6.029a9.015,9.015,0,0,0,4.158.45V86.558a17.2,17.2,0,0,0-2.171.564,2.011,2.011,0,0,1,.617-2.053,1.11,1.11,0,0,1,.2-.748c.489-.63.936-1.275,1.351-1.933V79.7A1.692,1.692,0,0,1,101.739,80.141Z"/><path class="cls-9" d="M101.739,80.141c0-.016,0-.029,0-.046l-.035.067C101.714,80.156,101.725,80.147,101.739,80.141Z"/><path class="cls-9" d="M100.961,84.321h0a1.139,1.139,0,0,0-.169.356,1.139,1.139,0,0,1,.169-.356Z"/><path class="cls-9" d="M86.857,60.756c-5.379.161-10.9,1.047-16.4.352-2.042,1.524.516,3.226-.174,4.8l1.936.062a.253.253,0,0,1,.012-.023l.026.008c.769-.779-2.327-3.32,1.276-2.806a.879.879,0,0,1,.558.065c3.421.325,6.829,1.233,10.458.128A30.88,30.88,0,0,0,79.406,72l.017.006c.182,4-1.821,1.416-3.091,1.042v.023c-.01,0-.017-.012-.027-.017-.628,1.6,1.319,2.526,1.09,4.023,1.194.241,1.963-.535,2.782-1.192q1.452-3.612,2.9-7.224c.609-.829,1.223-1.65,2.381-1.681l.034-.036.029-.011C85.349,64.906,87.49,63.471,86.857,60.756Z"/><path class="cls-9" d="M77.388,77.152c0-.025,0-.048.008-.073-.018,0-.034,0-.053-.007Z"/><path class="cls-9" d="M70.272,65.95c.006-.013.008-.026.014-.039l-.076,0Z"/><path class="cls-9" d="M85.527,66.977c0-.014,0-.028,0-.042l-.029.011Z"/><path class="cls-9" d="M85.462,66.982c.023,0,.042,0,.065,0l-.031-.031Z"/><path class="cls-9" d="M72.539,67.731c2.725.731,1.622,4.182,3.767,5.325l0-.014.022.008c-.114-3.079-.325-6.1-4.072-7.092,0,0-.005.011-.01.016h-.028C71.761,66.656,72.385,67.153,72.539,67.731Z"/><path class="cls-9" d="M76.306,73.056c.01.005.017.012.027.017l-.023-.031Z"/><path class="cls-9" d="M72.234,65.95a.253.253,0,0,0-.012.023h.028Z"/><path class="cls-11" d="M5.067,100.32C5,98.3,4.273,96.908,1.977,97.747A5.586,5.586,0,0,1,0,98.019v2.642C1.643,101.207,3.39,101.68,5.067,100.32Z"/><path class="cls-11" d="M96.918,3.937c1.438-.2,1.754,2.173,3.786,1.264a11.177,11.177,0,0,1,1.608-.566V2.255A10.149,10.149,0,0,1,98.793,0H97.705C98.253,1.465,97.36,2.659,96.918,3.937Z"/><path class="cls-11" d="M48.169,1.675c-1.622.538-3.524.23-5.3.289.476,1.393,1.6,2.5,2.888,2.119,4.958-1.476,9.6.574,14.382.918q.418-.561.836-1.122v0c.688-1.212.18-2.162-.378-3.1-.08-.134-.161-.268-.239-.4S60.212.125,60.146,0H59C55.92,3.669,51.711.5,48.169,1.675Z"/><path class="cls-11" d="M60.969,3.876v0c.686-1.213.179-2.163-.38-3.1C61.149,1.714,61.657,2.664,60.969,3.876Z"/><path class="cls-12" d="M60.591.775c-.08-.134-.161-.268-.239-.4"/><path class="cls-11" d="M42.793,1.965h.071c-.007-.021-.017-.041-.024-.062Z"/><path class="cls-11" d="M60.15,5h-.016l-.027.037Z"/><path class="cls-11" d="M5.091,2.728A28.2,28.2,0,0,0,0,2.84V5.526c1.661.078,3.32.169,4.984.226A4.594,4.594,0,0,0,5.091,2.728Z"/><path class="cls-11" d="M11.517,19.875c.087,2.311-1.427,4.335-2.342,6.541C7.937,29.4,4.808,31.049,4.361,34.339c1.157.556,2.211,1.655,3.858.58.669-5.93,4.612-10.265,8.126-14.84l-.012-.12A5.212,5.212,0,0,0,11.517,19.875Z"/><path class="cls-11" d="M44.746,96.89c-1.292,1.329-2.153,2.655-.011,4,5.215-1.918,10.321-1.22,15.381.617.162-1.276,1.436-1.663,2.063-2.568,0-.929-.67-1.5-1.173-2.157C55.6,98.638,50.19,99.206,44.746,96.89Z"/><path class="cls-11" d="M60.161,101.519l-.045-.015-.005.02Z"/><path class="cls-11" d="M30,53.5c1.2-1.532,1.71-2.9-.136-4.263-4.7,1.872-9.253,1.812-13.667-.749a4.086,4.086,0,0,0-1.935,2.987l2.272,1.93C20.975,51.327,25.426,52.035,30,53.5Z"/><path class="cls-11" d="M94.212,34.483c2.982-.445,3.575-1.725,1.643-3.882-2.9-3.237-5.164-6.769-5.506-11.3a3.7,3.7,0,0,1-2.751-.24l-2.077,3.016C90.209,24.881,92.716,29.253,94.212,34.483Z"/><path class="cls-11" d="M38.624,34.285a10.091,10.091,0,0,0,2.319-.46,1.723,1.723,0,0,0,.481-.268c.541-.452.278-1.15-.621-2.342-2.665-3.533-5.271-7.08-5.221-11.615-2.328-.824-3,.5-3.515,2.057A80.314,80.314,0,0,1,37.219,31Q37.968,32.618,38.624,34.285Z"/><path class="cls-12" d="M41.424,33.557a1.723,1.723,0,0,1-.481.268"/><path class="cls-11" d="M98.686,101.469a28.159,28.159,0,0,1,3.626-1.512V97a12.586,12.586,0,0,1-3.646-1.636A15.387,15.387,0,0,0,98.686,101.469Z"/><path class="cls-11" d="M98.644,95.353l.007,0,.019-.015Z"/><path class="cls-11" d="M98.694,101.518c0-.016-.005-.033-.008-.049l-.027.013Z"/><path class="cls-11" d="M98.67,95.342l-.019.015.015.009Z"/><path class="cls-11" d="M90.257,81.829c.189-3.36,2.874-5.471,3.649-8.467a8.192,8.192,0,0,0-.729-.69c-3.33,1.748-3.68,6.438-7.552,7.652q.683,1.385,1.367,2.769C88.21,82.935,90.159,83.572,90.257,81.829Z"/><path class="cls-11" d="M9.151,76.21c1.238,2.242.521,6.747,5.383,7.4.278-6.265-6.564-9.465-5.523-15.1-1.41-1.035-2.594-.369-3.716-.487C4.5,71.617,7.8,73.757,9.151,76.21Z"/><path class="cls-11" d="M5.306,67.956l-.05.067H5.3C5.3,68,5.3,67.979,5.306,67.956Z"/><path class="cls-11" d="M5.252,68.023h0l.05-.067Z"/><path class="cls-11" d="M38.193,67.941c-.754,5.147-3.81,8.663-6.42,12.083A2.173,2.173,0,0,0,32.9,81.956a2.27,2.27,0,0,0,2.562-.513c.139-3.645,2.369-6.6,4.386-9.662C40.91,70.172,42,68.5,38.193,67.941Z"/><path class="cls-11" d="M62.933,34.592c.8-4.938,3.653-8.755,6.951-12.389-.529-1.7-1.56-2.44-3.349-1.823a20.579,20.579,0,0,1-6.168,10.514c-1.563,1.372-1.153,2.934-1.239,4.516C60.44,35.4,61.794,35.58,62.933,34.592Z"/><path class="cls-11" d="M59.128,35.41c-.018,0-.037,0-.055,0l.053.056C59.128,35.448,59.127,35.429,59.128,35.41Z"/><path class="cls-11" d="M97.226,69.107c-.389-1.561-1.849-1.521-3.1-1.35-.327,1.7-.637,3.308-.946,4.915a8.192,8.192,0,0,1,.729.69C95.3,72.155,97.884,71.746,97.226,69.107Z"/><path class="cls-11" d="M63.793,68.391c-1.984-.609-3.3-.526-3.679,1.658.754,1.969,3.115,2.943,3.393,5.361a2.157,2.157,0,0,0,2.677,1.681C66.333,73.838,63.026,71.665,63.793,68.391Z"/><path class="cls-11" d="M66.184,77.091v.014l.018-.015Z"/><path class="cls-11" d="M68.917,82.74c.21-1.012,1.459-1.633.762-3.132L66.2,77.118C66.211,79.29,65.266,81.872,68.917,82.74Z"/><path class="cls-11" d="M66.184,77.105l.018.013a.262.262,0,0,1,0-.028Z"/><path class="cls-11" d="M70.211,47.919,68.17,51.345a6.211,6.211,0,0,0,5.213,1.075c3.976-.625,8.424-1.645,12.4.764L88.6,51.139l-1.686-4.008C82.074,51.284,76.727,51.536,70.211,47.919Z"/><path class="cls-5" d="M77.806,69.747c-.813,1.9.606,1.866,1.534,2.231C78.79,71.3,79.243,69.835,77.806,69.747Z"/><path class="cls-5" d="M79.386,72.047c.006-.016.014-.03.02-.045-.021-.009-.045-.016-.066-.024C79.357,72,79.367,72.027,79.386,72.047Z"/><path class="cls-5" d="M79.423,72.008,79.406,72c-.006.015-.014.029-.02.045Z"/></g></svg>