<svg id="Layer_1" data-name="Layer 1" xmlns="http://www.w3.org/2000/svg" viewBox="0 0 87.638 75.897"><defs><style>.cls-1{fill:#9558b2;}.cls-2{fill:#389826;}.cls-3,.cls-4{fill:none;}.cls-3{stroke:#fff;stroke-miterlimit:10;stroke-width:1.005px;}.cls-5{fill:#cb3c33;}.cls-6{fill:#4063d8;}</style></defs><path class="cls-1" d="M3.678,40.616C1,39.573,1.536,38.477,3.623,37.354h0a34.679,34.679,0,0,1,1.441-3.238A11.382,11.382,0,0,0,5.5,33.008a6.493,6.493,0,0,0,.317-1.558,5.326,5.326,0,0,0-.036-1.116,5.825,5.825,0,0,0-.3-1.2c-.1-.051-.21-.083-.315-.129L0,37.949,5.628,47.7C6.076,45.076,4.065,43.042,3.678,40.616Z"/><path class="cls-2" d="M75.628,58.863c.014-.054.017-.112.031-.166h0C75.645,58.751,75.642,58.809,75.628,58.863Z"/><path class="cls-1" d="M13.963,63.889l-.009,0,.011.016Z"/><path class="cls-1" d="M13.954,63.886l-.072-.024.083.04Z"/><path class="cls-3" d="M68.76,59.866v-.024l-.022-.008Z"/><path class="cls-3" d="M38.778,69.453c-.595,1.486-2.474,2.36-2.026,4.7,4.365-.6,8.789-.047,13.306-.136-.458-3.035-3.279-3.889-3.731-6.4a8.294,8.294,0,0,0-3.313-5.574l-2.07,1.777-.035.155C40.444,65.9,41.334,68.346,38.778,69.453Zm.211,3.132c-.19-1.07.777-1.04,1.346-1.4C40.383,72.222,40.005,72.851,38.989,72.585Z"/><path class="cls-3" d="M13.8,23.319a3.749,3.749,0,0,1-3.19,2.154l-.365.887c3.526-.026,7.082.357,10.532-.742l-.338-.369a2.743,2.743,0,0,1-2.575-1.273c-.311-.519.578-.586,1.041-.683-1.263-2.024-.888-4.754-2.8-6.5q-.129,1.179-.256,2.357c-.734-1.068-1.714-2.145.05-3.039-.192-1.29-1.123-1.055-1.977-.976A38.2,38.2,0,0,1,11.4,23.875Zm1.757-1.212c.006,1.211-.922.856-1.511,1.037C14.433,22.653,14.647,21.91,15.56,22.107Z"/><path class="cls-3" d="M13.925,15.136l.01-.051-.041.054Z"/><path class="cls-3" d="M64.687,52.751l-.026-.009.016.024S64.682,52.755,64.687,52.751Z"/><path class="cls-3" d="M45.251,11.558a7.6,7.6,0,0,1,3.4-6.745,2.512,2.512,0,0,0,.774-2.671c-3.165,1.878-6.1.069-9.17-.4l-1.34.3c.638.724,1.658,1.1,1.9,2.336-.611,1.268-1.589-.358-2.366.041,2.223,2.265,2.939,5.184,3.543,8.152C44.164,15.687,45.308,13.336,45.251,11.558ZM43.706,8.449c1.328.638.29,1.528.321,2.244A1.367,1.367,0,0,1,43.706,8.449Z"/><path class="cls-3" d="M63.16,71.731c.345-2.679,1.828-4.565,2.741-6.65C60.638,52.3,60.638,52.3,52.068,52.972c-4.988,7.451.14,12.8,3.836,18.649C58.361,70.7,60.628,71.3,63.16,71.731ZM56.22,55.183c-.767,3.274,2.54,5.448,2.391,8.7h.018c0,.009,0,.018,0,.027L62.106,66.4c.7,1.5-.552,2.12-.762,3.132-3.651-.868-2.706-3.451-2.716-5.623l-.017-.012a.066.066,0,0,1,0-.014A2.158,2.158,0,0,1,55.934,62.2c-.279-2.417-2.64-3.392-3.393-5.36C52.915,54.657,54.235,54.574,56.22,55.183Z"/><path class="cls-3" d="M36.461,1.816a4.16,4.16,0,0,0,1.906,2.641l.253-2.446Z"/><path class="cls-3" d="M67.916,17.319a2.624,2.624,0,0,1-1.1,3.471l.083.033c-.052,1.915-2.285,2.972-1.929,5.671,3.887-1.316,7.917-.776,12.277-1.455-3.076-2.454-3.393-6.137-5.394-8.864.143-1.622-.463-2.447-2.2-2.06a5.327,5.327,0,0,1-.694.6C69.044,15.753,69.145,16.8,67.916,17.319ZM71.8,16.166c-.335.692-.3,1.66-1.649,1.869C69.9,16.605,69.6,15.414,71.8,16.166Z"/><path class="cls-3" d="M67.916,17.319l0-.006c-.011-.034-.018-.067-.031-.1l.032.109Z"/><path class="cls-3" d="M51.531,22.241a5.473,5.473,0,0,0,8.064.45c3.092-3.453,4.456-7.734,5.9-11.8-1.224-5.5-4.971-6.656-9.624-6.009a32.866,32.866,0,0,0-7.436,13.093C49.46,19.32,49.984,21.134,51.531,22.241Zm.024-.038c.086-1.582-.324-3.144,1.238-4.517A20.581,20.581,0,0,0,58.962,7.172c1.788-.616,2.82.124,3.349,1.823-3.3,3.635-6.147,7.451-6.952,12.389-1.139.988-2.492.807-3.8.819,0,.018,0,.037,0,.056L51.5,22.2Z"/><path class="cls-3" d="M68.759,59.842c1.27.374,3.273,2.956,3.091-1.042l-.037.039c-.02-.02-.029-.047-.047-.069-.927-.364-2.346-.329-1.533-2.231,1.436.089.984,1.556,1.533,2.231.022.009.046.015.066.024a30.955,30.955,0,0,1,5.146-8.657c-3.629,1.1-7.036.2-10.457-.127l.939,1.231c-1.569.727-1.491-.333-1.5-1.3-3.6-.514-.508,2.027-1.276,2.806C68.434,53.74,68.644,56.763,68.759,59.842Z"/><path class="cls-3" d="M22.138,52.768h0l-.011.005v.008Z"/><path class="cls-3" d="M22.127,52.773c-.07-.8.439-1.676-.437-2.469-2.992-.177-6.059,1-9.189.419,1.3,2.16-.861,1.454-1.583,1.94l.011-1.978c-.888-.241-1.657-.227-1.908.892.729.2.93,1.273,1.856,1.146q.028.987.058,1.974c1.909-.2,2.7.823,2.888,2.592.1.952.021,2.028,1.09,2.575a1.806,1.806,0,0,0,1.554,1.93c2.618-1.266.793-5.281,3.611-6.513a.753.753,0,0,0,.484-.47C20.89,53.982,21.132,53.087,22.127,52.773Zm-7.163,7.039c-.038-.912-.335-1.855.4-2.912C16.248,58.136,16.333,59.059,14.964,59.812Z"/><path class="cls-3" d="M65.81,39.212A6.207,6.207,0,0,1,60.6,38.138c-.061,2.525,1.857,4.139,2.491,6.049,5.221,1.45,10.052.37,15.016-.072a19.222,19.222,0,0,0,2.923-6.184l-2.819,2.046C74.234,37.567,69.786,38.587,65.81,39.212Z"/><path class="cls-3" d="M72.741,30.6c-2.818-1.084-8.753,1.765-10.1,4.108,6.515,3.618,11.862,3.366,16.7-.788C78.54,30.156,74.978,31.464,72.741,30.6Z"/><path class="cls-3" d="M30.422,71.971c4.634-4.077,6.383-9.033,7.53-14.341l-3.1-4.57a22.052,22.052,0,0,0-6.432-.078c-4.545,3.8-6.2,8.446-7.215,13.32l3.58,5.461A16.162,16.162,0,0,0,30.422,71.971Zm.2-17.238c3.8.56,2.716,2.231,1.656,3.841-2.017,3.061-4.248,6.017-4.386,9.662a2.27,2.27,0,0,1-2.562.512A2.173,2.173,0,0,1,24.2,66.817C26.809,63.4,29.866,59.88,30.62,54.733Z"/><path class="cls-3" d="M10.936,54.726h0V54.7a.176.176,0,0,0-.023,0Z"/><path class="cls-3" d="M26.081,35.489l.018,0-.019-.017Z"/><path class="cls-3" d="M29.692,46.163l8.987-.963c1.65,3.006,2.491,6.13,4.736,8.573,3.164-2.112,2.343-5.928,4.064-8.328,3.135.048,6.024.986,9.1.374-.282-3.357-2.975-5.038-4.216-7.533,1.564-2.4,4.223-4.105,4.047-7.6-1.726.089-3.476-1.243-4.949.651-1.382-.581-2.933.677-4.343-.412-1.034-1.75-.793-4.217-2.773-5.543a2.693,2.693,0,0,0-2.115-2.121,6.569,6.569,0,0,0-2.2,3.084c-.569,1.348-.4,3.059-2.025,4.239-2.8.187-5.99-2.432-9.078.482,1.118,2.775,3.75,4.53,5.506,7.146-.855.865-1.527,1.833-2.961,1.346l-.037.01C32.084,42.039,28.412,43.216,29.692,46.163ZM51.467,31.375h2.338c-.9,1.433-1.449,2.341-3.014,1.75C51.027,32.512,51.247,31.943,51.467,31.375Zm2.107,12.912c-1.9.36-2.613-.252-2.926-1.619C52.2,42.037,52.8,43.034,53.574,44.287Zm-6.593-3.261a.817.817,0,0,1-.82-.911c.007-.595.052-1.363.921-1.253.365.046.675.53.946.76C48,40.453,47.726,40.994,46.981,41.026Zm-.817-5.841a.98.98,0,0,1,1.114-.736.87.87,0,0,1,.819,1.02v0c-.106.531-.429.969-.949.981A.9.9,0,0,1,46.164,35.185Zm-2.1,7.138a.934.934,0,0,1-1.045.714.74.74,0,0,1-.659-.985c.124-.464.385-.846.988-.653.292.144.693.216.765.532a.54.54,0,0,1,.007.173A.9.9,0,0,1,44.062,42.323Zm-.625,7.858c-1.26-1.664-1.264-2.729-.453-3.931C44.676,47.187,44.388,48.314,43.437,50.181Zm.857-24.753c-.45.958.209,2.281-.989,2.991C42.616,26.436,42.614,26.407,44.294,25.428Zm-1.867,7.533c.1-.48.373-.872.962-.682.053.018.108.034.162.051.383.121.768.272.607.864a1.958,1.958,0,0,1-.149.327.894.894,0,0,1-.337.347l-.01,0a.664.664,0,0,1-.223.072.9.9,0,0,1-.285-.009A.791.791,0,0,1,42.427,32.961Zm.345,3.528a1.269,1.269,0,0,1,1.32,1.085c.254.915-.539,1.127-1.086,1.189a1.342,1.342,0,0,1-1.059-.778,1.509,1.509,0,0,1-.042-.457A1.121,1.121,0,0,1,42.772,36.489ZM39.3,34.809c.674-.2.829.324.974.779a.782.782,0,0,1,.037.405.494.494,0,0,1-.1.193,1.474,1.474,0,0,1-.689.384.848.848,0,0,1-1.03-.738C38.4,35.247,38.809,34.957,39.3,34.809Zm-.034,4.562c.6-.17.886.212.982.713a.9.9,0,0,1,0,.373.772.772,0,0,1-.4.5,1.606,1.606,0,0,1-.347.144c-.6.08-.863-.3-1-.783C38.316,39.664,38.81,39.5,39.269,39.371Zm-8.358-7.644c2.066-.46,2.673.309,3.142,1.446C32.505,33.891,31.956,32.729,30.911,31.727ZM35.566,41.7c-1.317,2.116-2.319,3.012-4.116,2.534C32.1,42.577,33.385,42.162,35.566,41.7Z"/><path class="cls-3" d="M31.668,4.285C24,1.651,23.61,8.638,20.535,11.592c1.449,4.742,3.136,9.094,7.105,12.484h6.778C42.335,15.68,35.438,10.061,31.668,4.285ZM33.851,20.35a1.741,1.741,0,0,1-.482.268,4.2,4.2,0,0,1-.426.138,13.823,13.823,0,0,1-1.892.321q-.655-1.668-1.4-3.286a80.612,80.612,0,0,0-5.152-9.342c.516-1.557,1.187-2.881,3.515-2.056-.051,4.534,2.556,8.082,5.221,11.615C34.129,19.2,34.392,19.9,33.851,20.35Z"/><path class="cls-3" d="M24.7,35.441c-3.418-4.6-7.774-4.925-13.075-3.845-2.727.555-2.6,1.985-3,3.681,4.414,2.561,8.97,2.62,13.667.749,1.846,1.362,1.336,2.73.136,4.262-4.573-1.46-9.023-2.168-13.466-.095l-2.272-1.93c-.551,2.571,1.475,4.115,2.27,6.159A26.812,26.812,0,0,0,21.9,44.205c2.141-2.548,4.472-5,4.18-8.716C25.6,35.487,24.871,35.672,24.7,35.441Z"/><path class="cls-4" d="M18.718,13.677a1.752,1.752,0,0,0-.734-.6h0A1.743,1.743,0,0,1,18.718,13.677Z"/><path class="cls-4" d="M38.5,40.317c.14.488.405.863,1,.783a1.606,1.606,0,0,0,.347-.144,1.62,1.62,0,0,1-.344.142C38.909,41.18,38.644,40.805,38.5,40.317Z"/><path class="cls-4" d="M18.037,63.872a1.794,1.794,0,0,1-.049.5,1.794,1.794,0,0,0,.049-.5Z"/><path class="cls-4" d="M8.826,51.736l-.151.123Z"/><path class="cls-4" d="M43.662,33.871a.664.664,0,0,1-.223.072A.664.664,0,0,0,43.662,33.871Z"/><path class="cls-4" d="M43.672,33.868a.894.894,0,0,0,.337-.347A.894.894,0,0,1,43.672,33.868Z"/><path class="cls-4" d="M29.646,17.791q.747,1.62,1.4,3.286a13.823,13.823,0,0,0,1.892-.321,13.823,13.823,0,0,1-1.892.321Q30.4,19.409,29.646,17.791Z"/><path class="cls-4" d="M47.148,36.452c.52-.012.843-.45.949-.981v0C47.991,36,47.668,36.44,47.148,36.452Z"/><path class="cls-4" d="M44.111,41.931a.54.54,0,0,1,.007.173A.54.54,0,0,0,44.111,41.931Z"/><path class="cls-4" d="M42.772,36.491a1.266,1.266,0,0,1,1.32,1.083,1.269,1.269,0,0,0-1.32-1.085,1.121,1.121,0,0,0-.867,1.039A1.118,1.118,0,0,1,42.772,36.491Z"/><path class="cls-4" d="M39.529,36.57a1.474,1.474,0,0,0,.689-.384,1.459,1.459,0,0,1-.688.382.846.846,0,0,1-1.031-.736A.848.848,0,0,0,39.529,36.57Z"/><path class="cls-2" d="M38.294,23.25a4.59,4.59,0,0,1,4.039-4.066L42.321,17.2c-2.065-.247-2.458-2.064-2.808-3.522A25.8,25.8,0,0,0,36.1,6.155c-1.824-.952-1.425-3.3-3.053-4.793-2.99,1.226-6.25.951-9.108.492-2.045.985-1.068,3.447-2.861,4.161a1.541,1.541,0,0,1-1.027,2.04c-.144.91-.605,1.356-1.588,1.038h0l-1.444,1.456.966,2.532a1.659,1.659,0,0,1,.976,1.138,3.227,3.227,0,0,1,.085.957c1.488,2.135,2.078,4.658,3.025,7.027a2.028,2.028,0,0,1,.3.06.988.988,0,0,1,.614.471,1.816,1.816,0,0,1,.119,1.088l.074.18c1.751.278,1.551,2.421,3.036,3.169,3.518-1.567,7.337-.23,11.021-.866A2.268,2.268,0,0,1,38.294,23.25Zm-3.876.826H27.64c-3.969-3.39-5.656-7.742-7.1-12.484C23.61,8.638,24,1.651,31.668,4.285,35.438,10.061,42.335,15.68,34.418,24.076Z"/><path class="cls-2" d="M17.984,13.081c-.009,0-.016-.01-.026-.014h0l.026.015Z"/><path class="cls-2" d="M21.077,6.015c0-.017-.005-.033-.009-.05l-.054.079C21.037,6.036,21.055,6.024,21.077,6.015Z"/><path class="cls-2" d="M20,8.076c.019-.006.033-.015.051-.021,0-.019.008-.035.011-.055Z"/><polygon class="cls-2" points="22.031 22.195 22.032 22.196 22.032 22.195 22.031 22.195"/><path class="cls-2" d="M42.32,17.148V17.2c.026,0,.046.013.073.016Z"/><path class="cls-2" d="M42.4,19.169c-.024,0-.044.011-.067.015v.047Z"/><path class="cls-2" d="M37.235,26.305c.006.015.008.03.013.046l.076-.059Z"/><path class="cls-2" d="M38.294,23.25c0,.02-.01.037-.014.057l.052-.081C38.318,23.234,38.308,23.243,38.294,23.25Z"/><path class="cls-2" d="M17.984,13.082l-.026-.015.053.084Z"/><path class="cls-2" d="M19.045,15.177h0c-.02-.029-.037-.06-.057-.089Z"/><path class="cls-2" d="M22.371,22.263a2.028,2.028,0,0,0-.3-.06h0A2.028,2.028,0,0,1,22.371,22.263Z"/><path class="cls-2" d="M22.1,22.283c-.011-.026-.021-.053-.031-.08l-.038-.008.033.043Z"/><path class="cls-2" d="M8.417,23.37a2.747,2.747,0,0,1,.385-.107,3.237,3.237,0,0,1,.054-.653Z"/><path class="cls-2" d="M6.442,27.072a3.971,3.971,0,0,0,.3-.8l-.489.848C6.315,27.1,6.378,27.1,6.442,27.072Z"/><path class="cls-2" d="M9.814,22.181c-.008-.416-.008-.828,0-1.236l-.734,1.271A.849.849,0,0,1,9.814,22.181Z"/><path class="cls-2" d="M8.8,23.263V23.3l.073-.05C8.849,23.25,8.828,23.258,8.8,23.263Z"/><path class="cls-2" d="M9.814,22.181c0,.034,0,.068,0,.1l.067-.087C9.856,22.188,9.839,22.188,9.814,22.181Z"/><path class="cls-2" d="M18.037,63.872h0a1.794,1.794,0,0,1-.049.5c-.108.409-.411.619-.966.574a2.017,2.017,0,0,1,.031,1.963c1.971.051,2.761,1.279,2.994,3.062,1.439.488,1.7,1.862,2.143,3.036.532,1.394,1.33,2.247,2.916,2.036,2.364-2.163,5.328-.338,7.536-1.04,2.06-1.009,1.418-4.141,4.136-4.058a1.769,1.769,0,0,1,1.37-1l.012-.006c-.154-3.182.262-6.139,3.17-8.115,1.816-2.358-1.04-3.949-1.038-6.009-.83.142-.962-.41-1.015-1.042-2.2-.531-1.5-3.933-4.042-4.132v0c-2.952,2.739-6.181-.181-8.868.242-3.63,4.455-4.519,10.081-8.356,13.994l.027,0Zm10.386-10.89a22.052,22.052,0,0,1,6.432.078l3.1,4.57c-1.147,5.308-2.9,10.264-7.53,14.341a16.162,16.162,0,0,1-5.634-.208L21.208,66.3C22.227,61.428,23.878,56.783,28.423,52.982Z"/><path class="cls-2" d="M25.143,75.035l-.037,0c-.019.017-.038.029-.057.047Z"/><path class="cls-2" d="M20.056,70.02c0-.019-.007-.035-.009-.054-.019-.006-.033-.016-.053-.022Z"/><path class="cls-2" d="M17.053,66.9c-.04,0-.073-.01-.114-.01l.081.066C17.034,66.941,17.041,66.923,17.053,66.9Z"/><path class="cls-2" d="M40.288,54.718c0,.031,0,.061,0,.092.026,0,.045,0,.073-.008Z"/><path class="cls-2" d="M39.271,53.7l.006.065c.023.005.042.015.065.02Z"/><path class="cls-2" d="M41.368,60.791l-.038.028c-.012.015-.019.03-.032.046Z"/><polygon class="cls-2" points="17.966 63.915 18.037 63.872 18.037 63.872 17.966 63.915"/><path class="cls-2" d="M16.948,64.944c.029,0,.046-.006.074,0l-.017-.045Z"/><path class="cls-2" d="M29.1,40.465,28.64,37.44l-.01-.049L26.1,35.483l0,0-.018,0c.292,3.711-2.039,6.168-4.18,8.716a26.812,26.812,0,0,1-12.944.217c-.795-2.044-2.821-3.588-2.27-6.159a4.08,4.08,0,0,1,1.935-2.986c.4-1.7.275-3.126,3-3.681,5.3-1.08,9.657-.753,13.075,3.845.172.231.9.046,1.382.048V35.47l.017.013-1.428-5.524c-5.682-1.729-11.068-.337-16.544.023-1.6,2.443-1.03,6.048-3.967,7.847a3.243,3.243,0,0,0-.283,2.617c2.81,1.507,2.446,4.823,3.429,6.584,6.034,2.1,11.443-.778,16.992.344,1.57-1.719.934-4.973,3.8-5.834C27.871,40.63,28.139,40.208,29.1,40.465Z"/><path class="cls-2" d="M26.1,35.487l0,0-.017-.013Z"/><path class="cls-2" d="M28.1,41.54l0,.018.058-.04C28.14,41.524,28.122,41.534,28.1,41.54Z"/><path class="cls-2" d="M29.163,40.479l-.064-.014.011.071Z"/><path class="cls-2" d="M73.341,13.987l0,.093a2.67,2.67,0,0,1,.516,0l-.425-.737A1.339,1.339,0,0,1,73.341,13.987Z"/><path class="cls-2" d="M76.116,17.992a5.41,5.41,0,0,0,1.2,2.086Z"/><path class="cls-2" d="M47.467,14.105l.014-.006c.437,1.775-.678,2.513-2.034,3.091l.009,1.994a1.466,1.466,0,0,1,1,1,1.12,1.12,0,0,1,1.012,1.033,2.348,2.348,0,0,1,1.03,2.035c1.462.659,1.259,2.591,2.627,3.45a15.706,15.706,0,0,1,8.5.709C61.8,26.035,60.9,22.275,64.228,22.2c-.016-.3.125-.457.425-.454.84-2.294.454-5.161,3.067-6.624-.478-1.924,1.827-2.457,2.049-4.031L68.223,9.581a4.491,4.491,0,0,1-1.815-3.327c-1.176-.793-.69-2.634-2.136-3.31-2.425-.129-4.962.576-7.384-.524-2.326-1.056-2.859.8-3.608,2.279l-.213.262C50.594,7.638,49.291,11.031,47.467,14.105Zm8.405-9.223c4.653-.647,8.4.511,9.624,6.009-1.445,4.066-2.809,8.347-5.9,11.8a5.473,5.473,0,0,1-8.064-.45c-1.547-1.107-2.071-2.921-3.095-4.266A32.866,32.866,0,0,1,55.872,4.882Z"/><path class="cls-2" d="M48.5,23.307c0-.019,0-.037-.005-.055-.024-.011-.04-.028-.064-.037Z"/><path class="cls-2" d="M47.481,21.273c0-.021-.011-.035-.014-.056s-.031-.023-.049-.033Z"/><path class="cls-2" d="M45.457,19.227v-.043c-.026-.009-.046-.023-.073-.03Z"/><polygon class="cls-2" points="46.48 20.245 46.48 20.245 46.48 20.245 46.48 20.245"/><path class="cls-2" d="M46.442,20.208l.038.037c-.006-.022-.018-.039-.025-.061-.019,0-.032-.012-.051-.014Z"/><path class="cls-2" d="M67.774,15.086l-.054.034c0,.017,0,.033.009.05Z"/><path class="cls-2" d="M45.406,17.208l.041-.018v-.029Z"/><path class="cls-2" d="M77.889,53.775l-1.911,2.071h0a10.743,10.743,0,0,1-.319,2.85l3.078-5.33a3.1,3.1,0,0,1-.785.361c0,.014,0,.027,0,.041C77.931,53.769,77.911,53.774,77.889,53.775Z"/><path class="cls-2" d="M73.082,63.162l.037-.066c-.008.008-.013.017-.021.024Z"/><path class="cls-2" d="M75.978,55.846a10.745,10.745,0,0,1-.319,2.851h0a10.743,10.743,0,0,0,.319-2.85Z"/><path class="cls-2" d="M44.506,59.783c2.237-.224,2.763,1.266,2.97,3.076,1.414.649,1.339,1.8,1.032,3.039,1.466.479,1.744,1.749,2.013,3.026.745-.062,1.049.321,1.029,1.031,1.129.308,1.186,1.143.993,2.1l-.021-.007C56.188,76.1,60.849,73.081,65,74.039c1.308-2.755,2.188-5.5,4.329-7.483a3.869,3.869,0,0,0,.441-2.628c-1.963-.62-2.437-2.422-3.105-4.03-.684-1.649-1.068-3.45-2.606-4.61-.654-.758-1.551-1.381-1.427-2.568-1.489-.338-1.163-2.238-2.781-2.982-2.614-.047-5.63,2.347-8.229.054-2.148.907-1.286,3.839-3.7,3.988l-3.487,3.5C44.857,58.117,45.333,58.949,44.506,59.783Zm7.562-6.811c8.57-.677,8.57-.677,13.833,12.109-.913,2.085-2.4,3.971-2.741,6.65-2.532-.431-4.8-1.028-7.256-.11C52.208,65.769,47.08,60.423,52.068,52.972Z"/><path class="cls-2" d="M44.445,59.851c.025-.022.038-.045.061-.068-.052,0-.092,0-.145.006Z"/><path class="cls-2" d="M47.482,62.906c0-.016,0-.031-.006-.047-.019-.009-.031-.02-.05-.028Z"/><path class="cls-2" d="M48.492,65.965c.006-.022.01-.044.016-.067-.021-.006-.036-.017-.058-.023Z"/><path class="cls-2" d="M50.538,69.007l-.017-.083c-.022,0-.034,0-.056,0Z"/><path class="cls-2" d="M51.529,69.972l.024.03c0-.018,0-.03,0-.047-.018,0-.03-.012-.048-.017Z"/><polygon class="cls-2" points="51.553 70.002 51.553 70.002 51.553 70.002 51.553 70.002"/><path class="cls-2" d="M69.774,63.928c.015.005.026.012.04.017l-.044-.08Z"/><path class="cls-2" d="M62.637,52.7c0,.007,0,.012,0,.019.024.006.039.018.063.023Z"/><path class="cls-2" d="M38.918,2.049l1.34-.3c-1.13-1.122-2.545-.723-3.885-.726a1.467,1.467,0,0,0,.088.8l2.159.2Z"/><path class="cls-2" d="M78.914,28.331a2,2,0,0,1-2.573.938c-4.969-1.651-9.692,1.055-14.784.259-.254,4.254-3.916,6.852-3.831,10.9,3.172,1.326,2.115,5.562,4.915,7.145C64.58,46.8,77.363,45.931,80.153,46.4c1.095-1.173.983-3.166,2.559-4.061.128-.8.247-1.61,1.181-1.917a1.307,1.307,0,0,1,.894-1.111l.186-1.78a1.231,1.231,0,0,1-.939-1.06c-.011.007-.022.009-.034.017.007-.015.009-.028.016-.042a1.98,1.98,0,0,1-1.151-1.905c-2.483-1.328-1.388-4.923-3.93-6.214l-.007.012Zm.426,5.592q.845,2,1.687,4.008A19.222,19.222,0,0,1,78.1,44.115c-4.964.442-9.8,1.522-15.016.072-.634-1.91-2.552-3.524-2.491-6.049q1.02-1.715,2.041-3.427c1.35-2.343,7.285-5.192,10.1-4.108C74.978,31.464,78.54,30.156,79.34,33.923Z"/><path class="cls-1" d="M3.623,37.354h0a34.679,34.679,0,0,1,1.441-3.238A34.679,34.679,0,0,0,3.623,37.354Z"/><path class="cls-1" d="M65.174,1.035a5.654,5.654,0,0,1,1.652,4.9c1.094.722,1.406,1.982,2.067,3A1.839,1.839,0,0,1,70.1,10.881l1.536-.647L65.729,0H55.745C57.444,2.256,60.04,2.447,65.174,1.035Z"/><path class="cls-1" d="M18.462,9.093c.05-.07.1-.142.145-.216a2.411,2.411,0,0,1,.644-.775.982.982,0,0,1,.727-.112c-.257-.975-.265-1.824,1.032-2.013A8.807,8.807,0,0,1,22,.422C25.33.384,28.96,1.967,32.228,0H21.91L15.933,10.352a1.994,1.994,0,0,0,1.085.2Z"/><path class="cls-1" d="M21.068,5.965c-.022,0-.037.009-.058.012l0,.067Z"/><path class="cls-1" d="M18.607,8.877c-.047.074-.095.146-.145.216h0C18.512,9.023,18.56,8.951,18.607,8.877Z"/><path class="cls-1" d="M20.061,8c-.03-.007-.054,0-.083-.01.008.029.013.057.021.086Z"/><path class="cls-1" d="M18.462,9.093h0l-1.444,1.456,1.444-1.456Z"/><path class="cls-1" d="M19.988,70c-1.781-.244-2.239-1.807-3.015-3.053a2.219,2.219,0,0,0-.254-.044L21.91,75.9h.472a3.027,3.027,0,0,1-.707-.919C20.86,73.441,19.62,71.967,19.988,70Z"/><path class="cls-1" d="M25.1,75.088a4.08,4.08,0,0,1-.833.809h8.551c-.014-.039-.021-.076-.036-.115C30.308,74.454,27.638,75.4,25.1,75.088Z"/><path class="cls-1" d="M25.1,75.088c.016-.019.031-.033.047-.053l-.094.05C25.065,75.087,25.081,75.086,25.1,75.088Z"/><path class="cls-1" d="M19.988,70c.024,0,.043.013.068.016l-.062-.076C19.99,69.965,19.992,69.984,19.988,70Z"/><path class="cls-1" d="M16.939,66.894c.012.019.022.038.034.057l.047.009Z"/><path class="cls-1" d="M56.375,75.9h9.18C62.445,75.266,59.362,74.44,56.375,75.9Z"/><path class="cls-1" d="M66.878,73.907,70.8,67.121l-.777.048A53.159,53.159,0,0,0,66.878,73.907Z"/><path class="cls-1" d="M39.3,53.709c.672.022.91.474,1.043,1.032,1.56.533,2.094,2.726,4.1,2.544l3.487-3.5c.481-1.609.962-3.218,1.5-5.024,3.421-.229,7.074,1.807,10.167-1.027.641-2.756-1.766-4.622-2.118-7.088-2.258-.861-2.056-2.172-.817-3.843,1.678-2.261,3.614-4.469,2.893-7.687-2.977-2.4-6.252-1.593-9.395-.759-1.867-1.4-1.533-3.32-1.722-5.067-1.063-.3-1.246-1.052-1.041-2-.828.136-1.254-.119-1.015-1.024a1.446,1.446,0,0,1-.491.027.564.564,0,0,1-.459-.362,1.5,1.5,0,0,1-.058-.673,5.79,5.79,0,0,1-3.008-.016,7.2,7.2,0,0,1-4.024,4.042c.27,1.221.24,2.337-1.02,3.026-.032,1.88-1.1,1.59-2.377,1.222a8.99,8.99,0,0,0-8.6,1.584c-.649,3.427,2.322,5.4,2.287,8.28l.01.049c1.841-.494,2.4.731,2.832,2.117,1.434.487,2.106-.481,2.961-1.346-1.756-2.616-4.388-4.371-5.506-7.146,3.088-2.914,6.281-.3,9.078-.482,1.629-1.18,1.456-2.891,2.025-4.239a6.569,6.569,0,0,1,2.2-3.084,2.693,2.693,0,0,1,2.115,2.121c1.98,1.326,1.739,3.793,2.773,5.543,1.41,1.089,2.961-.169,4.343.412,1.473-1.894,3.223-.562,4.949-.651.176,3.5-2.483,5.2-4.047,7.6,1.241,2.495,3.934,4.176,4.216,7.533-3.079.612-5.968-.326-9.1-.374-1.721,2.4-.9,6.216-4.064,8.328-2.245-2.443-3.086-5.567-4.736-8.573l-8.987.963c-1.28-2.947,2.392-4.124,1.743-6.6l-2.275.949c.015.688-.257,1.094-1,1.039.05,2.323-2.273,4.043-1.762,6.452,2.825,1.622,5.837,1.586,8.835,1.625v0C39.54,48.078,38.352,51.952,39.3,53.709Z"/><path class="cls-1" d="M42.333,19.231l.034.006c.011-.023.023-.045.033-.068Z"/><path class="cls-1" d="M37.248,26.351c.029-.014.048-.032.075-.046v-.013Z"/><path class="cls-1" d="M38.28,23.307c.022-.008.041-.019.063-.028,0-.018-.007-.035-.011-.053Z"/><path class="cls-1" d="M48.433,23.215c0,.023,0,.047.006.07.023.006.039.016.063.022Z"/><path class="cls-1" d="M47.418,21.184c-.009.034-.012.067-.02.1.029,0,.054-.006.083-.012Z"/><path class="cls-1" d="M40.365,54.8c-.005-.022-.013-.04-.018-.061-.02-.007-.039-.017-.059-.023Z"/><path class="cls-1" d="M39.342,53.788c-.014-.024-.024-.053-.038-.079-.013,0-.02-.006-.033-.006Z"/><path class="cls-1" d="M28.1,41.558c.022,0,.035-.005.057,0,0-.012,0-.024,0-.037Z"/><path class="cls-1" d="M29.11,40.536l.05-.02c0-.014,0-.023,0-.037Z"/><path class="cls-1" d="M45.892,20.288a1.446,1.446,0,0,0,.491-.027h0A1.446,1.446,0,0,1,45.892,20.288Z"/><path class="cls-1" d="M45.383,19.154c-.005.034,0,.065-.008.1.028-.01.055-.015.082-.026Z"/><path class="cls-1" d="M46.4,20.17c-.01.033-.013.059-.021.091.034-.006.061-.007.1-.016l-.038-.037Z"/><path class="cls-1" d="M46.48,20.245h0l-.038-.037Z"/><path class="cls-1" d="M8.826,51.736l.2-.159c.251-1.119,1.02-1.133,1.908-.892l1.572.038c3.13.584,6.2-.6,9.189-.419.876.793.367,1.669.437,2.469l.011-.005h0v.007c1.646-.665,2.041-1.922,1.548-4.265a128.451,128.451,0,0,1-15.744.176c.005.544-.027,1.024-.021,1.452a3,3,0,0,0,.143.966,1.759,1.759,0,0,0,.572.786l.038-.031Z"/><polygon class="cls-1" points="22.138 52.768 22.138 52.768 22.139 52.775 22.138 52.768 22.138 52.768"/><path class="cls-1" d="M8.637,51.89h0a1.759,1.759,0,0,1-.572-.786A1.759,1.759,0,0,0,8.637,51.89Z"/><path class="cls-1" d="M16.942,64.875c-.091-.78.2-1.175,1.033-1.012.417-2.93,2.622-5.423,2.1-8.582-2.818,1.232-.993,5.247-3.611,6.513a1.806,1.806,0,0,1-1.554-1.93c-1.069-.547-.988-1.623-1.09-2.575-.189-1.769-.979-2.79-2.888-2.592v.029h0l-.014,0c.8,2.156,1.83,4.235,2.48,6.44L15.216,64.3Z"/><polygon class="cls-1" points="10.936 54.726 10.936 54.726 10.936 54.726 10.936 54.726"/><path class="cls-1" d="M18.01,63.868c-.013,0-.023,0-.035-.005,0,.018-.006.035-.009.052C17.981,63.9,18,63.883,18.01,63.868Z"/><path class="cls-1" d="M16.942,64.875c0,.024,0,.044.006.069l.057-.048Z"/><path class="cls-1" d="M18.037,63.872l-.027,0c-.015.015-.029.032-.044.047Z"/><path class="cls-1" d="M10.935,54.7q-.028-.987-.058-1.974c-.926.127-1.127-.947-1.856-1.146l-.2.159-.151.123-.038.031a8.67,8.67,0,0,0,.705,1.779,2.6,2.6,0,0,0,.27.364,2.182,2.182,0,0,0,1.31.689l-.01-.025A.176.176,0,0,1,10.935,54.7Z"/><path class="cls-1" d="M9.021,51.577l-.2.159Z"/><path class="cls-1" d="M10.922,54.722a2.182,2.182,0,0,1-1.31-.689A2.182,2.182,0,0,0,10.922,54.722Z"/><path class="cls-1" d="M10.912,54.7l.01.025.014,0Z"/><path class="cls-1" d="M22.127,52.773c-.995.314-1.237,1.209-1.565,2.038a2.24,2.24,0,0,0,1.155-.332,1.1,1.1,0,0,0,.4-.5,1.634,1.634,0,0,0,.093-.743,3.214,3.214,0,0,0-.074-.458l-.012.006Z"/><path class="cls-1" d="M22.127,52.781l.012-.006v-.007Z"/><path class="cls-1" d="M22.081,22.271c-2.893-1.567-3.542-4.1-3.1-7.113-1.165-.251-1.085-1.143-1.026-2.024-1.205-.452-2.416-.02-3.624-.005l-.209.361c.122.542-.238,1.077-.225,1.618.014-.007.025-.016.039-.023l-.01.051c.854-.079,1.785-.314,1.977.976a6.772,6.772,0,0,1,.206.682c1.912,1.745,1.537,4.475,2.8,6.5l1.534,1.956.338.369c-3.45,1.1-7.006.716-10.532.742l.365-.887.783-1.6a38.2,38.2,0,0,0,2.529-8.739l-.031,0c0-.011,0-.021,0-.031-2.943,1.459-1.581,5.382-4.022,7.128-.08.6-.347,1.006-.992,1.045.424,1.68-1.609,2.985-.477,5.194,4.893-.146,10.035-1.048,14.889-.168,1.18-1.871-.047-3.024-.116-4.3l-.074-.18Z"/><path class="cls-1" d="M17.958,13.067l0,.067c.019.007.038.01.057.017Z"/><path class="cls-1" d="M18.988,15.087c0,.024,0,.047-.008.071.024.005.04.014.065.019Z"/><path class="cls-1" d="M22.065,22.238l-.033-.042.049.075.02.012Z"/><path class="cls-1" d="M13.935,15.085c-.014.007-.025.016-.039.023s0,.02,0,.031Z"/><path class="cls-1" d="M8.8,23.3c.031,0,.05-.012.08-.014,0-.012,0-.024-.007-.036Z"/><path class="cls-1" d="M9.815,22.283c.022-.014.038-.032.059-.047,0-.014.007-.026.008-.04Z"/><path class="cls-1" d="M22.032,22.2h0l.033.042Z"/><path class="cls-1" d="M22.1,22.283l-.036-.045Z"/><path class="cls-1" d="M83.064,34.38a1.378,1.378,0,0,1,.952,2.064l.014.009,0,.016c.727-.441,1.067.134,1.455.583,2.09,1.047.89,1.883-.176,2.727l-.871,1.2c-.231.713-.383,1.476-1.167,1.837l-1.125,4c.081.077.164.142.246.214l5.242-9.08-5.5-9.527C81.348,30.647,83.117,32.4,83.064,34.38Z"/><path class="cls-1" d="M84.03,36.453l-.014-.009c-.007.014-.009.027-.016.042Z"/><path class="cls-1" d="M84.034,36.469l0-.016-.03.033C84.012,36.478,84.023,36.476,84.034,36.469Z"/><path class="cls-1" d="M40.258,1.745c3.066.466,6,2.275,9.17.4a2.512,2.512,0,0,1-.774,2.671,7.6,7.6,0,0,0-3.4,6.745c.057,1.778-1.087,4.129-3.26,1.02l-.97.816,1.347,3.754,3.031.013c-.421-1.745.631-2.507,2.028-3.039-.483-4.5,1.251-7.643,5.64-9.161L53.28,4.7c-.356-3.73-.572-4.516-4-4.7H46.4c-1,1.026-2,2.048-2.968,0H38.065a5.263,5.263,0,0,0-1.951.78l.259.239C37.713,1.022,39.128.623,40.258,1.745Z"/><path class="cls-1" d="M42.368,17.148H42.32l.074.073Z"/><path class="cls-1" d="M45.446,17.161H45.4c0,.017,0,.03.007.047Z"/><path class="cls-1" d="M47.467,14.105l-.04.017c0,.016,0,.031,0,.047Z"/><path class="cls-1" d="M47.481,14.1l-.014.006-.036.064Z"/><path class="cls-1" d="M74.71,18.355c-.351-1.45-.9-2.852-1.366-4.275l0-.093c-1.263-.9-2.547-2.424-3.691.128,1.742-.387,2.348.438,2.2,2.06,2,2.727,2.318,6.41,5.394,8.864-4.36.679-8.39.139-12.277,1.455-.356-2.7,1.877-3.756,1.929-5.671l-2.248.921c-.3,0-.441.149-.425.454-.727,1.822-2.355,3.284-2.2,5.9,5.58,1.293,11.361-2.4,16.89.232l.008-.014.013.008c1.746-2.721-1.2-4.807-1.072-7.308l-.445-.77C75.689,20.817,75.078,19.874,74.71,18.355Z"/><path class="cls-1" d="M78.922,28.317l-.008.014.014.006Z"/><path class="cls-1" d="M78.928,28.337l.007-.012-.013-.008Z"/><path class="cls-1" d="M67.916,17.319c1.229-.518,1.128-1.566,1.04-2.609l-1.177.442.135,2.161Z"/><path class="cls-1" d="M67.779,15.152l0-.066-.045.084Z"/><path class="cls-1" d="M41.021,13.394l.97-.816c-.6-2.968-1.32-5.887-3.543-8.152l-.081.031a4.16,4.16,0,0,1-1.906-2.641,1.467,1.467,0,0,1-.088-.8L36.114.78c-2.269,1.838.384,3.387.3,5.1C39.575,7.386,40.142,10.485,41.021,13.394Z"/><path class="cls-1" d="M51.48,70.014a1.11,1.11,0,0,1-.5.018c-.412-.107-.472-.57-.513-1.051-1.436-.512-2.526-1.254-2.03-3.054-1.174-.73-1.118-1.878-1.018-3.042-1.609-.413-2.194-1.85-3.025-3.042-1.249-.392-1.9,1.08-3.039,1.018l-.414,2.962,2.07-1.777a8.294,8.294,0,0,1,3.313,5.574c.452,2.512,3.273,3.366,3.731,6.4-4.517.089-8.941-.466-13.306.136-.448-2.344,1.431-3.218,2.026-4.7a4.082,4.082,0,0,0-.63-.513,1.769,1.769,0,0,0-1.37,1C36.241,71.9,34.254,73.627,35.7,75.9h2.425a74.012,74.012,0,0,1,9.812,0h3.836c1.177-1.462.272-2.765.686-3.869A1.376,1.376,0,0,1,51.48,70.014Z"/><path class="cls-1" d="M41.3,60.865c.021,0,.039-.005.06,0l.01-.07Z"/><path class="cls-1" d="M44.361,59.789c.012.017.024.036.036.054s.031,0,.048.008Z"/><path class="cls-1" d="M47.426,62.831l0,.054c.021.006.038.016.06.021Z"/><path class="cls-1" d="M48.45,65.875c-.005.019-.005.034-.01.052.019.012.032.026.052.038Z"/><path class="cls-1" d="M52.461,72.028c.021.006.038.015.061.021-.017-.019-.035-.032-.052-.051C52.466,72.008,52.464,72.018,52.461,72.028Z"/><path class="cls-1" d="M50.983,70.032a1.11,1.11,0,0,0,.5-.018h0A1.11,1.11,0,0,1,50.983,70.032Z"/><path class="cls-1" d="M50.465,68.922l0,.059.068.026Z"/><path class="cls-1" d="M51.529,69.972l-.027-.034c-.01.026-.014.05-.022.076.026-.006.046,0,.073-.012Z"/><path class="cls-1" d="M52.47,72c.017.019.035.032.052.051l.021.007Z"/><path class="cls-1" d="M51.553,70h0l-.024-.03Z"/><path class="cls-1" d="M40.909,63.978c-1.712,1.21-1.038,3.745-2.749,4.956l-.012.006a4.082,4.082,0,0,1,.63.513C41.334,68.346,40.444,65.9,40.909,63.978Z"/><path class="cls-1" d="M67.916,17.319h0l-.032-.109c-1.556.836-.905,2.328-1.065,3.579A2.624,2.624,0,0,0,67.916,17.319Z"/><path class="cls-1" d="M62.713,52.7l1.935.062c.006-.007.007-.015.013-.023l.026.009c.768-.779-2.328-3.32,1.276-2.806a.873.873,0,0,1,.558.065c3.421.325,6.828,1.232,10.457.127a30.955,30.955,0,0,0-5.146,8.657l.018.006c.182,4-1.821,1.416-3.091,1.042v.024c-.01-.005-.018-.013-.028-.018-.627,1.6,1.32,2.527,1.091,4.023,1.194.242,1.963-.534,2.782-1.191q1.45-3.612,2.9-7.225c.608-.829,1.222-1.65,2.381-1.68l.034-.037.029-.01c-.176-2.03,1.965-3.464,1.331-6.179-5.379.161-10.9,1.046-16.4.351C60.844,49.424,63.4,51.127,62.713,52.7Z"/><path class="cls-1" d="M69.814,63.945c.005-.025.005-.049.009-.074-.019,0-.035,0-.053-.006Z"/><path class="cls-1" d="M62.713,52.7l-.076,0,.062.042C62.705,52.73,62.707,52.716,62.713,52.7Z"/><path class="cls-1" d="M77.954,53.769c0-.014,0-.027,0-.041l-.029.01Z"/><path class="cls-1" d="M77.923,53.738l-.034.037c.022,0,.042-.006.065-.006Z"/><path class="cls-1" d="M64.966,54.524c2.725.731,1.621,4.181,3.766,5.324l0-.014.022.008c-.115-3.079-.325-6.1-4.072-7.091,0,0-.006.011-.01.015h-.029C64.188,53.448,64.811,53.946,64.966,54.524Z"/><path class="cls-1" d="M68.732,59.848c.01.005.018.013.028.018l-.023-.032Z"/><path class="cls-1" d="M64.661,52.742c-.006.008-.007.016-.013.023h.029Z"/><path class="cls-5" d="M22.425,40.288c1.2-1.532,1.71-2.9-.136-4.262-4.7,1.871-9.253,1.812-13.667-.749a4.08,4.08,0,0,0-1.935,2.986l2.272,1.93C13.4,38.12,17.852,38.828,22.425,40.288Z"/><path class="cls-5" d="M28.009,6.393c-2.328-.825-3,.5-3.515,2.056a80.612,80.612,0,0,1,5.152,9.342q.747,1.62,1.4,3.286a13.823,13.823,0,0,0,1.892-.321,4.2,4.2,0,0,0,.426-.138,1.741,1.741,0,0,0,.482-.268c.541-.453.278-1.15-.621-2.342C30.565,14.475,27.958,10.927,28.009,6.393Z"/><path class="cls-5" d="M25.328,68.748a2.27,2.27,0,0,0,2.562-.512c.138-3.645,2.369-6.6,4.386-9.662,1.06-1.61,2.149-3.281-1.656-3.841C29.866,59.88,26.809,63.4,24.2,66.817A2.173,2.173,0,0,0,25.328,68.748Z"/><path class="cls-5" d="M55.359,21.384c.8-4.938,3.654-8.754,6.952-12.389-.529-1.7-1.561-2.439-3.349-1.823a20.581,20.581,0,0,1-6.169,10.514c-1.562,1.373-1.152,2.935-1.238,4.517C52.867,22.191,54.22,22.372,55.359,21.384Z"/><path class="cls-5" d="M51.555,22.2H51.5l.053.056C51.554,22.24,51.554,22.221,51.555,22.2Z"/><path class="cls-5" d="M58.611,63.884c.149-3.253-3.158-5.427-2.391-8.7-1.985-.609-3.3-.526-3.679,1.659.753,1.968,3.114,2.943,3.393,5.36A2.158,2.158,0,0,0,58.611,63.884Z"/><path class="cls-5" d="M58.629,63.883h-.018a.066.066,0,0,0,0,.014Z"/><path class="cls-5" d="M61.344,69.533c.21-1.012,1.458-1.634.762-3.132L58.628,63.91C58.638,66.082,57.693,68.665,61.344,69.533Z"/><path class="cls-5" d="M58.628,63.91c0-.009,0-.018,0-.027l-.018.015Z"/><path class="cls-5" d="M62.638,34.711q-1.021,1.713-2.041,3.427a6.207,6.207,0,0,0,5.213,1.074c3.976-.625,8.424-1.645,12.4.765l2.819-2.046q-.843-2-1.687-4.008C74.5,38.077,69.153,38.329,62.638,34.711Z"/><path class="cls-6" d="M8.856,22.61l.227-.394A.626.626,0,0,0,8.856,22.61Z"/><path class="cls-6" d="M77.455,20.237c-.051-.05-.086-.107-.134-.159l.1.169C77.431,20.242,77.442,20.242,77.455,20.237Z"/><path class="cls-6" d="M12.5,50.723l-1.572-.038-.011,1.978C11.64,52.177,13.8,52.883,12.5,50.723Z"/><path class="cls-6" d="M14.964,59.812c1.369-.753,1.284-1.676.4-2.912C14.629,57.957,14.926,58.9,14.964,59.812Z"/><path class="cls-6" d="M17.867,23.976a2.743,2.743,0,0,0,2.575,1.273l-1.534-1.956C18.445,23.39,17.556,23.457,17.867,23.976Z"/><path class="cls-6" d="M13.8,23.319l-2.407.556-.783,1.6A3.749,3.749,0,0,0,13.8,23.319Z"/><path class="cls-6" d="M15.852,19.151q.127-1.177.256-2.357a6.772,6.772,0,0,0-.206-.682C14.138,17.006,15.118,18.083,15.852,19.151Z"/><path class="cls-6" d="M71.8,16.166c-2.2-.752-1.9.439-1.649,1.869C71.5,17.826,71.466,16.858,71.8,16.166Z"/><path class="cls-6" d="M40.814,4.385c-.238-1.236-1.258-1.612-1.9-2.336l-.3-.038-.253,2.446.081-.031C39.225,4.027,40.2,5.653,40.814,4.385Z"/><path class="cls-6" d="M42.984,46.25c-.811,1.2-.807,2.267.453,3.931C44.388,48.314,44.676,47.187,42.984,46.25Z"/><path class="cls-6" d="M44.294,25.428c-1.68.979-1.678,1.008-.989,2.991C44.5,27.709,43.844,26.386,44.294,25.428Z"/><path class="cls-6" d="M35.566,41.7c-2.181.461-3.463.876-4.116,2.534C33.247,44.713,34.249,43.817,35.566,41.7Z"/><path class="cls-6" d="M43.006,38.763c.547-.062,1.34-.274,1.086-1.189a1.266,1.266,0,0,0-1.32-1.083,1.118,1.118,0,0,0-.867,1.037,1.509,1.509,0,0,0,.042.457A1.342,1.342,0,0,0,43.006,38.763Z"/><path class="cls-6" d="M47.148,36.452c.52-.012.843-.45.949-.983a.87.87,0,0,0-.819-1.02.98.98,0,0,0-1.114.736A.9.9,0,0,0,47.148,36.452Z"/><path class="cls-6" d="M47.082,38.862c-.869-.11-.914.658-.921,1.253a.817.817,0,0,0,.82.911c.745-.032,1.019-.573,1.047-1.4C47.757,39.392,47.447,38.908,47.082,38.862Z"/><path class="cls-6" d="M53.805,31.375H51.467c-.22.568-.44,1.137-.676,1.75C52.356,33.716,52.908,32.808,53.805,31.375Z"/><path class="cls-6" d="M30.911,31.727c1.045,1,1.594,2.164,3.142,1.446C33.584,32.036,32.977,31.267,30.911,31.727Z"/><path class="cls-6" d="M43.154,33.934a.9.9,0,0,0,.285.009.664.664,0,0,0,.223-.072l.01,0a.894.894,0,0,0,.337-.347,1.958,1.958,0,0,0,.149-.327c.161-.592-.224-.743-.607-.864-.054-.017-.109-.033-.162-.051-.589-.19-.866.2-.962.682A.791.791,0,0,0,43.154,33.934Z"/><path class="cls-6" d="M43.439,33.943a.9.9,0,0,1-.285-.009A.9.9,0,0,0,43.439,33.943Z"/><path class="cls-6" d="M43.672,33.868l-.01,0Z"/><path class="cls-6" d="M53.574,44.287c-.774-1.253-1.379-2.25-2.926-1.619C50.961,44.035,51.673,44.647,53.574,44.287Z"/><path class="cls-6" d="M39.53,36.568a1.459,1.459,0,0,0,.688-.382.494.494,0,0,0,.1-.193.782.782,0,0,0-.037-.405c-.145-.455-.3-.982-.974-.779-.494.148-.908.438-.8,1.023A.846.846,0,0,0,39.53,36.568Z"/><path class="cls-6" d="M39.51,41.1a1.62,1.62,0,0,0,.344-.142.772.772,0,0,0,.4-.5.9.9,0,0,0,0-.373c-.1-.5-.381-.883-.982-.713-.459.13-.953.293-.765.946C38.644,40.805,38.909,41.18,39.51,41.1Z"/><path class="cls-6" d="M43.346,41.4c-.6-.193-.864.189-.988.653a.74.74,0,0,0,.659.985.934.934,0,0,0,1.045-.714.9.9,0,0,0,.056-.219.54.54,0,0,0-.007-.173C44.039,41.615,43.638,41.543,43.346,41.4Z"/><path class="cls-6" d="M44.118,42.1a.9.9,0,0,1-.056.219A.9.9,0,0,0,44.118,42.1Z"/><path class="cls-6" d="M10.922,54.722a2.182,2.182,0,0,1-1.31-.689,2.6,2.6,0,0,1-.27-.364,8.67,8.67,0,0,1-.7-1.779h0a1.759,1.759,0,0,1-.572-.786,3,3,0,0,1-.143-.966c-.006-.428.026-.908.021-1.452a128.451,128.451,0,0,0,15.744-.176c.493,2.343.1,3.6-1.548,4.265a3.214,3.214,0,0,1,.074.458,1.634,1.634,0,0,1-.093.743,1.1,1.1,0,0,1-.4.5,2.24,2.24,0,0,1-1.155.332.753.753,0,0,1-.484.47c.519,3.159-1.686,5.652-2.1,8.582.012,0,.022,0,.035.005,3.837-3.913,4.726-9.539,8.356-13.994,2.687-.423,5.916,2.5,8.868-.242-3-.039-6.01,0-8.835-1.625-.511-2.409,1.812-4.129,1.762-6.452-.022,0-.035.006-.057,0l0-.018c-2.87.861-2.234,4.115-3.8,5.834C18.747,46.252,13.338,49.133,7.3,47.03c-.983-1.761-.619-5.077-3.429-6.584l-.2.17c.387,2.426,2.4,4.46,1.95,7.081L13.4,61.162C12.752,58.957,11.72,56.878,10.922,54.722Z"/><path class="cls-6" d="M5.776,30.334a5.326,5.326,0,0,1,.036,1.116A6.493,6.493,0,0,1,5.5,33.008a11.382,11.382,0,0,1-.431,1.108,34.679,34.679,0,0,0-1.441,3.238l.535.475c2.937-1.8,2.371-5.4,3.967-7.847,5.476-.36,10.862-1.752,16.544-.023L26.1,35.483l2.533,1.908c.035-2.877-2.936-4.853-2.287-8.28a8.99,8.99,0,0,1,8.6-1.584c1.273.368,2.345.658,2.377-1.222-.027.014-.046.032-.075.046,0-.016-.007-.031-.013-.046-3.684.636-7.5-.7-11.021.866-1.485-.748-1.285-2.891-3.036-3.169.069,1.281,1.3,2.434.116,4.305-4.854-.88-10,.022-14.889.168-1.132-2.209.9-3.514.477-5.194-.03,0-.049.014-.08.014v-.032a2.747,2.747,0,0,0-.385.107l-1.677,2.9a3.971,3.971,0,0,1-.3.8c-.064.023-.127.029-.191.05L5.161,29.01c.105.046.211.078.315.129A5.825,5.825,0,0,1,5.776,30.334Z"/><path class="cls-6" d="M4.158,37.829l-.535-.475c-2.087,1.123-2.62,2.219.055,3.262l.2-.17A3.243,3.243,0,0,1,4.158,37.829Z"/><path class="cls-6" d="M53.28,4.7c.749-1.479,1.282-3.335,3.608-2.279,2.422,1.1,4.959.4,7.384.524,1.446.676.96,2.517,2.136,3.31l.418-.319a5.654,5.654,0,0,0-1.652-4.9C60.04,2.447,57.444,2.256,55.745,0H49.283C52.708.183,52.924.969,53.28,4.7Z"/><path class="cls-6" d="M69.769,11.089c-.222,1.574-2.527,2.107-2.049,4.031l.054-.034,0,.066,1.177-.442a5.327,5.327,0,0,0,.694-.6c1.144-2.552,2.428-1.031,3.691-.128a1.339,1.339,0,0,0,.094-.64l-1.8-3.113-1.536.647Z"/><path class="cls-6" d="M68.223,9.581q.335-.322.67-.644c-.661-1.02-.973-2.28-2.067-3l-.418.319A4.491,4.491,0,0,0,68.223,9.581Z"/><path class="cls-6" d="M69.769,11.089l.333-.208a1.839,1.839,0,0,0-1.209-1.944q-.336.321-.67.644Z"/><path class="cls-6" d="M22,.422a8.807,8.807,0,0,0-.988,5.555c.021,0,.036-.01.058-.012,0,.017,0,.033.009.05,1.793-.714.816-3.176,2.861-4.161,2.858.459,6.118.734,9.108-.492,1.628,1.5,1.229,3.841,3.053,4.793l.314-.279c.085-1.709-2.568-3.258-.3-5.1A5.263,5.263,0,0,1,38.065,0H32.228C28.96,1.967,25.33.384,22,.422Z"/><path class="cls-6" d="M17.954,13.134l0-.067h0c.01,0,.017.01.026.014l-.966-2.532a1.994,1.994,0,0,1-1.085-.2l-1.6,2.777C15.538,13.114,16.749,12.682,17.954,13.134Z"/><path class="cls-6" d="M20.05,8.055a1.541,1.541,0,0,0,1.027-2.04c-.022.009-.04.021-.063.029l0-.067c-1.3.189-1.289,1.038-1.032,2.013.029,0,.053,0,.083.01C20.058,8.02,20.053,8.036,20.05,8.055Z"/><path class="cls-6" d="M20.05,8.055c-.018.006-.032.015-.051.021-.008-.029-.013-.057-.021-.086a.982.982,0,0,0-.727.112,2.411,2.411,0,0,0-.644.775c-.047.074-.095.146-.145.216C19.445,9.411,19.906,8.965,20.05,8.055Z"/><path class="cls-6" d="M46.4,0H43.427C44.394,2.048,45.394,1.026,46.4,0Z"/><path class="cls-6" d="M42.321,17.2v-.057h.048l-1.347-3.754c-.879-2.909-1.446-6.008-4.608-7.518l-.314.279a25.8,25.8,0,0,1,3.414,7.528C39.863,15.141,40.256,16.958,42.321,17.2Z"/><path class="cls-6" d="M18.98,15.158c-.441,3.009.208,5.546,3.1,7.113l-.049-.075h0c.015,0,.025.006.039.008-.947-2.369-1.537-4.892-3.025-7.027h0C19.02,15.172,19,15.163,18.98,15.158Z"/><path class="cls-6" d="M42.333,19.184a4.59,4.59,0,0,0-4.039,4.066c.014-.007.024-.016.038-.024,0,.018.007.035.011.053a7.2,7.2,0,0,0,4.024-4.042l-.034-.006Z"/><path class="cls-6" d="M45.456,19.184l-.009-1.994-.041.018c0-.017,0-.03-.007-.047l-3.031-.013.026.073c-.027,0-.047-.012-.073-.016l.012,1.979c.023,0,.043-.011.067-.015-.01.023-.022.045-.033.068a5.79,5.79,0,0,0,3.008.016c0-.034,0-.065.008-.1C45.41,19.161,45.43,19.175,45.456,19.184Z"/><path class="cls-6" d="M38.343,23.279c-.022.009-.041.02-.063.028,0-.02.01-.037.014-.057a2.268,2.268,0,0,0-1.059,3.055l.089-.013v.013C38.583,25.616,38.613,24.5,38.343,23.279Z"/><path class="cls-6" d="M18.98,15.158c0-.024,0-.047.008-.071.02.029.037.06.057.089a3.227,3.227,0,0,0-.085-.957,1.655,1.655,0,0,0-.976-1.137l.027.069c-.019-.007-.038-.01-.057-.017C17.9,14.015,17.815,14.907,18.98,15.158Z"/><polygon class="cls-6" points="17.958 13.067 17.958 13.067 18.011 13.151 17.958 13.067"/><path class="cls-6" d="M22.1,22.283l-.02-.012L23.1,23.822a1.816,1.816,0,0,0-.119-1.088.988.988,0,0,0-.614-.471,2.028,2.028,0,0,0-.3-.06C22.08,22.23,22.09,22.257,22.1,22.283Z"/><path class="cls-6" d="M22.032,22.2l.038.008h0c-.014,0-.024-.006-.039-.008Z"/><path class="cls-6" d="M9.814,22.181c.025.007.042.007.068.015,0,.014-.007.026-.008.04,2.441-1.746,1.079-5.669,4.022-7.128-.013-.541.347-1.076.225-1.618l-4.3,7.455C9.806,21.353,9.806,21.765,9.814,22.181Z"/><path class="cls-6" d="M9.874,22.236c-.021.015-.037.033-.059.047,0-.034,0-.068,0-.1a.849.849,0,0,0-.731.035l-.227.394a3.237,3.237,0,0,0-.054.653c.026-.005.047-.013.073-.018,0,.012,0,.024.007.036C9.527,23.242,9.794,22.832,9.874,22.236Z"/><path class="cls-6" d="M38.127,75.9h9.812A74.012,74.012,0,0,0,38.127,75.9Z"/><path class="cls-6" d="M69.333,66.556C67.192,68.54,66.312,71.284,65,74.039c-4.155-.958-8.816,2.056-12.482-1.99-.023-.006-.04-.015-.061-.021-.414,1.1.491,2.407-.686,3.869h4.6c2.987-1.457,6.07-.631,9.18,0h.174l1.149-1.99a53.159,53.159,0,0,1,3.14-6.738Q69.682,66.857,69.333,66.556Z"/><path class="cls-6" d="M36.778,69.94C34.06,69.857,34.7,72.989,32.642,74c-2.208.7-5.172-1.123-7.536,1.04l.037,0c-.016.02-.031.034-.047.053,2.542.313,5.212-.634,7.682.694.015.039.022.076.036.115H35.7C34.254,73.627,36.241,71.9,36.778,69.94Z"/><path class="cls-6" d="M25.1,75.088c-.015,0-.031,0-.047,0,.019-.018.038-.03.057-.047C23.52,75.249,22.722,74.4,22.19,73c-.448-1.174-.7-2.548-2.143-3.036,0,.019.006.035.009.054-.025,0-.044-.012-.068-.016-.368,1.963.872,3.437,1.687,4.974a3.027,3.027,0,0,0,.707.919h1.881A4.08,4.08,0,0,0,25.1,75.088Z"/><path class="cls-6" d="M16.939,66.894c.041,0,.074.009.114.01a2.017,2.017,0,0,0-.031-1.963c-.028,0-.045.006-.074,0,0-.025,0-.045-.006-.069L15.216,64.3l1.5,2.6a2.219,2.219,0,0,1,.254.044C16.961,66.932,16.951,66.913,16.939,66.894Z"/><path class="cls-6" d="M17.053,66.9c-.012.019-.019.037-.033.056l-.047-.009C17.749,68.2,18.207,69.76,19.988,70c0-.02,0-.039.006-.06.02.006.034.016.053.022C19.814,68.183,19.024,66.955,17.053,66.9Z"/><path class="cls-6" d="M72.605,62.68c-.819.657-1.588,1.433-2.782,1.191,0,.025,0,.049-.009.074-.014-.005-.025-.012-.04-.017a3.869,3.869,0,0,1-.441,2.628q.348.3.685.613l.777-.048,2.287-3.959.016-.042C72.936,62.971,72.771,62.824,72.605,62.68Z"/><path class="cls-6" d="M59.621,27.411a15.706,15.706,0,0,0-8.5-.709c-1.368-.859-1.165-2.791-2.627-3.45,0,.018,0,.036.005.055-.024-.006-.04-.016-.063-.022.189,1.747-.145,3.665,1.722,5.067,3.143-.834,6.418-1.645,9.395.759.721,3.218-1.215,5.426-2.893,7.687-1.239,1.671-1.441,2.982.817,3.843l.246-.214c-.085-4.047,3.577-6.645,3.831-10.9,5.092.8,9.815-1.91,14.784-.259a2,2,0,0,0,2.573-.938C73.385,25.7,67.6,29.392,62.024,28.1c-.151-2.617,1.477-4.079,2.2-5.9C60.9,22.275,61.8,26.035,59.621,27.411Z"/><path class="cls-6" d="M57.726,40.427l-.246.214c.352,2.466,2.759,4.332,2.118,7.088-3.093,2.834-6.746.8-10.167,1.027-.539,1.806-1.02,3.415-1.5,5.024,2.41-.149,1.548-3.081,3.7-3.988,2.6,2.293,5.615-.1,8.229-.054,1.618.744,1.292,2.644,2.781,2.982,0-.007,0-.012,0-.019l.076,0c.69-1.576-1.869-3.279.174-4.8l-.246-.328C59.841,45.989,60.9,41.753,57.726,40.427Z"/><path class="cls-6" d="M41.358,60.861c1.142.062,1.79-1.41,3.039-1.018-.012-.018-.024-.037-.036-.054.053-.007.093,0,.145-.006.827-.834.351-1.666-.063-2.5-2,.182-2.536-2.011-4.1-2.544,0,.021.013.039.018.061-.028.005-.047,0-.073.008,0,2.06,2.854,3.651,1.038,6.009l.038-.028Z"/><path class="cls-6" d="M39.3,53.709c-.952-1.757.236-5.631-4.069-4.073,2.539.2,1.84,3.6,4.042,4.132l-.006-.065C39.284,53.7,39.291,53.709,39.3,53.709Z"/><path class="cls-6" d="M29.163,40.479c0,.014,0,.023,0,.037l2.275-.949.037-.01c-.436-1.386-.991-2.611-2.832-2.117l.459,3.025Z"/><path class="cls-6" d="M48.5,23.252a2.348,2.348,0,0,0-1.03-2.035c0,.021.012.035.014.056-.029.006-.054.007-.083.012-.205.948-.022,1.7,1.041,2,0-.023,0-.047-.006-.07C48.457,23.224,48.473,23.241,48.5,23.252Z"/><path class="cls-6" d="M47.467,21.217a1.12,1.12,0,0,0-1.012-1.033c.007.022.019.039.025.061h0c-.036.009-.063.01-.1.016-.239.905.187,1.16,1.015,1.024.008-.034.011-.067.02-.1C47.436,21.194,47.45,21.207,47.467,21.217Z"/><path class="cls-6" d="M40.347,54.741c-.133-.558-.371-1.01-1.043-1.032.014.026.024.055.038.079-.023,0-.042-.015-.065-.02.053.632.185,1.184,1.015,1.042,0-.031-.006-.061,0-.092C40.308,54.724,40.327,54.734,40.347,54.741Z"/><path class="cls-6" d="M29.16,40.516l-.05.02-.011-.071c-.96-.257-1.228.165-1,1.075.022-.006.04-.016.062-.022,0,.013,0,.025,0,.037C28.9,41.61,29.175,41.2,29.16,40.516Z"/><path class="cls-6" d="M29.11,40.536l-.011-.071.011.071.053-.057Z"/><path class="cls-6" d="M46.4,20.17c.019,0,.032.011.051.014a1.466,1.466,0,0,0-1-1v.043c-.027.011-.054.016-.082.026a1.5,1.5,0,0,0,.058.673.564.564,0,0,0,.459.362,1.446,1.446,0,0,0,.491-.027C46.391,20.229,46.394,20.2,46.4,20.17Z"/><path class="cls-6" d="M46.48,20.245c-.036.009-.063.01-.1.016h0c.034-.006.061-.007.1-.016Z"/><path class="cls-6" d="M40.909,63.978l.035-.155.414-2.962c-.021,0-.039.006-.06,0,.013-.016.02-.031.032-.046-2.908,1.976-3.324,4.933-3.17,8.115C39.871,67.723,39.2,65.188,40.909,63.978Z"/><path class="cls-6" d="M16.942,64.875l.063.021.017.045c.555.045.858-.165.966-.574a1.794,1.794,0,0,0,.049-.5l-.071.043c0-.017.007-.034.009-.052C17.139,63.7,16.851,64.1,16.942,64.875Z"/><path class="cls-6" d="M83.275,42.818c-.185-.164-.372-.324-.563-.481-1.576.895-1.464,2.888-2.559,4.061-2.79-.467-15.573.4-17.512,1.174l.246.328c5.5.7,11.017-.19,16.4-.351.634,2.715-1.507,4.149-1.331,6.179a3.1,3.1,0,0,0,.785-.361L82.4,47.029c-.082-.072-.165-.137-.246-.214Z"/><path class="cls-6" d="M78.935,28.325c2.542,1.291,1.447,4.886,3.93,6.214l.2-.159c.053-1.984-1.716-3.733-.926-5.958l-4.275-7.405C77.738,23.518,80.681,25.6,78.935,28.325Z"/><path class="cls-6" d="M84.787,39.309l.526.47c1.066-.844,2.266-1.68.176-2.727q-.249.247-.516.477Z"/><path class="cls-6" d="M84.016,36.444a1.378,1.378,0,0,0-.952-2.064l-.2.159A1.98,1.98,0,0,0,84.016,36.444Z"/><path class="cls-6" d="M82.712,42.337c.191.157.378.317.563.481.784-.361.936-1.124,1.167-1.837-.183-.186-.367-.373-.549-.561C82.959,40.727,82.84,41.535,82.712,42.337Z"/><path class="cls-6" d="M83.893,40.42c.182.188.366.375.549.561l.871-1.2-.526-.47A1.307,1.307,0,0,0,83.893,40.42Z"/><path class="cls-6" d="M84.973,37.529q.267-.23.516-.477c-.388-.449-.728-1.024-1.455-.583A1.231,1.231,0,0,0,84.973,37.529Z"/><path class="cls-6" d="M74.71,18.355c.368,1.519.979,2.462,2.708,1.892l-.1-.169a5.41,5.41,0,0,1-1.2-2.086L73.86,14.084a2.67,2.67,0,0,0-.516,0C73.808,15.5,74.359,16.905,74.71,18.355Z"/><path class="cls-6" d="M53.067,4.961c-4.389,1.518-6.123,4.661-5.64,9.161l.04-.017C49.291,11.031,50.594,7.638,53.067,4.961Z"/><path class="cls-6" d="M64.653,21.744l2.248-.921-.083-.033c.16-1.251-.491-2.743,1.065-3.579.013.035.02.068.031.1l-.135-2.161-.05.018c0-.017,0-.033-.009-.05C65.107,16.583,65.493,19.45,64.653,21.744Z"/><path class="cls-6" d="M45.447,17.19c1.356-.578,2.471-1.316,2.034-3.091l-.05.07c0-.016,0-.031,0-.047-1.4.532-2.449,1.294-2.028,3.039h.047Z"/><path class="cls-6" d="M44.4,59.843c.831,1.192,1.416,2.629,3.025,3.042l0-.054c.019.008.031.019.05.028-.207-1.81-.733-3.3-2.97-3.076-.023.023-.036.046-.061.068C44.428,59.845,44.414,59.848,44.4,59.843Z"/><path class="cls-6" d="M48.44,65.927c-.5,1.8.594,2.542,2.03,3.054l0-.059c.022,0,.034,0,.056,0-.269-1.277-.547-2.547-2.013-3.026-.006.023-.01.045-.016.067C48.472,65.953,48.459,65.939,48.44,65.927Z"/><path class="cls-6" d="M47.422,62.885c-.1,1.164-.156,2.312,1.018,3.042.005-.018.005-.033.01-.052.022.006.037.017.058.023.307-1.234.382-2.39-1.032-3.039,0,.016.005.031.006.047C47.46,62.9,47.443,62.891,47.422,62.885Z"/><path class="cls-6" d="M52.543,72.056c.193-.958.136-1.793-.993-2.1,0,.017,0,.029,0,.047h0c-.027.007-.047.006-.073.012a1.376,1.376,0,0,0,.981,2.014c0-.01.005-.02.009-.03Z"/><path class="cls-6" d="M50.47,68.981c.041.481.1.944.513,1.051a1.11,1.11,0,0,0,.5-.018c.008-.026.012-.05.022-.076.018,0,.03.012.048.017.02-.71-.284-1.093-1.029-1.031l.017.083Z"/><path class="cls-6" d="M51.48,70.014h0c.026-.006.046,0,.073-.012h0C51.526,70.009,51.506,70.008,51.48,70.014Z"/><path class="cls-6" d="M75.978,55.846l-.47-.391q-1.452,3.612-2.9,7.225c.166.144.331.291.493.44.008-.007.013-.016.021-.024l2.54-4.4A10.745,10.745,0,0,0,75.978,55.846Z"/><path class="cls-6" d="M77.889,53.775c-1.159.03-1.773.851-2.381,1.68l.47.391Z"/><path class="cls-6" d="M64.966,54.524l-.9.764c1.538,1.16,1.922,2.961,2.606,4.61.668,1.608,1.142,3.41,3.105,4.03l0-.063c.018,0,.034,0,.053.006.229-1.5-1.718-2.422-1.091-4.023C66.587,58.705,67.691,55.255,64.966,54.524Z"/><path class="cls-6" d="M64.063,55.288l.9-.764c-.155-.578-.778-1.076-.318-1.759L62.713,52.7c-.006.013-.008.027-.014.04-.024-.005-.039-.017-.063-.023C62.512,53.907,63.409,54.53,64.063,55.288Z"/><path class="cls-6" d="M15.56,22.107c-.913-.2-1.127.546-1.511,1.037C14.638,22.963,15.566,23.318,15.56,22.107Z"/><path class="cls-6" d="M44.027,10.693c-.031-.716,1.007-1.606-.321-2.244A1.367,1.367,0,0,0,44.027,10.693Z"/><path class="cls-6" d="M38.989,72.585c1.016.266,1.394-.363,1.346-1.4C39.766,71.545,38.8,71.515,38.989,72.585Z"/><path class="cls-6" d="M67.46,51.241l-.939-1.231a.873.873,0,0,0-.558-.065C65.969,50.908,65.891,51.968,67.46,51.241Z"/><path class="cls-6" d="M70.233,56.539c-.813,1.9.606,1.867,1.533,2.231C71.217,58.1,71.669,56.628,70.233,56.539Z"/><path class="cls-6" d="M71.813,58.839c.006-.015.014-.03.019-.045-.02-.009-.044-.015-.066-.024C71.784,58.792,71.793,58.819,71.813,58.839Z"/><path class="cls-6" d="M71.85,58.8l-.018-.006c0,.015-.013.03-.019.045Z"/></svg>